<svg width="215" height="144" viewBox="0 0 215 144" fill="none" xmlns="http://www.w3.org/2000/svg">
<path d="M190.106 87.2097L186.345 87.2899L184.436 87.3214C183.797 87.3358 183.158 87.3329 182.518 87.3387H182.392V87.2097L182.378 84.0019V83.8585H182.521L186.317 83.8757C187.581 83.8786 188.848 83.9073 190.112 83.9216H190.192V83.999C190.187 84.5437 190.167 85.0855 190.155 85.6187L190.106 87.2097ZM190.106 87.2097L190.066 85.59C190.052 85.0568 190.035 84.5293 190.029 84.0019L190.106 84.0793C188.842 84.0936 187.575 84.1251 186.311 84.1251L182.516 84.1423L182.659 83.999L182.645 87.2068L182.516 87.0778C183.14 87.0835 183.765 87.0807 184.393 87.0921L186.279 87.1237L190.106 87.2097Z" fill="#EBEBEB"/>
<path d="M185.872 91.2546L182.111 91.3349L180.202 91.3664C179.563 91.3808 178.923 91.3779 178.284 91.3808H178.158V91.2518L178.144 88.044V87.9006H178.287L182.082 87.9178C183.347 87.9207 184.614 87.9494 185.878 87.9637H185.958V88.0411C185.952 88.5858 185.932 89.1276 185.921 89.6608L185.872 91.2546ZM185.872 91.2546L185.832 89.635C185.818 89.1018 185.8 88.5743 185.795 88.0468L185.872 88.1242C184.608 88.1386 183.341 88.1701 182.077 88.1701L178.281 88.1873L178.424 88.044L178.41 91.2518L178.281 91.1228C178.906 91.1285 179.531 91.1256 180.159 91.1371L182.045 91.1686L185.872 91.2546Z" fill="#EBEBEB"/>
<path d="M32.4854 87.2097L28.7243 87.2899L26.8151 87.3214C26.1758 87.3358 25.5366 87.3329 24.8973 87.3387H24.7712V87.2097L24.7568 84.0019V83.8585H24.9002L28.6956 83.8757C29.9598 83.8786 31.2269 83.9073 32.4911 83.9216H32.5714V83.999C32.5656 84.5437 32.5456 85.0855 32.5341 85.6187L32.4854 87.2097ZM32.4854 87.2097L32.4452 85.59C32.4309 85.0568 32.4137 84.5293 32.408 84.0019L32.4854 84.0793C31.2212 84.0936 29.9541 84.1251 28.6899 84.1251L24.8944 84.1423L25.0378 83.999L25.0234 87.2068L24.8944 87.0778C25.5194 87.0835 26.1443 87.0807 26.7721 87.0921L28.6584 87.1237L32.4854 87.2097Z" fill="#EBEBEB"/>
<path d="M28.2515 91.2546L24.4904 91.3349L22.5812 91.3664C21.9419 91.3808 21.3027 91.3779 20.6634 91.3808H20.5373V91.2518L20.5229 88.044V87.9006H20.6663L24.4618 87.9178C25.726 87.9207 26.993 87.9494 28.2572 87.9637H28.3375V88.0411C28.3318 88.5858 28.3117 89.1276 28.3002 89.6608L28.2515 91.2546ZM28.2515 91.2546L28.2114 89.635C28.197 89.1018 28.1798 88.5743 28.1741 88.0468L28.2515 88.1242C26.9873 88.1386 25.7202 88.1701 24.456 88.1701L20.6606 88.1873L20.8039 88.044L20.7895 91.2518L20.6606 91.1228C21.2855 91.1285 21.9104 91.1256 22.5382 91.1371L24.4245 91.1686L28.2515 91.2546Z" fill="#EBEBEB"/>
<path d="M194.34 91.2546L190.579 91.3349L188.67 91.3664C188.031 91.3808 187.392 91.3779 186.752 91.3808H186.626V91.2518L186.612 88.044V87.9006H186.755L190.551 87.9178C191.815 87.9207 193.082 87.9494 194.346 87.9637H194.426V88.0411C194.421 88.5858 194.401 89.1276 194.389 89.6608L194.34 91.2546ZM194.34 91.2546L194.3 89.635C194.286 89.1018 194.269 88.5743 194.263 88.0468L194.34 88.1242C193.076 88.1386 191.809 88.1701 190.545 88.1701L186.749 88.1873L186.893 88.044L186.878 91.2518L186.749 91.1228C187.374 91.1285 187.999 91.1256 188.627 91.1371L190.513 91.1686L194.34 91.2546Z" fill="#EBEBEB"/>
<path d="M135.792 39.3795L132.03 39.4597L130.121 39.4913C129.482 39.5056 128.843 39.5027 128.203 39.5085H128.077V39.3795L128.063 36.1717V36.0283H128.206L132.002 36.0455C133.266 36.0455 134.533 36.0771 135.797 36.0914H135.878V36.1688C135.872 36.7135 135.852 37.2553 135.84 37.7885L135.792 39.3795ZM135.792 39.3795L135.751 37.7598C135.737 37.2266 135.72 36.6991 135.714 36.1717L135.792 36.2491C134.527 36.2634 133.26 36.2949 131.996 36.2949L128.201 36.3121L128.344 36.1688L128.33 39.3766L128.201 39.2476C128.826 39.2533 129.45 39.2505 130.078 39.2619L131.965 39.2935L135.792 39.3795Z" fill="#EBEBEB"/>
<path d="M131.558 43.4243L127.797 43.5045L125.887 43.5361C125.248 43.5504 124.609 43.5475 123.97 43.5533H123.843V43.4243L123.829 40.2165V40.0731H123.972L127.768 40.0903C129.032 40.0932 130.299 40.1219 131.563 40.1362H131.644V40.2136C131.638 40.7583 131.618 41.3001 131.606 41.8333L131.558 43.4243ZM131.558 43.4243L131.518 41.8046C131.503 41.2714 131.486 40.7439 131.48 40.2165L131.558 40.2939C130.293 40.3082 129.026 40.3397 127.762 40.3397L123.967 40.3569L124.11 40.2136L124.096 43.4214L123.967 43.2924C124.592 43.2981 125.217 43.2953 125.844 43.3067L127.731 43.3383L131.558 43.4243Z" fill="#EBEBEB"/>
<path d="M140.025 43.4243L136.264 43.5045L134.355 43.5361C133.716 43.5504 133.077 43.5475 132.437 43.5533H132.311V43.4243L132.297 40.2165V40.0731H132.44L136.236 40.0903C137.5 40.0932 138.767 40.1219 140.031 40.1362H140.111V40.2136C140.106 40.7583 140.086 41.3001 140.074 41.8333L140.025 43.4243ZM140.025 43.4243L139.985 41.8046C139.971 41.2714 139.954 40.7439 139.948 40.2165L140.025 40.2939C138.761 40.3082 137.494 40.3397 136.23 40.3397L132.434 40.3569L132.578 40.2136L132.563 43.4214L132.434 43.2924C133.059 43.2981 133.684 43.2953 134.312 43.3067L136.198 43.3383L140.025 43.4243Z" fill="#EBEBEB"/>
<path d="M42.9058 70.2649L39.1447 70.3452L37.2355 70.3767C36.5962 70.391 35.957 70.3882 35.3177 70.391H35.1916V70.262L35.1772 67.0542V66.9109H35.3206L39.116 66.9281C40.3802 66.931 41.6473 66.9596 42.9115 66.974H42.9918V67.0514C42.986 67.596 42.966 68.1378 42.9545 68.671L42.9058 70.2649ZM42.9058 70.2649L42.8656 68.6452C42.8513 68.112 42.8341 67.5846 42.8284 67.0571L42.9058 67.1345C41.6416 67.1488 40.3745 67.1804 39.1103 67.1804L35.3148 67.1976L35.4582 67.0542L35.4438 70.262L35.3148 70.133C35.9398 70.1388 36.5647 70.1359 37.1925 70.1502L39.0788 70.1818L42.9058 70.2649Z" fill="#EBEBEB"/>
<path d="M77.7847 99.5479L74.0236 99.6281L72.1144 99.6596C71.4752 99.674 70.8359 99.6711 70.1966 99.674H70.0705V99.545L70.0562 96.3372V96.1938H70.1995L73.9949 96.211C75.2591 96.211 76.5262 96.2426 77.7904 96.2569H77.8707V96.3343C77.865 96.879 77.8449 97.4208 77.8334 97.954L77.7847 99.5479ZM77.7847 99.5479L77.7446 97.9282C77.7302 97.395 77.713 96.8675 77.7073 96.3401L77.7847 96.4174C76.5205 96.4318 75.2534 96.4633 73.9892 96.4633L70.1938 96.4805L70.3371 96.3372L70.3228 99.545L70.1938 99.416C70.8187 99.4217 71.4436 99.4188 72.0714 99.4303L73.9577 99.4618L77.7847 99.5479Z" fill="#EBEBEB"/>
<path d="M189.668 17.8823L185.906 17.9625L183.997 17.9941C183.358 18.0084 182.719 18.0055 182.079 18.0113H181.953V17.8823L181.939 14.6745V14.5311H182.082L185.878 14.5483C187.142 14.5483 188.409 14.5799 189.673 14.5942H189.754V14.6716C189.748 15.2163 189.728 15.7581 189.716 16.2913L189.668 17.8823ZM189.668 17.8823L189.627 16.2626C189.613 15.7294 189.596 15.2019 189.59 14.6745L189.668 14.7519C188.403 14.7662 187.136 14.7977 185.872 14.7977L182.077 14.8149L182.22 14.6716L182.206 17.8794L182.077 17.7504C182.702 17.7561 183.326 17.7533 183.954 17.7676L185.841 17.7991L189.668 17.8823Z" fill="#EBEBEB"/>
<path d="M193.902 21.9272L190.141 22.0074L188.232 22.039C187.592 22.0533 186.953 22.0504 186.314 22.0562H186.188V21.9272L186.173 18.7194V18.576H186.317L190.112 18.5932C191.376 18.5932 192.643 18.6248 193.908 18.6391H193.988V18.7165C193.982 19.2612 193.962 19.803 193.951 20.3362L193.902 21.9272ZM193.902 21.9272L193.862 20.3075C193.847 19.7743 193.83 19.2468 193.824 18.7194L193.902 18.7968C192.638 18.8111 191.371 18.8426 190.106 18.8426L186.311 18.8598L186.454 18.7165L186.44 21.9243L186.311 21.7953C186.936 21.801 187.561 21.7982 188.189 21.8125L190.075 21.844L193.902 21.9272Z" fill="#EBEBEB"/>
<path d="M28.2514 17.886L24.4903 17.9663L22.5811 17.9978C21.9418 18.0122 21.3026 18.0093 20.6633 18.015H20.5372V17.886L20.5171 14.6782V14.5349H20.6604L24.4559 14.5521C25.7201 14.555 26.9872 14.5836 28.2514 14.598H28.3316V14.6754C28.3259 15.22 28.3058 15.7618 28.2944 16.295L28.2514 17.886ZM28.2514 17.886L28.2112 16.2664C28.1969 15.7332 28.1797 15.2057 28.174 14.6782L28.2514 14.7556C26.9872 14.77 25.7201 14.8015 24.4559 14.8015L20.6604 14.8216L20.8038 14.6782L20.7894 17.886L20.6604 17.757C21.2854 17.7628 21.9103 17.7599 22.5381 17.7742L24.4244 17.8058L28.2514 17.886Z" fill="#EBEBEB"/>
<path d="M25.6788 109.559H53.7119L53.7119 57.4227H25.6788L25.6788 109.559Z" fill="#EBEBEB"/>
<path d="M24.3229 57.4225L55.0708 57.4225V55.9834L24.3229 55.9834V57.4225Z" fill="#DBDBDB"/>
<path d="M14.652 57.4225H24.3213V55.9834H14.652V57.4225Z" fill="#EBEBEB"/>
<path d="M16.1824 109.559H25.6797L25.6797 57.4227H16.1824L16.1824 109.559Z" fill="#DBDBDB"/>
<path d="M50.6941 90.9966H28.6953V78.5638H50.6941V90.9966ZM28.7698 90.9249H50.6253V78.6326H28.7698V90.9249Z" fill="#C7C7C7"/>
<path d="M38.4838 84.6586H42.7666V82.1961H38.4838V84.6586Z" fill="#C7C7C7"/>
<path d="M41.5351 84.5094H37.1807V82.3479H41.5351V84.5094ZM37.2523 84.4377H41.4635V82.4196H37.2523V84.4377Z" fill="#C7C7C7"/>
<path d="M50.6941 106.614H28.6953V94.1815H50.6941V106.614ZM28.7698 106.543H50.6253V94.2532H28.7698V106.543Z" fill="#C7C7C7"/>
<path d="M38.4838 100.276H42.7666V97.814H38.4838V100.276Z" fill="#C7C7C7"/>
<path d="M41.5351 100.127H37.1807V97.9655H41.5351V100.127ZM37.2523 100.055H41.4635V98.0371H37.2523V100.055Z" fill="#C7C7C7"/>
<path d="M28.732 75.3416H50.6592V62.9805H28.732V75.3416Z" fill="#A6A6A6"/>
<path d="M47.5613 59.8159H30.8687V71.9161H47.5613V59.8159Z" fill="#C7C7C7"/>
<path d="M41.6615 58.5603H47.5611V59.8159H41.3232L41.6615 58.5603Z" fill="#C7C7C7"/>
<path d="M30.9116 71.9132H47.6042L48.8914 60.8192H32.1988L30.9116 71.9132Z" fill="#A6A6A6"/>
<path d="M43.1263 59.6697H49.0231L48.8912 60.8192H42.6533L43.1263 59.6697Z" fill="#A6A6A6"/>
<path d="M39.2945 75.3416H61.2217V62.9805H39.2945V75.3416Z" fill="#EBEBEB"/>
<path d="M61.2581 75.379H39.2593V62.9463H61.2581V75.379ZM39.3309 75.3074H61.1864V63.018H39.3309V75.3074Z" fill="#C7C7C7"/>
<path d="M49.0468 69.0408H53.3296V66.5783H49.0468V69.0408Z" fill="#C7C7C7"/>
<path d="M52.0991 68.889H47.7446V66.7275H52.0991V68.889ZM47.8163 68.8173H52.0274V66.7992H47.8163V68.8173Z" fill="#C7C7C7"/>
<path d="M28.733 75.3423H39.2422V64.8331H28.733V75.3423Z" fill="#DBDBDB"/>
<path d="M186.947 95.1132H167.792V109.558H186.947V95.1132Z" fill="#EBEBEB"/>
<path d="M196.84 95.1132H186.95V109.558H196.84V95.1132Z" fill="#DBDBDB"/>
<path d="M196.158 108.638C195.424 107.612 194.699 106.58 193.979 105.548L191.832 102.44L189.713 99.3185C189.011 98.2779 188.314 97.2316 187.626 96.1824C188.36 97.2086 189.086 98.2406 189.805 99.2726L191.952 102.38L194.071 105.502C194.776 106.543 195.47 107.589 196.158 108.638Z" fill="#EBEBEB"/>
<path d="M196.158 96.1824C195.47 97.2316 194.773 98.2779 194.071 99.3185L191.952 102.44L189.805 105.548C189.086 106.583 188.36 107.612 187.626 108.638C188.314 107.589 189.011 106.543 189.713 105.502L191.832 102.38L193.979 99.2726C194.699 98.2378 195.427 97.2086 196.158 96.1824Z" fill="#EBEBEB"/>
<path d="M181.469 97.3978H173.273V99.2812H181.469V97.3978Z" fill="#C7C7C7"/>
<path d="M182.315 102.179H172.425V105.178H182.315V102.179Z" fill="white"/>
<path d="M197.76 93.009H166.863V95.0931H197.76V93.009Z" fill="#C7C7C7"/>
<path d="M191.104 78.5638H171.949V93.009H191.104V78.5638Z" fill="#EBEBEB"/>
<path d="M200.994 78.5638H191.104V93.009H200.994V78.5638Z" fill="#DBDBDB"/>
<path d="M200.314 92.0888C199.581 91.0626 198.855 90.0306 198.136 88.9986L195.989 85.8911L193.87 82.7693C193.168 81.7287 192.471 80.6824 191.783 79.6332C192.517 80.6594 193.242 81.6914 193.962 82.7234L196.109 85.8309L198.227 88.9527C198.93 89.9933 199.624 91.0396 200.314 92.0888Z" fill="#EBEBEB"/>
<path d="M200.314 79.6332C199.626 80.6824 198.93 81.7287 198.227 82.7693L196.109 85.8911L193.962 88.9986C193.242 90.0334 192.517 91.0626 191.783 92.0888C192.471 91.0396 193.168 89.9933 193.87 88.9527L195.989 85.8309L198.136 82.7234C198.855 81.6914 199.581 80.6594 200.314 79.6332Z" fill="#EBEBEB"/>
<path d="M185.623 80.8486H177.427V82.732H185.623V80.8486Z" fill="#C7C7C7"/>
<path d="M186.472 85.6302H176.582V88.6288H186.472V85.6302Z" fill="white"/>
<path d="M201.914 76.4626H171.017V78.5467H201.914V76.4626Z" fill="#C7C7C7"/>
<path opacity="0.19" d="M122.602 28.9132C126.091 28.9132 128.92 26.0845 128.92 22.5951C128.92 19.1057 126.091 16.277 122.602 16.277C119.112 16.277 116.284 19.1057 116.284 22.5951C116.284 26.0845 119.112 28.9132 122.602 28.9132Z" fill="#EBEBEB"/>
<path opacity="0.19" d="M127.143 24.7869C127.781 22.2798 126.266 19.7299 123.759 19.0914C121.252 18.453 118.702 19.9677 118.064 22.4748C117.425 24.9818 118.94 27.5317 121.447 28.1702C123.954 28.8087 126.504 27.2939 127.143 24.7869Z" fill="#EBEBEB"/>
<path d="M129.499 23.6357L125.136 31.0719H120.071L115.705 23.6357H129.499Z" fill="#EBEBEB"/>
<path d="M126.32 33.5774H118.887L120.071 31.0719H125.136L126.32 33.5774Z" fill="#EBEBEB"/>
<path d="M125.924 29.7302L125.136 31.0747H120.067L119.471 30.057L125.924 29.7302Z" fill="#C7C7C7"/>
<path opacity="0.19" d="M149.64 28.9132C153.13 28.9132 155.959 26.0845 155.959 22.5951C155.959 19.1057 153.13 16.277 149.64 16.277C146.151 16.277 143.322 19.1057 143.322 22.5951C143.322 26.0845 146.151 28.9132 149.64 28.9132Z" fill="#EBEBEB"/>
<path opacity="0.19" d="M152.311 27.4871C154.438 26.0149 154.969 23.0969 153.497 20.9696C152.025 18.8423 149.107 18.3114 146.98 19.7836C144.852 21.2558 144.321 24.1738 145.794 26.3011C147.266 28.4284 150.184 28.9594 152.311 27.4871Z" fill="#EBEBEB"/>
<path d="M156.538 23.6357L152.172 31.0719H147.106L142.743 23.6357H156.538Z" fill="#EBEBEB"/>
<path d="M153.358 33.5774H145.922L147.106 31.0719H152.172L153.358 33.5774Z" fill="#EBEBEB"/>
<path d="M152.963 29.7302L152.174 31.0747H147.106L146.51 30.057L152.963 29.7302Z" fill="#C7C7C7"/>
<path opacity="0.19" d="M176.678 28.9132C180.168 28.9132 182.997 26.0845 182.997 22.5951C182.997 19.1057 180.168 16.277 176.678 16.277C173.189 16.277 170.36 19.1057 170.36 22.5951C170.36 26.0845 173.189 28.9132 176.678 28.9132Z" fill="#EBEBEB"/>
<path opacity="0.19" d="M179.26 27.5406C181.42 26.1162 182.016 23.2108 180.592 21.0512C179.167 18.8916 176.262 18.2956 174.102 19.72C171.943 21.1444 171.347 24.0498 172.771 26.2094C174.195 28.369 177.101 28.965 179.26 27.5406Z" fill="#EBEBEB"/>
<path d="M183.576 23.6357L179.21 31.0719H174.144L169.778 23.6357H183.576Z" fill="#EBEBEB"/>
<path d="M180.397 33.5774H172.96L174.144 31.0719H179.21L180.397 33.5774Z" fill="#EBEBEB"/>
<path d="M180.001 29.7302L179.212 31.0747H174.144L173.548 30.057L180.001 29.7302Z" fill="#C7C7C7"/>
<path d="M13.0864 109.558L36.6906 109.489L60.2918 109.464L107.5 109.415L154.708 109.464L178.31 109.489L201.914 109.558L178.31 109.63L154.708 109.653L107.5 109.702L60.2918 109.653L36.6906 109.627L13.0864 109.558Z" fill="#263238"/>
<path d="M107.5 129.995C156.432 129.995 196.1 127.136 196.1 123.611C196.1 120.085 156.432 117.227 107.5 117.227C58.5675 117.227 18.8999 120.085 18.8999 123.611C18.8999 127.136 58.5675 129.995 107.5 129.995Z" fill="#EBEBEB"/>
<path d="M79.7393 77.0675C79.8368 75.6227 80.0145 74.1779 80.3499 72.7675C80.6538 71.4947 81.0838 70.1932 81.8864 69.1383C82.6203 68.1779 83.6752 67.4125 84.8993 67.2606C86.0775 67.1173 87.1869 67.6419 88.0698 68.3843C89.162 69.3045 89.9991 70.5257 90.7874 71.7068C91.6675 73.0283 92.4157 74.4015 93.1353 75.8147C93.1582 75.8606 93.0865 75.9007 93.0636 75.8549C92.4702 74.6623 91.7392 73.5013 90.9652 72.4177C90.2342 71.3943 89.4516 70.3738 88.5486 69.4909C87.7402 68.6997 86.711 67.9601 85.5357 67.9228C84.369 67.8855 83.2911 68.542 82.5888 69.4421C81.8033 70.4483 81.402 71.7039 81.1038 72.928C80.7742 74.2725 80.6108 75.6456 80.499 77.0245C80.2696 79.8567 80.2066 82.7091 80.1406 85.5499C80.1034 87.1581 80.0833 88.7663 80.069 90.3745C80.0604 91.1887 80.0546 92.0028 80.0489 92.8198C80.0432 93.6053 80.0833 94.4022 79.9543 95.1762C79.9285 95.3339 79.6676 95.3195 79.6418 95.1676C79.5128 94.4337 79.5444 93.6798 79.5329 92.9345C79.5214 92.1633 79.5128 91.3893 79.5042 90.6182C79.4899 89.1161 79.4842 87.6139 79.487 86.1147C79.4985 83.0989 79.5329 80.0746 79.7393 77.0675Z" fill="#263238"/>
<path d="M83.7871 74.9319C83.9362 74.1321 84.2085 73.0857 84.6643 72.4665C85.4842 71.3514 86.37 71.8358 85.5501 73.0714C84.6557 74.4187 84.5267 75.4851 84.3977 76.1158C84.3977 76.1158 85.7766 78.0852 87.4392 79.0541C87.3676 78.2973 87.1554 77.1334 87.3016 76.0097C87.6227 73.5759 89.0933 73.7135 88.7292 75.6457C88.4368 77.1965 88.3164 78.842 88.3967 79.5558C88.8955 79.9342 89.7498 80.261 90.174 80.4272C90.0794 80.1463 89.9763 79.808 89.8644 79.3952C89.2739 77.2137 90.7273 76.5315 90.776 77.7613C90.8104 78.7703 91.2032 80.3326 91.3408 80.8572C92.1377 81.1238 92.7999 81.3073 93.2041 81.4507C94.8868 82.0412 95.9332 83.314 95.9332 83.314C96.6957 82.6346 97.3121 81.8118 97.7937 80.9088C97.2863 80.4702 96.4807 79.8195 95.3656 79.0341C93.2729 77.5577 94.0011 75.6944 95.6609 76.8525C96.8591 77.6896 97.785 79.2405 98.2064 80.0345C98.7826 78.6557 99.0865 77.1449 99.1553 75.68C97.5127 74.1378 93.4507 71.9878 94.6747 71.9878C95.7755 71.9878 98.2437 73.6046 99.1467 74.2266C99.1209 73.7909 99.075 73.3695 99.0062 72.9596C97.4582 71.9448 92.4301 70.3681 93.2328 69.9152C94.1129 69.4164 97.6216 71.0418 98.6823 71.5549C98.4501 70.801 98.1348 70.1445 97.7535 69.6314C95.615 66.7676 91.7593 65.7843 90.0795 66.329C88.8898 66.716 89.2366 69.7346 88.9815 69.6314C84.2028 67.705 82.0298 69.0638 83.7871 74.9319ZM95.5089 74.5993C95.8472 74.1894 97.4181 75.3962 96.9623 76.0527C96.5094 76.712 95.0703 75.1239 95.5089 74.5993ZM87.3102 72.0251C87.723 72.2888 87.1124 73.8139 86.476 73.3523C85.9342 72.9567 86.8946 71.7585 87.3102 72.0251Z" fill="#008083"/>
<path d="M87.9349 72.4923C88.1499 72.0651 88.3764 71.6409 88.6229 71.2309C88.858 70.8411 89.1074 70.4254 89.4141 70.0843C89.3453 70.0011 89.2794 69.9151 89.2106 69.832C89.1819 69.7976 89.2307 69.7517 89.2593 69.7833C89.3396 69.875 89.417 69.9696 89.4944 70.0613C89.5087 70.0699 89.5231 70.0843 89.5288 70.1015C89.8241 70.4569 90.1021 70.821 90.3687 71.1937C90.8389 71.294 91.3033 71.4431 91.7562 71.595C92.2263 71.7527 92.6907 71.9161 93.1465 72.1081C93.1953 72.1282 93.1695 72.2056 93.1236 72.1855C92.6707 71.9849 92.2149 71.7928 91.7447 71.6351C91.3033 71.4861 90.8503 71.3714 90.4031 71.2424C90.5493 71.4488 90.6927 71.6552 90.8303 71.8673C91.6731 72.1081 92.4958 72.4951 93.287 72.8678C94.1155 73.2605 94.9153 73.7192 95.7093 74.1807C95.7552 74.2065 95.7122 74.2753 95.6663 74.2495C94.8895 73.7851 94.0782 73.3867 93.2555 73.0025C92.4872 72.6413 91.6903 72.3461 90.9163 72.0049C92.8685 75.0522 94.0409 78.5667 95.6061 81.8233C95.6291 81.872 95.5545 81.9093 95.5345 81.8634C95.0557 80.7225 94.5053 79.6102 93.9865 78.4865C93.5192 77.4774 93.0634 76.4655 92.5961 75.4564C92.4585 75.1611 92.3181 74.8659 92.1747 74.5735C92.2607 76.2017 92.2263 77.8558 92.4929 79.464C92.5015 79.5213 92.4184 79.5328 92.4127 79.4726C92.3009 77.7325 91.9941 76.0211 92.0056 74.2725C92.0056 74.261 92.0113 74.2581 92.0142 74.2495C91.6817 73.5845 91.3291 72.928 90.9478 72.2916C90.2999 73.8138 89.6205 75.3618 89.3195 76.9958C89.3109 77.0445 89.2278 77.0245 89.2421 76.9729C89.6807 75.3331 90.0907 73.6934 90.879 72.1769C90.4605 71.4861 90.0075 70.8239 89.503 70.1961C89.2851 70.6003 89.0071 70.9844 88.7605 71.3714C88.5197 71.7498 88.2818 72.1311 88.0611 72.5181C87.5852 73.3494 87.1667 74.1979 86.8399 75.0981C86.8227 75.1468 86.7424 75.121 86.7625 75.0751C87.1323 74.2065 87.5078 73.3351 87.9349 72.4923Z" fill="#008083"/>
<path d="M72.5441 76.196C73.7968 74.9404 75.2531 73.2893 77.1909 73.2921C79.06 73.295 80.436 74.8 81.2243 76.3537C82.0499 77.9763 82.3481 79.8167 82.5803 81.6026C82.8612 83.744 83.016 85.8997 83.0762 88.0583C83.1106 89.2566 83.1049 90.4577 83.0762 91.656C83.0475 92.8657 83.016 94.0926 82.801 95.2852C82.7666 95.4801 82.457 95.4858 82.4455 95.2766C82.3882 94.2675 82.4283 93.2527 82.4341 92.2436C82.4398 91.2489 82.4226 90.2542 82.3882 89.2594C82.3137 87.2499 82.1675 85.2404 81.9324 83.2423C81.726 81.4965 81.5626 79.702 81.0409 78.0164C80.5707 76.497 79.6878 74.757 78.1455 74.0891C76.0414 73.1775 73.986 74.843 72.61 76.2505C72.5699 76.2849 72.5068 76.2333 72.5441 76.196Z" fill="#263238"/>
<path d="M66.1512 79.0054C66.1598 79.2663 66.177 79.5186 66.1942 79.768C66.7675 79.3666 67.4842 78.9997 68.2467 78.9166C70.024 78.7274 69.9122 80.0804 68.7226 80.1378C67.5902 80.1922 66.8306 80.3843 66.283 80.628C66.5726 82.9758 67.2176 84.8649 67.315 84.8907C67.4125 84.9136 69.5854 84.7588 72.0135 84.2973C71.572 83.3542 70.5658 82.1043 71.0761 82.0011C71.6007 81.8979 72.1511 83.0159 72.4349 84.2113C73.6074 83.9734 74.8114 83.6666 75.852 83.271C75.0694 82.5945 73.8596 81.7517 74.324 81.3934C74.7856 81.0322 75.7459 82.2218 76.3192 83.0818C76.8897 82.8382 77.3971 82.5658 77.7956 82.2591C76.7406 80.7111 74.1721 80.3958 74.5075 79.2778C74.8486 78.1368 77.2452 79.7106 78.3259 81.7832C79.593 80.4703 79.9656 78.6098 79.8309 77.0188C78.7272 76.8898 76.603 77.1249 76.7578 76.3308C76.9012 75.5769 78.4463 75.6887 79.7019 76.1531C79.5471 75.4336 79.2862 74.8172 78.9652 74.4073C77.8013 72.9138 74.2524 74.8144 74.2524 74.8144C74.2524 74.8144 74.6308 71.2454 73.2777 70.629C72.498 70.2736 71.122 70.2764 69.7402 71.0906C70.5142 71.1536 71.4516 71.4002 71.8272 71.9391C72.3088 72.6242 71.5491 72.9969 71.0675 72.6816C70.7292 72.458 70.0928 71.7499 68.9462 71.6582C68.5018 72.028 68.0661 72.4952 67.6648 73.0772C67.5329 73.2606 67.4125 73.4556 67.2892 73.6677C68.4044 73.2033 69.8836 72.9654 71.4459 73.7422C72.9853 74.5076 72.1253 76.1044 70.8009 75.4852C69.4908 74.8717 68.2152 74.2525 66.8134 74.6051C66.2974 75.7919 66.1282 77.1994 66.1397 78.584C66.6672 78.2028 67.444 77.747 68.4187 77.489C69.9495 77.0876 70.411 78.0021 68.7312 78.1712C67.6619 78.2687 66.7646 78.6614 66.1512 79.0054ZM68.0145 76.5487C67.9084 76.0528 68.9949 75.9094 69.1755 76.3136C69.3246 76.6548 68.1177 77.0446 68.0145 76.5487ZM77.2968 79.2921C77.4 79.0226 78.1252 79.3294 78.0593 79.6676C77.9676 80.1177 77.1993 79.5644 77.2968 79.2921ZM72.1712 81.0322C72.7015 80.82 73.5271 82.1358 72.9509 82.4368C72.3747 82.7378 71.7383 81.207 72.1712 81.0322Z" fill="#008083"/>
<path d="M67.5242 84.6155C68.3211 83.2825 69.1094 81.9409 69.9465 80.6337C70.3364 80.0231 70.7463 79.4268 71.1677 78.8391C71.1046 78.8248 71.0387 78.8076 70.9785 78.7933C70.8724 78.7703 70.7664 78.7503 70.6603 78.7331C70.4166 78.6901 70.1672 78.6557 69.9207 78.6299C69.6885 78.6069 69.4534 78.5926 69.2212 78.5897C68.9776 78.5869 68.711 78.5783 68.473 78.6299C68.4444 78.6356 68.4386 78.5897 68.4673 78.5897C68.7167 78.5983 68.9718 78.5668 69.2212 78.5639C69.462 78.5611 69.7057 78.5668 69.9465 78.5811C70.173 78.5955 70.3994 78.6184 70.6259 78.6528C70.7492 78.6729 70.8753 78.6929 70.9986 78.7187C71.0731 78.7331 71.1505 78.7445 71.2222 78.7675C71.655 78.1741 72.1022 77.5921 72.5666 77.0217C71.1677 76.3795 69.7315 75.8492 68.2007 75.6285C68.1749 75.6256 68.1835 75.5855 68.2093 75.5883C69.7315 75.832 71.2594 76.2247 72.6383 76.9328C72.8934 76.6203 73.1486 76.3079 73.4066 75.9983C73.6961 75.6514 74.0028 75.3131 74.2637 74.9433C74.2809 74.9204 74.3153 74.9462 74.2952 74.9663C73.934 75.3533 73.6044 75.7775 73.2833 76.2047C73.2862 76.2047 73.289 76.2047 73.2919 76.2047C73.8681 76.5888 74.3984 77.0503 74.9144 77.509C75.4448 77.9791 75.9636 78.4665 76.4653 78.9653C76.4825 78.9825 76.4567 79.014 76.4366 78.9939C75.9407 78.5009 75.4247 78.0279 74.8858 77.5807C74.3468 77.1335 73.7792 76.7207 73.2374 76.2792C73.2346 76.2763 73.2346 76.2735 73.2346 76.2706C73.1113 76.434 72.988 76.5974 72.8619 76.7579C72.7988 76.8382 72.7358 76.9213 72.6756 77.0016C72.6727 77.0102 72.667 77.0131 72.6612 77.0188C72.4548 77.2883 72.2456 77.5606 72.042 77.8301C72.2943 78.1655 72.4778 78.5639 72.6584 78.9423C72.8361 79.3179 72.9938 79.7077 73.1371 80.0976C73.4324 80.906 73.633 81.7517 73.8022 82.5945C73.8079 82.6203 73.7678 82.6317 73.762 82.6059C73.6015 81.766 73.3378 80.9547 73.0368 80.1578C72.882 79.7507 72.7042 79.3523 72.5236 78.9567C72.3574 78.5955 72.1567 78.2486 72.0019 77.8845C71.8242 78.1225 71.6436 78.3604 71.4687 78.6012C71.4171 78.67 71.3684 78.7417 71.3196 78.8133C71.3282 78.8277 71.3225 78.8477 71.3024 78.8506C71.2996 78.8506 71.2967 78.8506 71.2938 78.8506C70.7463 79.616 70.2246 80.3986 69.7172 81.1898C69.7516 81.2414 69.7659 81.3045 69.786 81.3618C69.8175 81.4593 69.849 81.5539 69.8777 81.6513C69.935 81.8463 69.9809 82.0441 70.0182 82.2447C70.0526 82.4339 70.0784 82.6231 70.0984 82.8123C70.1185 83.0216 70.0984 83.2538 70.1472 83.4573C70.1558 83.4889 70.1013 83.4917 70.107 83.4573C70.1386 83.2681 70.0898 83.0445 70.064 82.8553C70.0354 82.6489 69.9952 82.4454 69.9494 82.2419C69.9064 82.0584 69.8576 81.8749 69.8032 81.6972C69.7745 81.6055 69.7458 81.5166 69.7172 81.4277C69.7 81.3819 69.677 81.3303 69.6627 81.2815C69.4248 81.6542 69.1897 82.0269 68.9575 82.4024C68.4988 83.1477 68.043 83.8959 67.5844 84.6413C67.5614 84.6843 67.5012 84.6527 67.5242 84.6155Z" fill="#008083"/>
<path d="M79.8224 94.8523C79.8424 94.0955 79.9628 93.3359 80.0431 92.5848C80.1262 91.8309 80.2094 91.0741 80.2925 90.3201C80.4473 88.8639 80.5333 87.3761 80.8773 85.9513C81.1726 84.7244 81.7115 83.5491 82.6546 82.6833C83.1305 82.2447 83.7382 81.8864 84.3976 81.852C85.0712 81.8147 85.6962 82.0498 86.2494 82.4225C86.8801 82.8467 87.3646 83.4516 87.806 84.0622C88.259 84.6929 88.6603 85.3436 89.0186 86.0345C89.033 86.0603 88.99 86.0775 88.9785 86.0517C88.3163 84.9021 87.4018 83.9132 86.3526 83.1105C85.8682 82.7407 85.3149 82.4626 84.6986 82.4196C84.088 82.3766 83.5433 82.669 83.0932 83.0589C82.2132 83.8243 81.7029 84.9509 81.399 86.0574C81.0378 87.3704 80.9232 88.7492 80.7426 90.0937C80.6365 90.8935 80.5333 91.6933 80.4272 92.4931C80.3212 93.2871 80.2552 94.1041 80.0861 94.8896C80.0488 95.0588 79.8166 95.0243 79.8224 94.8523Z" fill="#263238"/>
<path d="M83.5401 88.9842C83.758 89.2881 84.0361 89.5661 84.3629 89.8241C84.2396 89.0874 84.0877 87.7773 84.4603 87.0779C85.0394 85.9943 85.7217 86.5361 85.3777 87.4763C84.8817 88.8208 84.8158 89.7295 84.8215 90.1452C85.5554 90.6268 86.4383 91.0167 87.3327 91.3291C87.2525 90.9679 87.2037 90.5179 87.2496 90.0363C87.3643 88.8781 88.2529 88.9011 88.0207 90.1051C87.9204 90.6268 87.8975 91.1256 87.9003 91.5183C89.9242 92.1519 91.8133 92.4013 91.8133 92.4013C92.5673 91.3979 93.0947 90.4347 93.433 89.5203C92.4899 89.2852 90.5807 89.2307 90.6237 88.5571C90.6781 87.6512 92.5271 88.3478 93.6079 89.0071C93.8745 88.1385 93.9662 87.3215 93.9347 86.5676C93.5133 86.43 92.7307 86.258 91.3346 86.1376C89.3939 85.9713 89.4885 84.8705 90.896 84.8935C91.9337 84.9135 93.2467 85.5471 93.8687 85.8767C93.4645 83.2365 91.4493 81.5452 89.8353 81.4793C87.1206 81.3703 88.0981 84.7473 88.0981 84.7473C88.0981 84.7473 86.2606 83.4515 84.5234 83.4859C82.7833 83.5318 81.6825 86.4042 83.5401 88.9842ZM90.7899 84.1023C90.7297 83.7239 91.9395 83.6321 92.0025 84.1195C92.0771 84.6641 90.8501 84.4893 90.7899 84.1023ZM92.7393 88.064C92.7135 87.8146 93.2381 87.7716 93.3556 88.0841C93.433 88.2905 92.7593 88.3105 92.7393 88.064ZM86.2205 88.2962C86.6304 88.3535 86.8626 89.8155 86.1574 89.7869C85.6213 89.7639 85.8736 88.2475 86.2205 88.2962Z" fill="#008083"/>
<path d="M86.7852 89.9216C86.854 89.7381 86.9142 89.5546 86.9715 89.3683C86.9199 89.5575 86.8712 89.7438 86.8368 89.9359C86.8311 89.9732 86.7737 89.956 86.7852 89.9216Z" fill="#008083"/>
<path d="M87.5019 87.5681C87.628 87.1925 87.7713 86.8227 87.9175 86.4558C87.9949 86.258 88.0752 86.0631 88.1612 85.871C88.2329 85.7076 88.2931 85.5241 88.402 85.3808C88.3189 85.226 88.2415 85.0683 88.1813 84.9078C88.1755 84.8935 88.1956 84.882 88.2071 84.8935C88.4135 85.1343 88.574 85.4381 88.7345 85.7133C88.8091 85.8423 88.8807 85.9713 88.9553 86.1003C89.1072 86.1089 89.262 86.1433 89.4111 86.172C89.5745 86.2007 89.735 86.2351 89.8984 86.2723C90.0589 86.3096 90.2223 86.3469 90.3829 86.3841C90.5434 86.4214 90.7011 86.4759 90.8645 86.4988C90.9017 86.5045 90.8874 86.5647 90.8501 86.5504C90.6896 86.4845 90.5119 86.4558 90.3427 86.4185C90.1879 86.3841 90.0303 86.3583 89.8726 86.3354C89.7149 86.3125 89.5573 86.2924 89.3996 86.2781C89.2821 86.2666 89.1588 86.2609 89.0413 86.2494C89.1072 86.3641 89.1731 86.4759 89.2362 86.5905C89.2448 86.6077 89.2563 86.6278 89.2649 86.645C89.3967 86.6335 89.5257 86.6679 89.6547 86.6909C89.7952 86.7167 89.9357 86.7425 90.0733 86.774C90.3571 86.8371 90.638 86.903 90.9189 86.9804C91.5066 87.1438 92.0857 87.333 92.6647 87.5222C92.6963 87.5337 92.6762 87.5824 92.6447 87.5709C92.0685 87.3731 91.4837 87.2183 90.8903 87.0836C90.6122 87.0205 90.3341 86.9575 90.0561 86.9001C89.9156 86.8715 89.778 86.8399 89.6375 86.8113C89.5286 86.7883 89.4168 86.7769 89.3136 86.7396C89.6117 87.29 89.8927 87.8519 90.1507 88.4252C90.7125 89.6722 91.1884 90.9536 91.67 92.2321C91.6815 92.2637 91.6327 92.2837 91.6213 92.2522C91.1712 90.9737 90.6007 89.7467 90.0045 88.5313C89.8955 88.3105 89.7837 88.0898 89.6748 87.8719C89.6662 87.9178 89.6547 87.9608 89.6461 88.0067C89.6175 88.1586 89.5917 88.3077 89.5659 88.4596C89.5143 88.7635 89.4627 89.0645 89.4168 89.3683C89.3251 89.9818 89.176 90.6325 89.1989 91.2546C89.1989 91.2947 89.1416 91.2919 89.1473 91.2546C89.1961 90.9536 89.1961 90.6411 89.2161 90.3373C89.2362 90.0191 89.2591 89.7009 89.2964 89.3855C89.3308 89.0817 89.3709 88.7749 89.4225 88.4739C89.4483 88.322 89.4741 88.1701 89.5028 88.021C89.5229 87.9121 89.5286 87.7859 89.5888 87.6913C89.4283 87.3731 89.2735 87.0521 89.1101 86.7339C88.9581 86.4357 88.8062 86.1376 88.6514 85.8423C88.5855 85.7162 88.5138 85.5901 88.445 85.4639C88.4049 85.6216 88.3246 85.7735 88.2644 85.9197C88.1956 86.0917 88.1239 86.2609 88.0551 86.4329C87.9003 86.8113 87.7541 87.1954 87.6108 87.5767C87.4044 88.1185 87.1779 88.6746 87.0088 89.2422C87.1779 88.6803 87.3184 88.1156 87.5019 87.5681Z" fill="#008083"/>
<path d="M86.9717 89.3698C86.9833 89.3263 86.9978 89.2799 87.0123 89.2365C86.9978 89.2799 86.9862 89.3263 86.9717 89.3698Z" fill="#008083"/>
<path d="M75.2842 93.3846L75.4734 97.4238L75.9664 107.838H86.7107L87.2009 97.4238L87.393 93.3846H75.2842Z" fill="#37474F"/>
<path d="M75.2842 93.3846L75.4734 97.4238H87.2009L87.393 93.3846H75.2842Z" fill="#263238"/>
<path d="M74.521 95.0167H88.1577V91.7487H74.521V95.0167Z" fill="#37474F"/>
<path d="M85.8423 107.838H83.9561V109.55H85.8423V107.838Z" fill="#37474F"/>
<path d="M85.8423 107.838H83.9561V108.693H85.8423V107.838Z" fill="#263238"/>
<path d="M78.7189 107.838H76.8354V109.55H78.7189V107.838Z" fill="#37474F"/>
<path d="M78.7189 107.838H76.8354V108.693H78.7189V107.838Z" fill="#263238"/>
<path d="M183.455 61.9601H106.864V113.193H183.455V61.9601Z" fill="#DBDBDB"/>
<path d="M182.899 62.585H107.42V112.568H182.899V62.585Z" fill="#263238"/>
<path d="M193.431 117.034H96.8877V120.552H193.431V117.034Z" fill="#C7C7C7"/>
<path d="M96.8877 117.034L106.864 113.193H183.455L193.431 117.034H96.8877Z" fill="#DBDBDB"/>
<path d="M107.755 115.673L114.194 113.193H176.128L182.567 115.673H107.755Z" fill="#263238"/>
<path d="M178.634 66.3833H111.686V108.773H178.634V66.3833Z" fill="white"/>
<path d="M178.634 66.3833H111.686V68.0144H178.634V66.3833Z" fill="#455A64"/>
<path d="M113.222 67.1974C113.222 67.3666 113.084 67.507 112.912 67.507C112.743 67.507 112.603 67.3694 112.603 67.1974C112.603 67.0283 112.74 66.8878 112.912 66.8878C113.084 66.8878 113.222 67.0283 113.222 67.1974Z" fill="#C7C7C7"/>
<path d="M114.483 67.1974C114.483 67.3666 114.346 67.507 114.174 67.507C114.002 67.507 113.864 67.3694 113.864 67.1974C113.864 67.0283 114.002 66.8878 114.174 66.8878C114.346 66.8878 114.483 67.0283 114.483 67.1974Z" fill="white"/>
<path d="M115.742 67.1974C115.742 67.3666 115.604 67.507 115.432 67.507C115.26 67.507 115.123 67.3694 115.123 67.1974C115.123 67.0283 115.26 66.8878 115.432 66.8878C115.604 66.8878 115.742 67.0283 115.742 67.1974Z" fill="#008083"/>
<path d="M178.636 68.0145H177.447V108.773H178.636V68.0145Z" fill="#DBDBDB"/>
<path d="M178.04 82.1443C177.871 82.1443 177.733 82.0067 177.733 81.8376V68.5592C177.733 68.39 177.871 68.2524 178.04 68.2524C178.209 68.2524 178.347 68.39 178.347 68.5592V81.8376C178.347 82.0067 178.209 82.1443 178.04 82.1443Z" fill="#A6A6A6"/>
<path d="M164.114 105.697H126.208V103.243H164.114V105.697ZM126.351 105.553H163.971V103.386H126.351V105.553Z" fill="#008083"/>
<path d="M127.572 103.756H126.715V105.187H127.572V103.756Z" fill="#008083"/>
<path d="M128.757 103.756H127.899V105.187H128.757V103.756Z" fill="#008083"/>
<path d="M129.938 103.756H129.081V105.187H129.938V103.756Z" fill="#008083"/>
<path d="M131.118 103.756H130.261V105.187H131.118V103.756Z" fill="#008083"/>
<path d="M132.3 103.756H131.442V105.187H132.3V103.756Z" fill="#008083"/>
<path d="M133.481 103.756H132.624V105.187H133.481V103.756Z" fill="#008083"/>
<path d="M134.665 103.756H133.808V105.187H134.665V103.756Z" fill="#008083"/>
<path d="M135.846 103.756H134.989V105.187H135.846V103.756Z" fill="#008083"/>
<path d="M137.027 103.756H136.169V105.187H137.027V103.756Z" fill="#008083"/>
<path d="M138.208 103.756H137.351V105.187H138.208V103.756Z" fill="#008083"/>
<path d="M139.389 103.756H138.532V105.187H139.389V103.756Z" fill="#008083"/>
<path d="M140.57 103.756H139.713V105.187H140.57V103.756Z" fill="#008083"/>
<path d="M157.77 84.3889H134.323V99.5478H157.77V84.3889Z" fill="#005151"/>
<path d="M141.714 82.818H134.323V84.3889H142.138L141.714 82.818Z" fill="#005151"/>
<g opacity="0.1">
<path d="M157.77 84.3889H134.323V99.5478H157.77V84.3889Z" fill="#005151"/>
<path d="M141.714 82.818H134.323V84.3889H142.138L141.714 82.818Z" fill="#005151"/>
</g>
<path d="M134.404 88.752L148.952 93.3244L154.823 74.6509L144.021 71.2539L139.157 73.6361L134.404 88.752Z" fill="#EBEBEB"/>
<path d="M144.021 71.2539L139.157 73.6361L142.903 74.8114L144.021 71.2539Z" fill="#DBDBDB"/>
<path d="M152.422 77.3411L144.333 74.7981L144.182 75.2767L152.272 77.8197L152.422 77.3411Z" fill="#DBDBDB"/>
<path d="M152.044 78.5516L143.955 76.0085L143.804 76.4871L151.894 79.0302L152.044 78.5516Z" fill="#DBDBDB"/>
<path d="M151.663 79.7607L143.574 77.2177L143.423 77.6962L151.513 80.2393L151.663 79.7607Z" fill="#DBDBDB"/>
<path d="M151.282 80.9717L139.43 77.2457L139.279 77.7243L151.132 81.4503L151.282 80.9717Z" fill="#DBDBDB"/>
<path d="M150.901 82.1814L139.049 78.4554L138.898 78.934L150.751 82.66L150.901 82.1814Z" fill="#DBDBDB"/>
<path d="M150.521 83.3907L138.668 79.6647L138.518 80.1433L150.37 83.8693L150.521 83.3907Z" fill="#DBDBDB"/>
<path d="M150.141 84.604L138.289 80.8781L138.138 81.3566L149.991 85.0826L150.141 84.604Z" fill="#DBDBDB"/>
<path d="M149.76 85.8134L137.908 82.0874L137.757 82.566L149.61 86.292L149.76 85.8134Z" fill="#DBDBDB"/>
<path d="M149.379 87.023L137.527 83.297L137.376 83.7756L149.229 87.5016L149.379 87.023Z" fill="#DBDBDB"/>
<path d="M149.001 88.2337L137.148 84.5077L136.997 84.9863L148.85 88.7123L149.001 88.2337Z" fill="#DBDBDB"/>
<path d="M148.619 89.446L136.766 85.72L136.616 86.1986L148.468 89.9246L148.619 89.446Z" fill="#DBDBDB"/>
<path d="M148.238 90.6554L136.385 86.9294L136.235 87.408L148.087 91.134L148.238 90.6554Z" fill="#DBDBDB"/>
<path d="M157.716 99.5479H134.269L132.655 85.6445H156.105L157.716 99.5479Z" fill="#008083"/>
<path d="M139.879 84.2054H132.489L132.655 85.6445H140.47L139.879 84.2054Z" fill="#008083"/>
<path d="M101.85 47.214C100.792 41.5437 99.737 35.9451 98.6821 30.401C91.6444 31.2352 84.6555 34.916 77.6035 34.8472C78.6613 40.5175 79.7163 46.1161 80.7712 51.6602C87.8089 50.826 94.7978 47.1481 101.85 47.214Z" fill="#DBDBDB"/>
<path d="M81.0264 36.1917C81.6112 39.2647 82.1988 42.3235 82.7836 45.3679C82.9642 45.3335 83.1448 45.2991 83.3254 45.2618C82.7406 42.226 82.153 39.1759 81.5682 36.1143C81.3876 36.1401 81.207 36.1659 81.0264 36.1917Z" fill="#C7C7C7"/>
<path d="M82.3936 35.9709C82.9784 39.021 83.566 42.0568 84.1508 45.0811C84.3314 45.041 84.512 44.998 84.6926 44.955C84.1078 41.9364 83.523 38.9063 82.9354 35.8677C82.7548 35.9021 82.5742 35.9393 82.3936 35.9709Z" fill="#C7C7C7"/>
<path d="M83.7612 35.6928C84.346 38.7229 84.9308 41.7386 85.5156 44.7486C85.6962 44.7028 85.8768 44.6569 86.0574 44.6082C85.4726 41.6039 84.8878 38.591 84.303 35.5696C84.1196 35.6126 83.9418 35.6556 83.7612 35.6928Z" fill="#C7C7C7"/>
<path d="M85.1255 35.3718C85.9826 39.7865 86.8398 44.1839 87.6969 48.5699C87.8775 48.5183 88.0581 48.4667 88.2387 48.4151C87.3816 44.0291 86.5244 39.6403 85.6673 35.2313C85.4867 35.2801 85.3061 35.3259 85.1255 35.3718Z" fill="#C7C7C7"/>
<path d="M86.4902 35.0134C87.3474 39.4109 88.2045 43.794 89.0616 48.1772C89.2422 48.1256 89.4228 48.0711 89.6034 48.0195C88.7463 43.6392 87.8892 39.2561 87.032 34.8644C86.8514 34.9131 86.6708 34.9618 86.4902 35.0134Z" fill="#C7C7C7"/>
<path d="M87.855 34.6293C88.7121 39.0153 89.5692 43.3927 90.4264 47.7758C90.607 47.7242 90.7876 47.6698 90.9682 47.6182C90.111 43.235 89.2539 38.8576 88.3968 34.4745C88.2162 34.5261 88.0356 34.5777 87.855 34.6293Z" fill="#C7C7C7"/>
<path d="M89.2192 34.2308C90.0764 38.6111 90.9335 42.9913 91.7906 47.3773C91.9712 47.3257 92.1518 47.2741 92.3324 47.2254C91.4753 42.8337 90.6182 38.4534 89.761 34.0731C89.5804 34.1247 89.3998 34.1792 89.2192 34.2308Z" fill="#C7C7C7"/>
<path d="M90.584 33.8323C91.4411 38.2155 92.2983 42.6015 93.1554 46.9989C93.336 46.9502 93.5166 46.9015 93.6972 46.8556C92.8401 42.4495 91.9829 38.0607 91.1258 33.6747C90.9452 33.7263 90.7646 33.7779 90.584 33.8323Z" fill="#C7C7C7"/>
<path d="M91.9482 33.4397C92.8054 37.8285 93.6625 42.2289 94.5196 46.6464C94.7002 46.6005 94.8808 46.5575 95.0614 46.5145C94.2043 42.0884 93.3472 37.6823 92.49 33.2877C92.3094 33.3365 92.1288 33.3881 91.9482 33.4397Z" fill="#C7C7C7"/>
<path d="M93.313 33.0641C94.1701 37.4672 95.0273 41.8848 95.8844 46.3252C96.065 46.2851 96.2456 46.2479 96.4262 46.2135C95.5691 41.7615 94.7119 37.3325 93.8519 32.9236C93.6742 32.9695 93.4936 33.0153 93.313 33.0641Z" fill="#C7C7C7"/>
<path d="M94.6772 32.7201C95.5344 37.1434 96.3915 41.5867 97.2515 46.0587C97.4321 46.0272 97.6127 45.9957 97.7933 45.967C96.9362 41.4807 96.0762 37.0259 95.2191 32.594C95.0385 32.6341 94.8578 32.6771 94.6772 32.7201Z" fill="#C7C7C7"/>
<path d="M96.0449 32.4134C96.9021 36.8624 97.762 41.3373 98.6192 45.8437C98.7998 45.8208 98.9804 45.7978 99.161 45.7778C98.301 41.2542 97.4439 36.765 96.5839 32.3044C96.4033 32.3417 96.2255 32.3761 96.0449 32.4134Z" fill="#C7C7C7"/>
<path d="M99.2037 40.7468C99.1377 45.7033 99.0718 50.6569 99.0059 55.6076C106.932 63.319 114.861 50.3989 122.788 57.858C122.836 54.18 122.885 50.5021 122.934 46.8242C121.44 44.0808 119.947 42.0655 118.453 40.5118C112.038 39.3852 105.619 46.7124 99.2037 40.7468Z" fill="#EBEBEB"/>
<path d="M122.934 46.8241C121.441 44.0807 119.947 42.0655 118.453 40.5117C118.436 41.8017 118.419 43.0888 118.402 44.3788C119.913 44.634 121.423 45.3564 122.934 46.8241Z" fill="#DBDBDB"/>
<path d="M118.815 54.1686C118.852 51.3879 118.889 48.6072 118.924 45.8266C118.72 45.7778 118.517 45.7377 118.313 45.7062C118.276 48.4897 118.239 51.2732 118.204 54.0568C118.408 54.0854 118.611 54.1227 118.815 54.1686Z" fill="#DBDBDB"/>
<path d="M117.275 53.9795C117.312 51.1902 117.35 48.4038 117.384 45.6145C117.181 45.6059 116.977 45.6059 116.773 45.6117C116.736 48.4009 116.699 51.1931 116.665 53.9823C116.868 53.9737 117.072 53.9737 117.275 53.9795Z" fill="#DBDBDB"/>
<path d="M115.733 54.0625C115.77 51.2675 115.807 48.4754 115.842 45.6804C115.638 45.7034 115.435 45.7349 115.231 45.7693C115.194 48.5643 115.156 51.3593 115.122 54.1571C115.326 54.1199 115.529 54.0883 115.733 54.0625Z" fill="#DBDBDB"/>
<path d="M114.191 54.3521C114.245 50.2527 114.297 46.1534 114.351 42.0541C114.148 42.0999 113.944 42.1515 113.741 42.206C113.686 46.3082 113.635 50.4075 113.58 54.5097C113.784 54.4553 113.987 54.4037 114.191 54.3521Z" fill="#DBDBDB"/>
<path d="M112.651 54.7849C112.706 50.6827 112.757 46.5777 112.812 42.4755C112.608 42.5385 112.405 42.6016 112.201 42.6675C112.147 46.7726 112.095 50.8748 112.041 54.9799C112.244 54.9139 112.448 54.848 112.651 54.7849Z" fill="#DBDBDB"/>
<path d="M111.109 55.2894C111.164 51.1844 111.215 47.0793 111.27 42.9742C111.066 43.043 110.863 43.1118 110.659 43.1806C110.605 47.2857 110.553 51.3908 110.499 55.4958C110.702 55.427 110.906 55.3582 111.109 55.2894Z" fill="#DBDBDB"/>
<path d="M109.567 55.7998C109.621 51.6947 109.673 47.5925 109.727 43.4874C109.524 43.5534 109.32 43.6164 109.117 43.6795C109.062 47.7817 109.011 51.8868 108.956 55.989C109.16 55.9288 109.363 55.8628 109.567 55.7998Z" fill="#DBDBDB"/>
<path d="M108.027 56.2498C108.082 52.1504 108.133 48.0482 108.188 43.946C107.984 44.0005 107.781 44.0521 107.577 44.098C107.523 48.1973 107.471 52.2966 107.417 56.396C107.62 56.3501 107.824 56.3014 108.027 56.2498Z" fill="#DBDBDB"/>
<path d="M106.485 56.5708C106.54 52.4772 106.591 48.3808 106.646 44.2843C106.442 44.3187 106.239 44.3474 106.035 44.3703C105.981 48.4639 105.929 52.5546 105.875 56.6482C106.078 56.6282 106.282 56.6024 106.485 56.5708Z" fill="#DBDBDB"/>
<path d="M104.943 56.697C104.997 52.6091 105.049 48.5213 105.103 44.4334C104.9 44.4391 104.696 44.4363 104.493 44.4248C104.438 48.5098 104.386 52.5919 104.332 56.6769C104.536 56.6913 104.739 56.697 104.943 56.697Z" fill="#DBDBDB"/>
<path d="M103.404 56.5623C103.458 52.4859 103.51 48.4095 103.564 44.3302C103.361 44.2958 103.157 44.2557 102.954 44.2041C102.899 48.2776 102.847 52.3512 102.793 56.4218C102.997 56.4763 103.2 56.5222 103.404 56.5623Z" fill="#DBDBDB"/>
<path d="M101.861 56.0979C101.916 52.0329 101.967 47.968 102.022 43.9031C101.818 43.8228 101.615 43.7311 101.411 43.6307C101.357 47.6899 101.305 51.7491 101.25 55.8083C101.454 55.9144 101.658 56.0119 101.861 56.0979Z" fill="#DBDBDB"/>
<path d="M124.777 52.182C121.822 56.8718 118.829 61.6305 115.796 66.458C125.095 62.7284 123.484 78.4148 131.826 76.3881C133.741 73.4039 135.653 70.4197 137.571 67.4326C138.276 66.3834 138.981 65.3342 139.687 64.2822C130.697 67.404 132.778 50.826 124.777 52.182Z" fill="#DBDBDB"/>
<path d="M129.108 74.9404C131.161 71.7498 133.211 68.5649 135.255 65.3858C135.105 65.3198 134.962 65.2453 134.825 65.165C132.783 68.3356 130.737 71.5147 128.687 74.6996C128.825 74.7856 128.965 74.8687 129.108 74.9404Z" fill="#C7C7C7"/>
<path d="M128.097 74.2495C130.143 71.0704 132.184 67.897 134.223 64.7351C134.096 64.629 133.973 64.5172 133.856 64.3997C131.82 67.5587 129.779 70.7293 127.735 73.9084C127.85 74.0288 127.973 74.1435 128.097 74.2495Z" fill="#C7C7C7"/>
<path d="M127.214 73.3294C129.26 70.1474 131.302 66.9797 133.337 63.8206C133.228 63.6859 133.122 63.5426 133.019 63.3964C130.983 66.5554 128.942 69.726 126.893 72.9137C126.999 73.0542 127.105 73.1946 127.214 73.3294Z" fill="#C7C7C7"/>
<path d="M126.428 72.2343C128.486 69.0351 130.536 65.8502 132.577 62.6797C132.483 62.5192 132.388 62.3586 132.296 62.1924C130.252 65.3686 128.2 68.5593 126.136 71.7671C126.233 71.9247 126.331 72.0795 126.428 72.2343Z" fill="#C7C7C7"/>
<path d="M125.706 71.0275C127.778 67.8025 129.84 64.6004 131.889 61.4127C131.803 61.2378 131.717 61.0629 131.631 60.8823C129.573 64.0787 127.506 67.2951 125.428 70.5315C125.522 70.6978 125.614 70.8641 125.706 71.0275Z" fill="#C7C7C7"/>
<path d="M125.012 69.7718C127.102 66.5124 129.183 63.276 131.25 60.0596C131.167 59.879 131.084 59.6955 131 59.5149C128.925 62.7456 126.838 65.9993 124.737 69.273C124.829 69.4364 124.92 69.6056 125.012 69.7718Z" fill="#C7C7C7"/>
<path d="M124.313 68.5248C126.431 65.2196 128.532 61.9401 130.622 58.6836C130.539 58.503 130.456 58.3224 130.37 58.1447C128.269 61.4213 126.156 64.7208 124.026 68.0461C124.123 68.2038 124.218 68.3614 124.313 68.5248Z" fill="#C7C7C7"/>
<path d="M123.573 67.3467C125.723 63.9841 127.856 60.6501 129.974 57.342C129.886 57.17 129.797 57.0009 129.705 56.8346C127.572 60.1657 125.425 63.5254 123.261 66.9109C123.367 67.0543 123.47 67.2005 123.573 67.3467Z" fill="#C7C7C7"/>
<path d="M122.759 66.3002C124.946 62.8688 127.116 59.469 129.272 56.1006C129.175 55.9458 129.074 55.7939 128.971 55.6477C126.801 59.0447 124.614 62.4732 122.409 65.9362C122.53 66.0537 122.647 66.1741 122.759 66.3002Z" fill="#C7C7C7"/>
<path d="M121.839 65.4489C124.072 61.9372 126.285 58.4628 128.481 55.0171C128.369 54.8881 128.254 54.7619 128.134 54.6444C125.921 58.1188 123.688 61.6305 121.435 65.1765C121.575 65.2597 121.71 65.3514 121.839 65.4489Z" fill="#C7C7C7"/>
<path d="M120.775 64.8468C123.06 61.2463 125.322 57.6802 127.567 54.1513C127.438 54.0538 127.303 53.965 127.162 53.8818C124.898 57.448 122.616 61.0485 120.308 64.6892C120.469 64.735 120.626 64.7866 120.775 64.8468Z" fill="#C7C7C7"/>
<path d="M119.537 64.5573C121.879 60.8536 124.198 57.19 126.494 53.5637C126.339 53.5064 126.182 53.4605 126.018 53.4232C123.699 57.0897 121.357 60.7963 118.989 64.543C119.178 64.5373 119.362 64.543 119.537 64.5573Z" fill="#C7C7C7"/>
<path d="M45.7351 28.2539C43.6854 29.6012 42.6276 32.293 42.6276 32.293C42.6276 32.293 40.4174 34.7727 40.5636 36.3866C40.7098 38.0034 41.9482 38.6283 41.9482 38.6283L41.9597 37.7511C41.9597 37.7511 42.2865 38.9465 44.0265 39.7607C45.7666 40.5719 48.3036 40.5003 49.6939 40.1219C51.0843 39.7406 51.8783 38.872 51.8783 38.872L51.1559 40.0015C51.1559 40.0015 52.9447 40.3025 54.3867 38.6283C55.8286 36.9542 53.3518 33.6174 53.2142 32.981C53.0766 32.3446 53.6213 28.0131 48.983 27.8325C48.9801 27.8296 47.1455 27.3251 45.7351 28.2539Z" fill="#C7C7C7"/>
<path d="M41.3202 38.3875C40.8616 38.0435 40.5462 37.4444 40.3886 36.9026C40.2223 36.3292 40.2252 35.7215 40.4488 35.1654C40.7154 34.5003 41.2027 33.9671 41.6786 33.4454C42.1688 32.9064 42.702 32.4019 43.1836 31.8544C43.2094 31.8228 43.1635 31.7856 43.1348 31.8085C42.6332 32.1783 42.1745 32.6226 41.7216 33.0498C41.2887 33.4568 40.8616 33.8782 40.5319 34.377C40.2338 34.8271 40.0102 35.3574 40.0044 35.905C40.0016 36.3579 40.1191 36.7994 40.3255 37.1978C40.572 37.6766 40.939 38.0263 41.2916 38.4219C41.3116 38.4448 41.346 38.4076 41.3202 38.3875Z" fill="#C7C7C7"/>
<path d="M55.1603 36.7592C54.9425 35.0794 53.7356 33.7951 53.1565 32.25C52.8441 31.4129 52.6491 30.5185 52.1761 29.7531C52.1647 29.733 52.1274 29.7531 52.1389 29.776C52.5173 30.4554 52.6635 31.2122 52.8871 31.949C53.1136 32.6972 53.4747 33.3852 53.8445 34.0703C54.5153 35.3202 55.3238 36.7965 54.8135 38.247C54.5784 38.9178 54.0165 39.5972 53.2655 39.6689C53.2368 39.6718 53.2425 39.7205 53.2741 39.7148C53.8933 39.5944 54.4093 39.259 54.759 38.7286C55.1403 38.1438 55.2463 37.4444 55.1603 36.7592Z" fill="#C7C7C7"/>
<path d="M55.1376 37.195C55.2981 36.6102 55.301 35.9853 55.0917 35.4119C54.8853 34.8415 54.4725 34.3771 54.054 33.9557C53.5695 33.4683 53.0506 32.9925 52.8156 32.3274C52.807 32.2987 52.764 32.3188 52.7726 32.3446C53.1395 33.4368 54.1228 34.1105 54.6818 35.0794C55.321 36.1888 55.043 37.5562 54.2518 38.5108C53.7644 39.0985 53.1166 39.5342 52.42 39.8352C52.4085 39.8409 52.4171 39.8581 52.4286 39.8553C53.6326 39.3737 54.785 38.4965 55.1376 37.195Z" fill="#C7C7C7"/>
<path d="M66.1743 126.3C65.5379 126.506 47.3718 126.271 46.6867 125.821C46.423 125.655 46.3026 123.006 46.251 119.801C46.251 119.766 46.251 119.735 46.251 119.7C46.2395 119.041 46.2309 118.359 46.228 117.671C46.228 117.576 46.228 117.482 46.2252 117.387C46.1994 112.763 46.2739 107.964 46.2739 107.964L58.4257 108.085L58.0588 117.421L58.0444 117.791L57.9699 119.723L57.9642 119.921C57.9642 119.921 64.8757 123.12 65.578 123.694C66.2746 124.264 66.8136 126.096 66.1743 126.3Z" fill="#D3766A"/>
<path d="M60.717 121.163C60.6706 121.148 60.6445 121.134 60.6416 121.12C60.6416 121.122 60.6706 121.137 60.717 121.163Z" fill="#FFC727"/>
<path d="M66.1743 126.3C65.5379 126.506 47.3718 126.271 46.6867 125.821C46.4545 125.675 46.3312 123.565 46.271 120.847C49.5992 121.541 62.4992 124.152 62.8518 123.049C62.9894 122.616 61.8886 121.865 61.1891 121.443C63.0955 122.352 65.2082 123.393 65.5809 123.697C66.2746 124.264 66.8135 126.096 66.1743 126.3Z" fill="#263238"/>
<path d="M42.5439 55.6362C42.5439 55.6362 45.2701 86.3296 45.7145 88.6746C45.8177 89.2078 45.8807 92.1088 45.9237 95.8384C46.0183 103.974 45.961 118.651 45.961 118.651H58.7664C58.7664 118.651 58.3851 93.224 57.8204 88.5456C57.2528 83.8643 53.6293 55.6391 53.6293 55.6391H42.5439V55.6362Z" fill="#263238"/>
<path d="M58.1901 116.418C56.192 116.375 56.7654 116.361 54.7673 116.341C53.7898 116.332 47.3627 116.275 46.4511 116.427C46.431 116.43 46.431 116.464 46.4511 116.467C47.3656 116.619 53.7898 116.562 54.7673 116.553C56.7654 116.533 56.192 116.519 58.1901 116.476C58.2274 116.476 58.2274 116.421 58.1901 116.418Z" fill="#37474F"/>
<path d="M48.3948 101.884C48.3805 100.027 48.3662 98.169 48.3518 96.3114C48.3375 94.514 48.3404 92.7109 48.2544 90.9135C48.0824 87.2757 47.3428 83.6981 46.8182 80.1004C46.2936 76.4999 45.855 72.8879 45.4594 69.273C45.015 65.2167 44.6223 61.1546 44.2038 57.0954C44.2009 57.0667 44.1579 57.0696 44.1608 57.0954C44.7628 64.3452 45.4364 71.5921 46.4398 78.7961C46.6892 80.5877 46.9615 82.3765 47.2568 84.1625C47.5549 85.9685 47.853 87.7773 47.9964 89.6063C48.1368 91.3951 48.1598 93.1896 48.177 94.9841C48.197 96.8389 48.2142 98.6965 48.2314 100.551C48.2716 104.673 48.3117 111.02 48.3518 115.143C48.3518 115.223 48.4751 115.22 48.4751 115.14C48.4522 111.462 48.4235 105.562 48.3948 101.884Z" fill="#37474F"/>
<path d="M39.8438 55.6362C39.8438 55.6362 45.2703 86.3296 45.7147 88.6746C45.8179 89.2078 45.8809 92.1088 45.9239 95.8384L45.9268 95.8498L52.0299 55.6362H39.8438Z" fill="#37474F"/>
<path d="M35.8936 127.332C35.2314 127.228 19.1322 118.812 18.7223 118.104C18.5617 117.837 19.6511 115.421 21.0529 112.537C21.0672 112.508 21.0815 112.477 21.0987 112.448C21.3854 111.854 27.1359 102.156 27.1359 102.156L37.0374 107.97L31.5477 117.76L31.4503 117.935C31.4503 117.935 36.1717 123.912 36.5415 124.74C36.9027 125.563 36.5558 127.44 35.8936 127.332Z" fill="#D3766A"/>
<path d="M35.8938 127.332C35.2316 127.228 19.1324 118.815 18.7253 118.101C18.5877 117.874 19.3617 116.074 20.4625 113.761C22.7702 115.507 33.9129 123.874 34.727 123.006C34.899 122.822 34.77 122.387 34.5436 121.922C35.5211 123.212 36.3897 124.399 36.5416 124.734C36.9028 125.563 36.5531 127.438 35.8938 127.332Z" fill="#263238"/>
<path d="M32.9696 117.401L21.2363 110.152C21.2363 110.152 34.81 90.7271 34.8759 89.0042C34.9734 86.4386 36.2032 75.852 37.2352 67.2806C37.2352 67.2806 35.2773 62.6395 38.9409 55.6305H53.6411C53.6411 55.6305 52.655 62.3012 50.9694 66.5324C50.9694 66.5324 49.6851 66.9309 47.7014 68.0231C47.7014 68.0231 46.2394 87.1352 46.1821 89.5173C46.076 94.2273 32.9696 117.401 32.9696 117.401Z" fill="#263238"/>
<path d="M33.6864 114.692C31.9922 113.632 32.4939 113.913 30.7882 112.869C29.954 112.359 24.4672 109.011 23.6072 108.672C23.5871 108.664 23.5699 108.695 23.5871 108.707C24.2923 109.306 29.8365 112.557 30.6793 113.053C32.405 114.062 31.9205 113.755 33.6549 114.744C33.6893 114.761 33.7208 114.713 33.6864 114.692Z" fill="#37474F"/>
<path d="M51.5285 66.2372C50.2041 66.693 48.9256 67.3408 47.7015 68.0202C47.6528 68.046 47.6843 68.1206 47.7359 68.0976C49.0259 67.5444 50.3388 67.014 51.5973 66.392C51.6948 66.3432 51.6288 66.2028 51.5285 66.2372Z" fill="#37474F"/>
<path d="M49.7254 64.1072C49.8544 63.3389 49.9548 62.5678 50.0207 61.7938C50.144 60.3461 50.1497 58.8956 49.9748 57.4537C49.9691 57.4049 49.9003 57.4107 49.9003 57.4565C49.9032 59.4603 49.8487 61.4641 49.5506 63.4479C49.4072 64.4025 48.9256 65.8387 49.9232 65.9849C50.9409 66.1339 51.5974 63.7288 51.7206 63.0695C52.0675 61.2319 52.0818 59.2482 51.9356 57.3906C51.9328 57.3447 51.8525 57.3361 51.8554 57.3849C51.8668 58.9157 51.7694 60.263 51.6404 61.6906C51.5802 62.3557 51.047 66.025 49.8946 65.7555C49.7025 65.7097 49.6022 65.5205 49.5735 65.2309C49.5362 64.8841 49.6681 64.4569 49.7254 64.1072Z" fill="#37474F"/>
<path d="M49.9262 65.8587C49.823 66.1052 49.7399 66.3604 49.6682 66.6184C49.6138 66.819 49.5364 67.034 49.5593 67.2433C49.565 67.2834 49.6166 67.2863 49.6396 67.2605C49.7743 67.0885 49.8316 66.8563 49.9062 66.6528C49.995 66.4177 50.0868 66.1826 50.167 65.9476C50.2215 65.787 49.9893 65.7068 49.9262 65.8587Z" fill="#37474F"/>
<path d="M40.6668 56.5536C40.2139 57.319 39.8584 58.1389 39.5631 58.9759C39.2679 59.813 39.05 60.6759 38.9095 61.5502C38.8264 61.9859 38.7977 62.4274 38.749 62.8689C38.7375 63.3103 38.6945 63.7518 38.7203 64.1961C38.7203 65.0819 38.8608 65.9591 39.0271 66.8249L39.0299 66.8392V66.8535C38.6917 70.5601 38.3362 74.2667 37.975 77.9733C37.6195 81.6799 37.2583 85.3865 36.8799 89.0874L36.8455 89.4342L36.8283 89.6091C36.8197 89.6664 36.8255 89.7209 36.7911 89.7983C36.685 90.0534 36.5703 90.2312 36.4528 90.4433C36.2177 90.8475 35.9741 91.246 35.7333 91.6416C35.2459 92.4356 34.75 93.2211 34.2512 94.0094C33.2536 95.5832 32.2359 97.1398 31.224 98.6993C29.1973 101.821 27.1333 104.92 25.0664 108.013L31.0635 98.5961L34.0448 93.8776C34.5407 93.0893 35.0338 92.3009 35.5183 91.5068C35.7591 91.1084 35.9999 90.7128 36.2321 90.3115C36.341 90.1165 36.47 89.8958 36.5445 89.7209C36.5646 89.6923 36.5675 89.6263 36.5732 89.569L36.5904 89.3941L36.6248 89.0472C36.9774 85.3435 37.3443 81.6398 37.7227 77.9389C38.0925 74.2381 38.4681 70.5343 38.8579 66.8335L38.8608 66.8621C38.7003 65.9821 38.5684 65.0934 38.5799 64.1961C38.5598 63.7489 38.6057 63.3017 38.6286 62.8574C38.6859 62.4159 38.7232 61.9687 38.8178 61.533C38.9783 60.6558 39.2134 59.7929 39.5259 58.9587C39.8269 58.1217 40.1995 57.3104 40.6668 56.5536Z" fill="#37474F"/>
<path d="M53.366 52.9416L53.8103 56.4074L38.7861 55.9344C38.7861 55.9344 39.5429 44.8604 43.8745 40.6837C46.0417 38.5968 48.4181 38.9035 49.8515 40.5375C50.2127 40.9503 54.4725 46.5174 54.8194 48.868C55.1175 50.9406 53.366 52.9416 53.366 52.9416Z" fill="#455A64"/>
<path d="M51.0756 51.7719C50.356 51.8407 49.6308 51.9353 48.9284 52.1217C48.5787 52.2134 48.2318 52.3252 47.8878 52.4427C47.7158 52.5029 47.5438 52.5545 47.3718 52.6061C47.1941 52.6577 47.002 52.7093 46.8186 52.7122C46.8014 52.7122 46.8014 52.7409 46.8186 52.7409C46.9992 52.7495 47.1712 52.7581 47.3489 52.7409C47.5209 52.7237 47.69 52.6864 47.8563 52.6434C48.2118 52.5545 48.5644 52.4456 48.9198 52.351C49.6365 52.1618 50.3532 51.9726 51.0813 51.8407C51.1186 51.8321 51.11 51.7691 51.0756 51.7719Z" fill="#263238"/>
<path d="M52.8415 52.5173C52.251 52.4399 51.649 52.3912 51.0556 52.3854C50.7575 52.3826 50.4593 52.3998 50.1612 52.4256C50.0179 52.437 49.8774 52.4542 49.7341 52.4714C49.5793 52.4915 49.4245 52.5316 49.2668 52.5488C49.2496 52.5517 49.2496 52.5775 49.2668 52.5775C49.4159 52.566 49.5649 52.5832 49.7111 52.5832C49.8602 52.5832 50.0093 52.5804 50.1583 52.5775C50.4565 52.5746 50.7546 52.5775 51.0527 52.5718C51.649 52.5603 52.2424 52.5574 52.8387 52.5689C52.8731 52.5718 52.8731 52.5202 52.8415 52.5173Z" fill="#263238"/>
<path d="M45.3823 55.9802C45.4139 56.0404 45.4483 56.0948 45.4827 56.1464L45.7321 56.1522C45.6289 56.0834 45.5142 56.0232 45.3823 55.9802ZM49.6422 40.6521C49.4731 40.5116 49.2925 40.3884 49.0717 40.3138C49.1778 40.526 49.3297 40.6808 49.496 40.827C49.6623 40.9646 49.84 41.0907 50.0665 41.1624C49.9604 40.9531 49.8056 40.7954 49.6422 40.6521ZM40.4574 49.2779C40.3198 49.447 40.1937 49.6276 40.1191 49.8484C40.3313 49.7423 40.4861 49.5904 40.6323 49.4298C40.7699 49.2578 40.896 49.0801 40.9705 48.8536C40.7613 48.9597 40.6007 49.1145 40.4574 49.2779ZM43.7311 41.3745C43.5935 41.5465 43.4674 41.7242 43.3957 41.9478C43.605 41.8389 43.7627 41.687 43.906 41.5264C44.0465 41.3573 44.1697 41.1767 44.2471 40.9531C44.035 41.062 43.8802 41.214 43.7311 41.3745ZM48.5672 48.3892C48.4296 48.5584 48.3035 48.739 48.2261 48.9626C48.4382 48.8536 48.5959 48.7017 48.7421 48.5412C48.8797 48.372 49.0058 48.1914 49.0775 47.9678C48.8711 48.0768 48.7105 48.2287 48.5672 48.3892ZM44.7918 50.8746C44.5739 50.8976 44.3589 50.9348 44.1497 51.0409C44.3733 51.1126 44.5911 51.1154 44.809 51.104C45.0269 51.0839 45.2447 51.0466 45.4511 50.9377C45.2304 50.866 45.0097 50.8632 44.7918 50.8746ZM53.6727 49.1202C53.4577 49.1432 53.2399 49.1804 53.0306 49.2865C53.2542 49.361 53.4749 49.361 53.6899 49.3496C53.9078 49.3295 54.1228 49.2922 54.3321 49.1862C54.1085 49.1116 53.8906 49.1088 53.6727 49.1202ZM48.0885 43.6822C47.8706 43.7051 47.6556 43.7395 47.4463 43.8513C47.6699 43.923 47.8878 43.9258 48.1057 43.9115C48.3207 43.8914 48.5385 43.8513 48.7478 43.7481C48.5242 43.6764 48.3035 43.6707 48.0885 43.6822ZM50.6857 53.5808C50.6656 53.3629 50.6283 53.145 50.5223 52.9386C50.4506 53.1594 50.4477 53.3801 50.4563 53.598C50.4821 53.8158 50.5194 54.0308 50.6255 54.2401C50.6971 54.0165 50.7 53.7986 50.6857 53.5808ZM41.1053 54.0796C41.0795 53.8646 41.0422 53.6467 40.9361 53.4374C40.8645 53.661 40.8616 53.8818 40.8759 54.0968C40.896 54.3146 40.9333 54.5296 41.0393 54.7389C41.111 54.5153 41.1139 54.2974 41.1053 54.0796ZM52.7583 45.0324C52.7525 44.9779 52.7468 44.9234 52.7382 44.869C52.7382 44.8661 52.7382 44.8632 52.7382 44.8632C52.6837 44.7228 52.6293 44.5852 52.5777 44.4476C52.5203 44.654 52.5203 44.8489 52.5289 45.0496C52.5519 45.2646 52.5891 45.4796 52.6952 45.6917C52.7669 45.4652 52.7697 45.2474 52.7583 45.0324ZM44.3188 46.351C44.2987 46.1303 44.2615 45.9182 44.1525 45.706C44.0809 45.9325 44.078 46.1475 44.0895 46.3682C44.1124 46.5832 44.1497 46.7982 44.2557 47.0104C44.3274 46.7839 44.3303 46.566 44.3188 46.351Z" fill="white"/>
<path d="M46.3999 40.4545C46.4773 40.7497 47.9479 42.6274 49.301 42.5213C49.7396 42.4869 49.6564 40.0761 49.6564 40.0761L49.6908 39.8955L50.1724 37.3871L47.1882 35.5983L46.7582 35.3633C46.7582 35.3633 46.6722 36.0599 46.5719 36.9256C46.5662 36.9657 46.5633 37.0059 46.5576 37.0489C46.5518 37.0976 46.5432 37.1435 46.5404 37.1893C46.5232 37.3183 46.5088 37.4502 46.4945 37.5821C46.483 37.6824 46.4716 37.7799 46.4658 37.8859C46.4544 37.992 46.4486 38.0952 46.4372 38.2013C46.3598 39.2476 46.3684 40.3283 46.3999 40.4545Z" fill="#D3766A"/>
<path d="M50.1726 37.3871L49.7082 39.798C47.8907 39.2275 46.9476 37.9203 46.5405 37.1692L46.5692 36.9256C46.6695 36.0598 46.7555 35.3661 46.7555 35.3661L47.1855 35.5983L50.1726 37.3871Z" fill="#263238"/>
<path d="M53.5895 33.8639C53.6784 38.3474 51.0038 38.9064 50.0377 38.9265C49.1605 38.9437 46.1706 38.8892 45.6173 34.4373C45.0641 29.9882 47.1195 28.5291 49.1261 28.3829C51.1299 28.2395 53.5007 29.3805 53.5895 33.8639Z" fill="#D3766A"/>
<path d="M52.91 33.1788C52.804 33.1616 52.7122 33.1301 52.609 33.1043C52.4944 33.0756 52.3998 33.0613 52.3166 32.9696C52.2736 32.9208 52.2794 32.8234 52.3224 32.7746C52.4256 32.6628 52.5746 32.6657 52.7151 32.6972C52.867 32.7288 52.976 32.7947 53.0734 32.9151C53.1709 33.0326 53.0505 33.1989 52.91 33.1788Z" fill="#C7C7C7"/>
<path d="M49.8714 33.0728C49.9775 33.0642 50.0721 33.0384 50.1753 33.0183C50.2928 32.9954 50.3874 32.9925 50.4763 32.9037C50.525 32.8578 50.525 32.7603 50.482 32.7087C50.3874 32.5912 50.2384 32.5826 50.095 32.6027C49.9402 32.6256 49.8284 32.6801 49.7224 32.7947C49.6249 32.9094 49.7338 33.0843 49.8714 33.0728Z" fill="#C7C7C7"/>
<path d="M50.4909 33.9012C50.488 33.8897 50.4679 33.9155 50.4679 33.927C50.4737 34.2337 50.4307 34.5835 50.1526 34.6809C50.144 34.6838 50.144 34.6981 50.1555 34.6981C50.4909 34.6551 50.5453 34.1879 50.4909 33.9012Z" fill="#263238"/>
<path d="M50.2214 33.5773C49.7312 33.5343 49.6796 34.5176 50.1354 34.5577C50.5826 34.5978 50.6342 33.6146 50.2214 33.5773Z" fill="#263238"/>
<path d="M50.0262 33.6203C49.9374 33.6719 49.8485 33.7665 49.7453 33.7694C49.6249 33.7751 49.5389 33.6662 49.4672 33.5659C49.4586 33.5544 49.45 33.563 49.45 33.5773C49.4386 33.7665 49.5016 33.9643 49.7023 34.0016C49.8858 34.036 50.0262 33.8755 50.0836 33.6891C50.0893 33.6547 50.0635 33.6003 50.0262 33.6203Z" fill="#263238"/>
<path d="M52.2021 33.9471C52.205 33.9356 52.2251 33.9614 52.2251 33.9757C52.205 34.2796 52.2308 34.6322 52.5031 34.744C52.5117 34.7469 52.5089 34.7641 52.5003 34.7612C52.1649 34.701 52.1333 34.2337 52.2021 33.9471Z" fill="#263238"/>
<path d="M52.4867 33.6404C52.9797 33.6232 52.9797 34.6093 52.5239 34.6236C52.0767 34.6408 52.0739 33.6547 52.4867 33.6404Z" fill="#263238"/>
<path d="M52.6925 33.7063C52.7699 33.7579 52.8473 33.8525 52.9419 33.8582C53.0509 33.8639 53.1283 33.7579 53.1971 33.6575C53.2028 33.6461 53.2114 33.6547 53.2114 33.669C53.2171 33.8582 53.1541 34.0531 52.9735 34.0904C52.8072 34.1248 52.6868 33.9614 52.6409 33.7751C52.6352 33.7378 52.661 33.6833 52.6925 33.7063Z" fill="#263238"/>
<path d="M50.5911 36.4153C50.6656 36.4841 50.7402 36.5816 50.852 36.5873C50.958 36.5931 51.0813 36.5443 51.1788 36.5042C51.1874 36.5013 51.1988 36.5099 51.1931 36.5185C51.1157 36.6389 50.9523 36.7135 50.809 36.6934C50.6714 36.6733 50.5997 36.5558 50.5624 36.4297C50.5567 36.4125 50.5796 36.4067 50.5911 36.4153Z" fill="#263238"/>
<path d="M50.4763 35.5983C50.654 35.8506 50.9034 35.9853 51.17 36.0255C51.2904 36.0455 51.4137 36.0455 51.5369 36.0283C51.5599 36.0283 51.5857 36.0226 51.6057 36.0169C51.6287 36.014 51.6459 36.0111 51.6717 36.0054C51.7061 35.9997 51.7233 35.971 51.729 35.9366V35.9337C51.729 35.9223 51.729 35.9137 51.7261 35.9022C51.7261 35.9022 51.7261 35.9022 51.7261 35.8993L51.7233 35.8735C51.7204 35.6442 51.686 35.2945 51.686 35.2945C51.772 35.3346 52.2077 35.5095 52.1963 35.3919C52.1017 34.4001 51.9956 33.2964 51.6917 32.3303C51.6831 32.2988 51.6344 32.3074 51.6373 32.3389C51.6917 33.2964 51.9125 34.2367 51.9813 35.197C51.8437 35.1511 51.6172 35.0623 51.4968 35.068C51.4653 35.0795 51.5771 35.7417 51.5685 35.8449C51.5685 35.8449 51.5685 35.8506 51.5656 35.8563C51.1815 35.9194 50.8862 35.8133 50.5021 35.5668C50.482 35.5553 50.4591 35.5754 50.4763 35.5983Z" fill="#263238"/>
<g opacity="0.2">
<path d="M50.8377 32.0179C51.0297 32.0093 51.2218 32.0064 51.411 31.972C51.6031 31.9347 51.7837 31.8631 51.9757 31.8287C52.3398 31.7685 52.6953 31.8258 53.0708 31.8946C53.1023 31.9003 53.0995 31.9204 53.0679 31.9147C52.6838 31.8573 52.2968 31.8287 51.9184 31.9347C51.6002 32.0236 51.3135 32.0924 50.9839 32.0953C50.2529 32.0981 49.5391 32.1956 48.9313 32.6342C48.9285 32.6371 48.9227 32.6313 48.9256 32.6285C49.4731 32.2185 50.164 32.0523 50.8377 32.0179Z" fill="black"/>
<path d="M50.7495 31.5134C50.9301 31.5048 51.1135 31.5048 51.2941 31.4704C51.4747 31.436 51.6467 31.3672 51.8302 31.3357C52.1771 31.2783 52.5125 31.3328 52.8679 31.3987C52.8966 31.4045 52.8966 31.4245 52.8651 31.4188C52.501 31.3643 52.1341 31.3385 51.7757 31.436C51.4747 31.5191 51.2024 31.5879 50.8871 31.5879C50.1962 31.5908 49.5168 31.6854 48.9406 32.0982C48.9377 32.1011 48.932 32.0953 48.9349 32.0925C49.4566 31.7026 50.1102 31.5449 50.7495 31.5134Z" fill="black"/>
</g>
<path d="M45.8065 35.0021C46.5604 35.0279 46.6636 33.4483 46.6636 33.4483C46.6636 33.4483 48.1887 33.3881 48.5986 31.1722C48.5986 31.1722 48.6101 32.1956 48.0024 33.0155C48.0024 33.0155 50.6798 32.6141 51.7147 30.3179C51.7147 30.3179 51.3134 31.4847 50.9063 31.9089C50.9063 31.9089 52.0214 31.5449 52.5317 30.6075C52.5317 30.6075 53.0592 31.886 53.4347 32.23C53.4347 32.23 54.0023 26.0753 48.0855 28.317C48.0855 28.317 45.6144 28.4087 44.7286 30.6103C43.84 32.8062 45.8065 35.0021 45.8065 35.0021Z" fill="#C7C7C7"/>
<path d="M46.3369 34.767C46.3369 34.767 45.4539 33.305 44.7975 33.6118C44.141 33.9185 44.7401 35.9911 45.4654 36.3179C46.1907 36.6447 46.506 35.9796 46.506 35.9796L46.3369 34.767Z" fill="#D3766A"/>
<path d="M44.9809 34.2023C44.9695 34.1995 44.9666 34.2167 44.9752 34.2224C45.4826 34.4689 45.7263 34.9706 45.8839 35.4837C45.7406 35.2802 45.5371 35.1598 45.2676 35.3289C45.2533 35.3375 45.2647 35.3605 45.2791 35.3576C45.4969 35.3261 45.6489 35.3748 45.7807 35.5554C45.8753 35.6844 45.9356 35.8421 45.9986 35.9854C46.0187 36.0341 46.1047 36.0141 46.0903 35.9596C46.0903 35.9567 46.0875 35.951 46.0875 35.9481C46.1477 35.2802 45.6919 34.317 44.9809 34.2023Z" fill="#263238"/>
<path d="M45.9899 36.1459C45.9813 36.2692 45.8781 36.3609 45.7548 36.3523C45.6344 36.3437 45.5398 36.2405 45.5484 36.1172C45.557 35.9968 45.6602 35.9022 45.7835 35.9108C45.9039 35.9194 45.9985 36.0255 45.9899 36.1459Z" fill="white"/>
<path d="M55.6707 59.6066H75.9639L70.5143 44.634H50.2212L55.6707 59.6066Z" fill="#005151"/>
<path d="M62.6509 43.0831H69.9494L70.5141 44.634H62.7971L62.6509 43.0831Z" fill="#005151"/>
<g opacity="0.2">
<path d="M55.6707 59.6066H75.9639L70.5143 44.634H50.2212L55.6707 59.6066Z" fill="#005151"/>
<path d="M62.6509 43.0831H69.9494L70.5141 44.634H62.7971L62.6509 43.0831Z" fill="#005151"/>
</g>
<path d="M54.2002 49.9373L68.6195 58.0414L79.0227 39.5313L68.3185 33.5142L62.6225 34.9532L54.2002 49.9373Z" fill="#EBEBEB"/>
<path d="M68.3186 33.5142L62.6226 34.9532L66.3349 37.0402L68.3186 33.5142Z" fill="#DBDBDB"/>
<path d="M75.8719 41.8461L67.8555 37.34L67.5886 37.8148L75.605 42.3209L75.8719 41.8461Z" fill="#DBDBDB"/>
<path d="M75.1961 43.0435L67.1797 38.5374L66.9128 39.0121L74.9292 43.5183L75.1961 43.0435Z" fill="#DBDBDB"/>
<path d="M74.5218 44.2448L66.5054 39.7386L66.2385 40.2134L74.2549 44.7196L74.5218 44.2448Z" fill="#DBDBDB"/>
<path d="M73.8458 45.4441L62.1011 38.8422L61.8342 39.317L73.5789 45.9189L73.8458 45.4441Z" fill="#DBDBDB"/>
<path d="M73.1729 46.6429L61.4282 40.041L61.1613 40.5158L72.906 47.1177L73.1729 46.6429Z" fill="#DBDBDB"/>
<path d="M72.5001 47.8417L60.7554 41.2397L60.4885 41.7145L72.2332 48.3165L72.5001 47.8417Z" fill="#DBDBDB"/>
<path d="M71.8253 49.043L60.0806 42.441L59.8137 42.9158L71.5584 49.5178L71.8253 49.043Z" fill="#DBDBDB"/>
<path d="M71.1524 50.2418L59.4077 43.6399L59.1408 44.1147L70.8855 50.7166L71.1524 50.2418Z" fill="#DBDBDB"/>
<path d="M70.4752 51.4417L58.7305 44.8397L58.4636 45.3145L70.2083 51.9164L70.4752 51.4417Z" fill="#DBDBDB"/>
<path d="M69.8023 52.6404L58.0576 46.0385L57.7907 46.5132L69.5354 53.1152L69.8023 52.6404Z" fill="#DBDBDB"/>
<path d="M69.1275 53.8417L57.3828 47.2397L57.1159 47.7145L68.8606 54.3165L69.1275 53.8417Z" fill="#DBDBDB"/>
<path d="M68.4547 55.0404L56.71 48.4385L56.4431 48.9133L68.1878 55.5152L68.4547 55.0404Z" fill="#DBDBDB"/>
<path d="M55.5903 59.6066H75.8835L77.4773 45.8752H57.1842L55.5903 59.6066Z" fill="#008083"/>
<path opacity="0.1" d="M55.5903 59.6066H75.8835L77.4773 45.8752H57.1842L55.5903 59.6066Z" fill="#008083"/>
<path d="M70.3421 44.4534H77.6407L77.4773 45.8752H69.7573L70.3421 44.4534Z" fill="#008083"/>
<path opacity="0.1" d="M70.3421 44.4534H77.6407L77.4773 45.8752H69.7573L70.3421 44.4534Z" fill="#008083"/>
<path d="M42.7506 44.869C43.0602 47.2369 45.3364 56.3013 47.3459 58.5602C48.6531 60.0308 57.1614 62.0805 59.449 62.7714C60.4351 63.0695 62.8374 55.6506 61.7366 55.6362C60.9253 55.6248 52.096 53.1967 51.3306 52.8957C51.3306 52.8957 48.1056 47.6812 46.0444 44.2642C44.1008 41.0392 42.1744 40.4486 42.7506 44.869Z" fill="#D3766A"/>
<path d="M64.8956 57.4337C64.5029 57.1413 64.6548 56.9349 65.5206 56.912C66.3978 56.8862 69.8406 57.5283 69.9639 56.3042C70.0872 55.0773 65.1995 54.246 63.7576 54.3979C62.3156 54.5441 60.0366 55.298 60.0366 55.298C60.9568 55.6506 63.104 56.7199 64.8956 57.4337Z" fill="#D3766A"/>
<path d="M58.1963 62.3041C60.8193 63.2042 64.03 64.4828 67.0944 63.8578C67.6964 63.7346 67.9802 63.3619 67.9802 63.3619C69.3591 63.1068 69.6515 62.3786 69.6515 62.3786C70.8641 61.748 71.059 60.9596 71.059 60.9596C71.059 60.9596 72.6758 60.6414 72.6443 59.6324C72.6128 58.5 70.351 59.1708 68.8804 58.7781C65.5149 57.878 60.9798 55.6563 60.0367 55.298L58.1963 62.3041Z" fill="#D3766A"/>
<path d="M64.6925 60.3118C65.6872 60.5584 66.659 60.825 67.6853 60.9339C68.809 61.0543 69.9098 60.9798 71.0335 60.9339C71.0679 60.931 71.0737 60.9798 71.0393 60.9884C69.0183 61.3954 66.5931 61.1174 64.681 60.3577C64.6351 60.3376 64.6409 60.3004 64.6925 60.3118Z" fill="#263238"/>
<path d="M63.8526 62.264C64.8358 62.4503 66.5644 62.7628 69.649 62.3443C69.6604 62.3443 69.6633 62.3586 69.6547 62.3615C67.6882 62.9004 65.7933 62.8488 63.8468 62.3099C63.7838 62.2955 63.7866 62.2525 63.8526 62.264Z" fill="#263238"/>
<path d="M63.4224 63.3218C65.1052 63.5741 66.1974 63.5168 67.9747 63.3534C67.9862 63.3534 67.989 63.3706 67.9776 63.3706C65.9766 63.769 65.2084 63.6859 63.4052 63.3763C63.3422 63.3677 63.3565 63.3132 63.4224 63.3218Z" fill="#263238"/>
<path d="M49.2437 48.527L43.9691 52.8958C43.9691 52.8958 42.4039 45.5284 42.5558 43.2322C42.7249 40.6465 44.0092 41.3001 45.6489 43.1376C47.2858 44.9752 49.2437 48.527 49.2437 48.527Z" fill="#455A64"/>
<path d="M44.3186 46.3512C44.2985 46.1305 44.2612 45.9184 44.1523 45.7062C44.0806 45.9327 44.0778 46.1477 44.0892 46.3684C44.1122 46.5834 44.1494 46.7984 44.2555 47.0106C44.3272 46.7841 44.33 46.5662 44.3186 46.3512ZM44.7916 50.8748C44.5737 50.8978 44.3587 50.935 44.1494 51.0411C44.373 51.1128 44.5909 51.1156 44.8088 51.1042C45.0266 51.0841 45.2445 51.0468 45.4509 50.9379C45.2302 50.8662 45.0094 50.8634 44.7916 50.8748ZM48.9654 48.0368C48.8106 48.1343 48.6845 48.2604 48.567 48.3894C48.4294 48.5586 48.3032 48.7392 48.2258 48.9628C48.438 48.8538 48.5956 48.7019 48.7418 48.5414C48.845 48.4124 48.9454 48.2805 49.017 48.1257V48.1228C48.9998 48.0942 48.9826 48.0655 48.9654 48.0368ZM43.6076 41.5381C43.5216 41.6614 43.4442 41.7932 43.3955 41.948C43.5704 41.8563 43.708 41.7359 43.8312 41.604C43.7538 41.5725 43.6793 41.5496 43.6076 41.5381Z" fill="white"/>
<path d="M43.9348 51.3449C44.0925 51.1643 45.715 49.7768 46.0762 49.4844C46.4346 49.1892 47.8908 47.9737 48.2864 47.7014C48.3036 47.6899 48.3237 47.71 48.3094 47.7272C47.974 48.0683 46.5091 49.2981 46.1479 49.6048C45.7896 49.9116 44.1527 51.2503 43.952 51.3707C43.9377 51.3822 43.9234 51.3564 43.9348 51.3449Z" fill="#263238"/>
<path d="M48.8228 48.871C48.9718 48.7277 49.2126 48.5156 49.2126 48.5156C48.8371 47.8161 46.6097 44.4506 46.0851 43.6308C46.0765 43.6193 46.0966 43.605 46.1052 43.6193C46.432 44.0665 46.753 44.5108 47.0712 44.9609C47.0426 44.8978 47.011 44.8348 46.9824 44.7717C46.8763 44.5481 46.7731 44.3216 46.6584 44.1009C46.6498 44.0837 46.6756 44.0636 46.6871 44.0837C46.8218 44.2958 46.9508 44.5108 47.0569 44.7373C47.1314 44.8978 47.1945 45.0612 47.2547 45.2246C47.4353 45.4826 47.6188 45.7406 47.7936 46.0044C48.3297 46.8128 48.9174 47.6326 49.3904 48.4812C49.3904 48.4812 49.0636 48.7965 48.8457 48.914C48.8228 48.9226 48.8027 48.8911 48.8228 48.871Z" fill="#263238"/>
<path d="M44.4796 52.4744C44.3219 52.6321 44.1585 52.7812 43.998 52.9331L43.9464 52.9818L43.9235 52.9102C43.6569 52.0416 43.4505 51.1586 43.2928 50.2671C43.2125 49.8199 43.1437 49.3727 43.0921 48.9226C43.0348 48.4726 42.9975 48.0225 42.9746 47.5696C43.0721 48.0139 43.1552 48.4582 43.2412 48.8997L43.4963 50.2298L44.0095 52.8872L43.9349 52.8643C44.1184 52.7324 44.2961 52.5977 44.4796 52.4744Z" fill="#263238"/>
<path d="M43.224 49.2609C43.0778 49.1348 42.986 48.9656 42.9144 48.7965C42.8828 48.7076 42.8542 48.6216 42.837 48.527C42.8198 48.4353 42.8083 48.3436 42.8169 48.2461C42.9144 48.4095 42.9803 48.5758 43.0491 48.742C43.115 48.9112 43.1752 49.0774 43.224 49.2609Z" fill="#263238"/>
<path d="M49.6798 40.0129L49.0118 42.0912L46.3172 39.7119L45.6636 40.5834C45.6636 40.5834 48.4098 44.4734 48.4127 44.2871L49.1208 42.4868L50.4108 43.6134L50.0983 40.5776L49.6798 40.0129Z" fill="#455A64"/>
<path d="M50.3417 42.1055C50.2729 41.6067 50.2185 41.1022 50.1267 40.6063C50.1239 40.5891 50.0952 40.5833 50.0923 40.6034C50.0264 41.0965 50.2987 43.0057 50.3303 43.4643C50.3274 43.4615 50.3274 43.4615 50.3245 43.4586C50.2701 43.4099 49.1349 42.4696 49.1234 42.4868C48.9629 42.7763 48.4411 44.0893 48.4067 44.2068C47.971 43.5876 46.1421 41.1624 45.6404 40.5833C45.6261 40.5661 45.6003 40.5833 45.6117 40.6034C46.0045 41.2599 48.3723 44.4677 48.401 44.4562C48.4239 44.4705 49.0718 42.8537 49.1406 42.5527C49.3355 42.762 50.4908 43.8284 50.4908 43.7539C50.4793 43.2493 50.4077 42.6043 50.3417 42.1055Z" fill="#263238"/>
</svg>
