<svg width="13" height="13" viewBox="0 0 13 13" fill="none" xmlns="http://www.w3.org/2000/svg">
<rect width="13" height="13" fill="#E4E4E4"/>
<g id="Circular">
<g clip-path="url(#clip0_0_1)">
<rect x="-115" y="-170" width="375" height="812" rx="35" fill="#F3F5F8"/>
<g id="03_dashboard">
<g clip-path="url(#clip1_0_1)">
<rect x="-115" y="-170" width="375" height="812" rx="35" fill="white"/>
<g id="background">
<g id="blue_bg">
<rect id="blue_bg_2" x="-115" y="-170" width="375" height="813" fill="url(#paint0_linear_0_1)"/>
</g>
<g id="star_pattern">
<g id="Group_8034">
</g>
<g id="Group_8035">
</g>
</g>
</g>
<path id="curve_bg" fill-rule="evenodd" clip-rule="evenodd" d="M-86 -65H231C247.016 -65 260 -56.3115 260 -45.5936V643H-115V-45.5936C-115 -56.3115 -102.016 -65 -86 -65Z" fill="white"/>
<g id="Events">
<g id="li">
<g id="card_bg">
<path id="Rectangle" fill-rule="evenodd" clip-rule="evenodd" d="M-90 -14V-29C-90 -33.1421 -88.6075 -36.6777 -85.8225 -39.6066C-83.0376 -42.5355 -79.6758 -44 -75.7372 -44H221.737C225.676 -44 229.038 -42.5355 231.823 -39.6066C234.607 -36.6777 236 -33.1421 236 -29V71C236 75.1421 234.607 78.6777 231.823 81.6066C229.038 84.5355 225.676 86 221.737 86H-75.7372C-79.6758 86 -83.0376 84.5355 -85.8225 81.6066C-88.6075 78.6777 -90 75.1421 -90 71V-14Z" fill="white"/>
<path id="Rectangle_2" fill-rule="evenodd" clip-rule="evenodd" d="M-89.5244 -14.5V-29C-89.5244 -33.0041 -88.1783 -36.4217 -85.4862 -39.253C-82.7941 -42.0843 -79.5443 -43.5 -75.7371 -43.5H221.737C225.545 -43.5 228.794 -42.0843 231.486 -39.253C234.179 -36.4217 235.525 -33.0041 235.525 -29V71C235.525 75.004 234.179 78.4217 231.486 81.253C228.794 84.0843 225.545 85.5 221.737 85.5H-75.7371C-79.5443 85.5 -82.7941 84.0843 -85.4862 81.253C-88.1783 78.4217 -89.5244 75.004 -89.5244 71V-14.5Z" stroke="#E1E3E8"/>
</g>
<path id="ic_time" fill-rule="evenodd" clip-rule="evenodd" d="M6.51184 0.12793C3.20346 0.12793 0.521484 2.94853 0.521484 6.42793C0.521484 9.90732 3.20346 12.7279 6.51184 12.7279C9.82022 12.7279 12.5022 9.90732 12.5022 6.42793C12.5022 2.94853 9.82022 0.12793 6.51184 0.12793ZM6.51163 11.4999C3.84587 11.5005 1.68426 9.22849 1.68321 6.42493C1.68259 5.07956 2.19086 3.78763 3.09615 2.83499C4.00145 1.88234 5.22957 1.34705 6.51022 1.34692C7.79112 1.34627 9.01976 1.88101 9.92562 2.83342C10.8315 3.78583 11.3403 5.07782 11.3401 6.42493C11.3387 9.22896 9.17694 11.5007 6.51117 11.4999H6.51163ZM8.00366 8.85191C8.0662 8.90067 8.14468 8.92111 8.22164 8.90872C8.2986 8.89632 8.36766 8.85211 8.41347 8.7859L8.86702 8.12791C8.9139 8.0625 8.93329 7.97978 8.92072 7.89896C8.90815 7.81812 8.8647 7.74622 8.80047 7.69991L7.18402 6.46591V2.86591C7.18099 2.70157 7.05503 2.56911 6.89876 2.56592H6.12573C5.96946 2.56911 5.84351 2.70157 5.84047 2.86591V7.03491C5.84061 7.13188 5.88433 7.2231 5.95837 7.2809L8.00366 8.85191Z" fill="#008083"/>
</g>
</g>
</g>
</g>
</g>
</g>
<defs>
<linearGradient id="paint0_linear_0_1" x1="469.062" y1="222.272" x2="-164.594" y2="-57.7916" gradientUnits="userSpaceOnUse">
<stop offset="0.234364" stop-color="#008083"/>
<stop offset="1" stop-color="#47B4B6"/>
</linearGradient>
<clipPath id="clip0_0_1">
<rect x="-115" y="-170" width="375" height="812" rx="35" fill="white"/>
</clipPath>
<clipPath id="clip1_0_1">
<rect x="-115" y="-170" width="375" height="812" rx="35" fill="white"/>
</clipPath>
</defs>
</svg>
