<svg width="68" height="68" viewBox="0 0 68 68" fill="none" xmlns="http://www.w3.org/2000/svg">
<g clip-path="url(#clip0_223_6473)">
<path d="M39.3862 23.3332C38.5119 23.3353 37.6621 23.623 36.9663 24.1525C36.2704 24.682 35.7667 25.4243 35.5316 26.2665L30.1329 45.6905C30.0038 46.1588 29.7259 46.5723 29.341 46.8687C28.9561 47.165 28.4853 47.3281 27.9996 47.3332C27.5245 47.3269 27.0627 47.1755 26.6762 46.8993C26.2896 46.623 25.9968 46.2352 25.8369 45.7878L22.1129 35.5478C21.8702 34.8501 21.4635 34.2209 20.9271 33.713C20.3907 33.2051 19.7402 32.8334 19.0302 32.6292C18.6865 32.5459 18.39 32.3295 18.2058 32.0275C18.0216 31.7256 17.965 31.3629 18.0482 31.0192C18.1315 30.6754 18.3479 30.3789 18.6499 30.1947C18.9518 30.0106 19.3145 29.9539 19.6582 30.0372C20.7971 30.3424 21.8442 30.9209 22.7088 31.7225C23.5734 32.5241 24.2293 33.5246 24.6196 34.6372L27.9182 43.7038L32.9636 25.5492C33.3564 24.147 34.1963 22.9113 35.3556 22.0301C36.5148 21.1488 37.93 20.67 39.3862 20.6665H48.6662C49.0199 20.6665 49.359 20.807 49.6091 21.057C49.8591 21.3071 49.9996 21.6462 49.9996 21.9998C49.9996 22.3535 49.8591 22.6926 49.6091 22.9426C49.359 23.1927 49.0199 23.3332 48.6662 23.3332H39.3862ZM49.4662 34.2665C49.1833 34.0543 48.8277 33.9632 48.4777 34.0132C48.1276 34.0632 47.8117 34.2503 47.5996 34.5332L44.6662 38.4438L41.7329 34.5332C41.5207 34.2503 41.2049 34.0632 40.8548 34.0132C40.5047 33.9632 40.1491 34.0543 39.8662 34.2665C39.5833 34.4787 39.3963 34.7945 39.3463 35.1446C39.2963 35.4947 39.3874 35.8503 39.5996 36.1332L42.9996 40.6665L39.5996 45.1998C39.3874 45.4827 39.2963 45.8383 39.3463 46.1884C39.3963 46.5385 39.5833 46.8543 39.8662 47.0665C40.1491 47.2787 40.5047 47.3698 40.8548 47.3198C41.2049 47.2698 41.5207 47.0827 41.7329 46.7998L44.6662 42.8892L47.5996 46.7998C47.7046 46.9399 47.8363 47.0579 47.9869 47.1471C48.1376 47.2363 48.3043 47.295 48.4777 47.3198C48.651 47.3445 48.8275 47.3349 48.9971 47.2915C49.1668 47.248 49.3262 47.1716 49.4662 47.0665C49.6063 46.9614 49.7243 46.8298 49.8135 46.6792C49.9027 46.5285 49.9614 46.3617 49.9862 46.1884C50.0109 46.0151 50.0013 45.8385 49.9579 45.6689C49.9144 45.4993 49.838 45.3399 49.7329 45.1998L46.3329 40.6665L49.7329 36.1332C49.838 35.9931 49.9144 35.8337 49.9579 35.6641C50.0013 35.4945 50.0109 35.3179 49.9862 35.1446C49.9614 34.9713 49.9027 34.8045 49.8135 34.6538C49.7243 34.5032 49.6063 34.3716 49.4662 34.2665Z" fill="#86242E"/>
</g>
<rect opacity="0.15" width="68" height="68" rx="25" fill="#86242E"/>
<defs>
<clipPath id="clip0_223_6473">
<rect width="32" height="32" fill="white" transform="translate(18 18)"/>
</clipPath>
</defs>
</svg>
