<svg width="18" height="18" viewBox="0 0 18 18" fill="none" xmlns="http://www.w3.org/2000/svg">
<path d="M13.4996 11.6252C13.3007 11.6251 13.1099 11.5461 12.9693 11.4054L9.52982 7.96593C9.38722 7.82906 9.19723 7.75263 8.99957 7.75263C8.80192 7.75263 8.61192 7.82906 8.46932 7.96593L5.02982 11.4054C4.88837 11.542 4.69892 11.6176 4.50227 11.6159C4.30562 11.6142 4.11752 11.5353 3.97846 11.3963C3.8394 11.2572 3.76053 11.0691 3.75882 10.8725C3.75711 10.6758 3.8327 10.4864 3.96932 10.3449L7.40882 6.90543C7.83754 6.49632 8.40736 6.26807 8.99995 6.26807C9.59254 6.26807 10.1624 6.49632 10.5911 6.90543L14.0298 10.3449C14.1347 10.4498 14.2061 10.5834 14.235 10.7289C14.2639 10.8744 14.2491 11.0251 14.1923 11.1622C14.1356 11.2992 14.0395 11.4163 13.9162 11.4987C13.7929 11.5811 13.6479 11.6251 13.4996 11.6252Z" fill="#64748B"/>
</svg>
