<svg width="18" height="18" viewBox="0 0 18 18" fill="none" xmlns="http://www.w3.org/2000/svg">
<path d="M6.37482 13.5C6.37487 13.3011 6.45391 13.1104 6.59457 12.9697L10.0341 9.53025C10.1709 9.38765 10.2474 9.19765 10.2474 9C10.2474 8.80235 10.1709 8.61235 10.0341 8.46975L6.59457 5.03025C6.45796 4.8888 6.38236 4.69935 6.38407 4.5027C6.38578 4.30605 6.46465 4.11794 6.60371 3.97889C6.74277 3.83983 6.93088 3.76095 7.12752 3.75924C7.32417 3.75754 7.51362 3.83313 7.65507 3.96975L11.0946 7.40925C11.5037 7.83796 11.7319 8.40778 11.7319 9.00037C11.7319 9.59297 11.5037 10.1628 11.0946 10.5915L7.65507 14.0303C7.55019 14.1351 7.41656 14.2065 7.2711 14.2354C7.12563 14.2644 6.97486 14.2495 6.83783 14.1928C6.70081 14.136 6.58369 14.0399 6.50127 13.9166C6.41886 13.7933 6.37486 13.6483 6.37482 13.5Z" fill="black"/>
</svg>
