<svg width="14" height="14" viewBox="0 0 14 14" fill="none" xmlns="http://www.w3.org/2000/svg">
<path d="M9.35666 2.33329C8.97412 2.33421 8.60235 2.46007 8.29793 2.69174C7.9935 2.9234 7.7731 3.24817 7.67025 3.61663L5.30833 12.1146C5.25186 12.3195 5.13025 12.5004 4.96187 12.6301C4.79349 12.7597 4.58749 12.8311 4.375 12.8333C4.16716 12.8305 3.96513 12.7643 3.79601 12.6435C3.62689 12.5226 3.49877 12.3529 3.42883 12.1572L1.79958 7.67721C1.6934 7.37196 1.51548 7.09666 1.2808 6.87446C1.04611 6.65226 0.761507 6.48965 0.450914 6.40029C0.300536 6.36386 0.170791 6.26918 0.0902209 6.13708C0.00965059 6.00499 -0.0151449 5.84629 0.0212892 5.69592C0.0577234 5.54554 0.152403 5.41579 0.284498 5.33522C0.416594 5.25465 0.575286 5.22986 0.725664 5.26629C1.2239 5.39982 1.68203 5.65292 2.06029 6.00362C2.43854 6.35433 2.7255 6.79205 2.89625 7.27879L4.33941 11.2455L6.54675 3.30279C6.71863 2.68933 7.08607 2.14874 7.59324 1.76318C8.10041 1.37762 8.71958 1.16816 9.35666 1.16663H13.4167C13.5714 1.16663 13.7197 1.22808 13.8291 1.33748C13.9385 1.44688 14 1.59525 14 1.74996C14 1.90467 13.9385 2.05304 13.8291 2.16244C13.7197 2.27183 13.5714 2.33329 13.4167 2.33329H9.35666ZM13.7667 7.11663C13.6429 7.0238 13.4873 6.98394 13.3342 7.00582C13.181 7.0277 13.0428 7.10952 12.95 7.23329L11.6667 8.94421L10.3833 7.23329C10.2905 7.10952 10.1523 7.0277 9.99916 7.00582C9.846 6.98394 9.69043 7.0238 9.56666 7.11663C9.44289 7.20945 9.36107 7.34764 9.33919 7.5008C9.31731 7.65395 9.35717 7.80953 9.45 7.93329L10.9375 9.91663L9.45 11.9C9.35717 12.0237 9.31731 12.1793 9.33919 12.3325C9.36107 12.4856 9.44289 12.6238 9.56666 12.7166C9.69043 12.8095 9.846 12.8493 9.99916 12.8274C10.1523 12.8056 10.2905 12.7237 10.3833 12.6L11.6667 10.889L12.95 12.6C12.996 12.6612 13.0535 12.7129 13.1195 12.7519C13.1854 12.7909 13.2583 12.8166 13.3342 12.8274C13.41 12.8383 13.4872 12.8341 13.5614 12.815C13.6356 12.796 13.7054 12.7626 13.7667 12.7166C13.8279 12.6707 13.8796 12.6131 13.9186 12.5472C13.9576 12.4812 13.9833 12.4083 13.9941 12.3325C14.005 12.2566 14.0008 12.1794 13.9817 12.1052C13.9627 12.031 13.9293 11.9612 13.8833 11.9L12.3958 9.91663L13.8833 7.93329C13.9293 7.87201 13.9627 7.80227 13.9817 7.72807C14.0008 7.65386 14.005 7.57663 13.9941 7.5008C13.9833 7.42496 13.9576 7.352 13.9186 7.28609C13.8796 7.22017 13.8279 7.16259 13.7667 7.11663Z" fill="white"/>
</svg>
