<svg width="18" height="22" viewBox="0 0 18 22" fill="none" xmlns="http://www.w3.org/2000/svg">
<rect x="0.5" y="0.5" width="16.6" height="21" rx="1.5" stroke="#95969D"/>
<g clip-path="url(#clip0_252_2336)">
<path fill-rule="evenodd" clip-rule="evenodd" d="M9.81502 5.7115C9.81502 6.02567 9.69021 6.32699 9.46805 6.54914C9.2459 6.7713 8.94458 6.89611 8.63041 6.89611C8.31623 6.89611 8.01492 6.7713 7.79276 6.54914C7.5706 6.32699 7.4458 6.02567 7.4458 5.7115C7.4458 5.39732 7.5706 5.09601 7.79276 4.87385C8.01492 4.65169 8.31623 4.52689 8.63041 4.52689C8.94458 4.52689 9.2459 4.65169 9.46805 4.87385C9.69021 5.09601 9.81502 5.39732 9.81502 5.7115ZM9.22271 5.7115C9.22271 5.86859 9.16031 6.01924 9.04923 6.13032C8.93815 6.2414 8.7875 6.3038 8.63041 6.3038C8.47332 6.3038 8.32266 6.2414 8.21158 6.13032C8.1005 6.01924 8.0381 5.86859 8.0381 5.7115C8.0381 5.55441 8.1005 5.40375 8.21158 5.29267C8.32266 5.18159 8.47332 5.11919 8.63041 5.11919C8.7875 5.11919 8.93815 5.18159 9.04923 5.29267C9.16031 5.40375 9.22271 5.55441 9.22271 5.7115Z" fill="#95969D"/>
<path d="M6.53075 8.15815C6.77791 7.84954 7.08975 7.59849 7.4446 7.42288C7.81929 7.23744 8.23179 7.14114 8.64987 7.1415L8.64982 7.19227L8.64977 7.1415C9.06244 7.14111 9.46975 7.23492 9.84067 7.41577C10.1917 7.58692 10.5013 7.83174 10.7486 8.13324C10.979 7.81501 11.1348 7.44871 11.2042 7.06148C11.2774 6.65283 11.2523 6.23263 11.1309 5.83563C11.0094 5.43863 10.7952 5.07625 10.506 4.77847C10.2167 4.4807 9.86067 4.25608 9.46736 4.12322C9.07404 3.99035 8.65474 3.95305 8.24415 4.01441C7.83356 4.07577 7.44348 4.23401 7.10619 4.47606C6.7689 4.7181 6.49409 5.03698 6.30451 5.40632C6.11493 5.77565 6.01602 6.18482 6.01597 6.59996L6.53075 8.15815ZM6.53075 8.15815C6.20742 7.72291 6.01597 7.18379 6.01597 6.59997L6.53075 8.15815ZM8.63064 9.21457L8.6305 9.21457C8.04624 9.21545 7.47916 9.01981 7.02011 8.65988C7.20301 8.41075 7.44079 8.20673 7.71528 8.06377C8.00384 7.91348 8.32443 7.83511 8.64979 7.83535H8.64986C8.97115 7.83509 9.28787 7.91149 9.57371 8.0582C9.84544 8.19767 10.0818 8.39685 10.2652 8.64057C9.80222 9.01255 9.22551 9.2154 8.63064 9.21457ZM8.64982 7.78458C8.97919 7.78431 9.30387 7.86263 9.5969 8.01303C9.88992 8.16344 10.1428 8.38158 10.3346 8.64934C9.85644 9.04817 9.25326 9.26621 8.63057 9.26534L8.64982 7.78458ZM8.63057 3.29152C6.8034 3.29152 5.32212 4.7728 5.32212 6.59996C5.32212 8.42713 6.8034 9.90841 8.63057 9.90841C10.4577 9.90841 11.939 8.42713 11.939 6.59996C11.939 4.7728 10.4577 3.29152 8.63057 3.29152Z" fill="#95969D" stroke="#95969D" stroke-width="0.1"/>
</g>
<rect x="4.39965" y="13.1154" width="8.8" height="1.1" rx="0.541669" fill="#95969D"/>
<rect x="4.39965" y="15.9246" width="8.8" height="1.1" rx="0.541669" fill="#95969D"/>
<defs>
<clipPath id="clip0_252_2336">
<rect width="7" height="7" fill="white" transform="translate(5.0769 3.04614) scale(1.01538)"/>
</clipPath>
</defs>
</svg>
