<svg width="17" height="20" viewBox="0 0 17 20" fill="none" xmlns="http://www.w3.org/2000/svg">
<path d="M12.1405 8.96952L12.1406 8.96961C12.1997 9.02327 12.2464 9.08675 12.2781 9.15629C12.3099 9.2258 12.3261 9.30013 12.3261 9.37507C12.3261 9.45 12.3099 9.52433 12.2781 9.59385C12.2464 9.66338 12.1997 9.72687 12.1406 9.78053L12.1405 9.78057L8.0155 13.5306L8.01546 13.5306C7.95642 13.5844 7.88604 13.6273 7.80823 13.6567C7.73042 13.686 7.64687 13.7012 7.56239 13.7012C7.4779 13.7012 7.39435 13.686 7.31654 13.6567C7.23873 13.6273 7.16835 13.5844 7.10932 13.5306L7.10927 13.5306L5.04677 11.6556C4.98768 11.6019 4.9411 11.5384 4.90941 11.4688C4.87774 11.3993 4.86152 11.325 4.86152 11.2501C4.86152 11.1752 4.87774 11.1008 4.90941 11.0313C4.9411 10.9618 4.98768 10.8983 5.04677 10.8446C5.1662 10.736 5.32912 10.6743 5.49989 10.6743C5.58434 10.6743 5.66788 10.6894 5.74569 10.7187C5.8235 10.748 5.89391 10.7908 5.953 10.8446L7.52874 12.2783L7.56238 12.3089L7.59603 12.2783L11.2343 8.96956L11.2343 8.96952C11.2933 8.91572 11.3637 8.87281 11.4415 8.84346C11.5193 8.8141 11.6029 8.79895 11.6874 8.79895C11.7719 8.79895 11.8554 8.8141 11.9332 8.84346C12.011 8.87281 12.0814 8.91572 12.1405 8.96952Z" fill="#95969D" stroke="white" stroke-width="0.1"/>
<path d="M2.35714 1.71665H3.48572V2.88102H2.35714C2.03013 2.88102 1.71728 3.02042 1.48719 3.26725C1.25722 3.51397 1.12857 3.84789 1.12857 4.19539V17.4713C1.12857 17.8188 1.25722 18.1527 1.48719 18.3994C1.71728 18.6462 2.03013 18.7856 2.35714 18.7856H14.1429C14.4699 18.7856 14.7827 18.6462 15.0128 18.3994C15.2428 18.1527 15.3714 17.8188 15.3714 17.4713V4.19539C15.3714 3.84789 15.2428 3.51397 15.0128 3.26725C14.7827 3.02042 14.4699 2.88102 14.1429 2.88102H13.0143V1.71665H14.1429C14.7536 1.71665 15.3401 1.97689 15.773 2.4414C16.2061 2.90602 16.45 3.5369 16.45 4.19539V17.4713C16.45 18.1298 16.2061 18.7606 15.773 19.2253C15.3401 19.6898 14.7536 19.95 14.1429 19.95H2.35714C1.74643 19.95 1.15995 19.6898 0.726966 19.2253C0.293867 18.7606 0.0499999 18.1298 0.0499999 17.4713V4.19539C0.0499999 3.5369 0.293867 2.90602 0.726966 2.4414C1.15995 1.97689 1.74643 1.71665 2.35714 1.71665Z" fill="#95969D" stroke="white" stroke-width="0.1"/>
<path d="M10.8323 1.39606C10.6937 1.27007 10.5066 1.2 10.3125 1.2H6.18749C5.99335 1.2 5.80632 1.27007 5.66772 1.39606C5.52897 1.5222 5.44999 1.69436 5.44999 1.875V3.125C5.44999 3.30564 5.52897 3.4778 5.66772 3.60394C5.80632 3.72993 5.99335 3.8 6.18749 3.8H10.3125C10.5066 3.8 10.6937 3.72993 10.8323 3.60394C10.971 3.4778 11.05 3.30564 11.05 3.125V1.875C11.05 1.69436 10.971 1.5222 10.8323 1.39606ZM4.76272 0.586172C5.13985 0.243325 5.65229 0.0499999 6.18749 0.0499999H10.3125C10.8477 0.0499999 11.3601 0.243325 11.7373 0.586172C12.1142 0.928875 12.325 1.3926 12.325 1.875V3.125C12.325 3.6074 12.1142 4.07113 11.7373 4.41383C11.3601 4.75668 10.8477 4.95 10.3125 4.95H6.18749C5.65229 4.95 5.13985 4.75668 4.76272 4.41383C4.38575 4.07113 4.17499 3.6074 4.17499 3.125V1.875C4.17499 1.3926 4.38575 0.928875 4.76272 0.586172Z" fill="#95969D" stroke="white" stroke-width="0.1"/>
</svg>
