<svg width="20" height="20" viewBox="0 0 20 20" fill="none" xmlns="http://www.w3.org/2000/svg">
<g clip-path="url(#clip0_204_373)">
<path d="M20 7.06661V16.6666C20 16.8876 19.9122 17.0996 19.7559 17.2559C19.5996 17.4121 19.3877 17.4999 19.1667 17.4999C18.9456 17.4999 18.7337 17.4121 18.5774 17.2559C18.4211 17.0996 18.3333 16.8876 18.3333 16.6666V9.79328L12.1667 12.7399C11.5164 13.1237 10.7742 13.3236 10.0192 13.3183C9.22736 13.3195 8.44995 13.1067 7.76915 12.7024L1.61915 9.77495C1.13572 9.51498 0.730662 9.13039 0.446005 8.66108C0.161347 8.19176 0.00746377 7.65482 0.000321506 7.10597C-0.00682076 6.55713 0.133038 6.01636 0.405387 5.5398C0.677735 5.06324 1.07265 4.66823 1.54915 4.39578C1.57165 4.38245 1.59582 4.36995 1.61915 4.35828L7.83332 1.39328C8.50421 1.008 9.26562 0.808387 10.0392 0.814977C10.8129 0.821568 11.5708 1.03412 12.235 1.43078L18.3808 4.35828C18.8658 4.6266 19.271 5.01852 19.5554 5.49422C19.8398 5.96992 19.9932 6.51243 20 7.06661ZM10.0183 14.9833C8.95214 14.9856 7.90426 14.7062 6.98082 14.1733L3.33332 12.4324V14.6824C3.33382 15.572 3.61862 16.4382 4.14618 17.1545C4.67373 17.8708 5.41641 18.3997 6.26582 18.6641C7.47943 19.0126 8.73744 19.1819 9.99999 19.1666C11.2627 19.1808 12.5207 19.0104 13.7342 18.6608C14.5836 18.3964 15.3262 17.8675 15.8538 17.1512C16.3813 16.4349 16.6662 15.5687 16.6667 14.6791V12.4366L12.9508 14.2116C12.0589 14.7241 11.047 14.9909 10.0183 14.9849V14.9833Z" fill="white"/>
</g>
<defs>
<clipPath id="clip0_204_373">
<rect width="20" height="20" fill="white"/>
</clipPath>
</defs>
</svg>
