<svg width="24" height="24" viewBox="0 0 24 24" fill="none" xmlns="http://www.w3.org/2000/svg">
<g clip-path="url(#clip0_204_416)">
<path d="M22.555 13.6621L20.655 6.82606C20.0981 4.82339 18.8877 3.06434 17.2163 1.82853C15.5449 0.592709 13.5084 -0.0489569 11.4305 0.00552316C9.35252 0.0600033 7.35241 0.807503 5.74806 2.1292C4.14371 3.45091 3.0272 5.27096 2.576 7.30006L1.105 13.9151C0.942512 14.646 0.946269 15.4041 1.11599 16.1334C1.28571 16.8627 1.61706 17.5445 2.08558 18.1286C2.5541 18.7127 3.14782 19.1841 3.82291 19.508C4.498 19.8319 5.23722 20.0001 5.986 20.0001H7.1C7.32951 21.1303 7.94273 22.1465 8.83574 22.8764C9.72875 23.6063 10.8466 24.0051 12 24.0051C13.1534 24.0051 14.2712 23.6063 15.1643 22.8764C16.0573 22.1465 16.6705 21.1303 16.9 20.0001H17.738C18.5088 20.0001 19.2692 19.8219 19.9598 19.4795C20.6503 19.137 21.2523 18.6396 21.7188 18.0259C22.1853 17.4123 22.5036 16.6991 22.6488 15.9421C22.794 15.1851 22.7623 14.4048 22.556 13.6621H22.555ZM12 22.0001C11.3817 21.9975 10.7794 21.804 10.2753 21.446C9.77123 21.088 9.39008 20.583 9.184 20.0001H14.816C14.6099 20.583 14.2288 21.088 13.7247 21.446C13.2206 21.804 12.6183 21.9975 12 22.0001ZM20.126 16.8151C19.8473 17.1847 19.4863 17.4843 19.0716 17.69C18.6569 17.8957 18.1999 18.0019 17.737 18.0001H5.986C5.53678 18 5.09332 17.899 4.68834 17.7046C4.28336 17.5102 3.9272 17.2274 3.64616 16.877C3.36511 16.5265 3.16636 16.1174 3.06456 15.6799C2.96276 15.2424 2.96052 14.7876 3.058 14.3491L4.528 7.73306C4.88235 6.13926 5.7593 4.70966 7.01945 3.67151C8.2796 2.63335 9.85062 2.04623 11.4828 2.00347C13.1149 1.96071 14.7145 2.46477 16.0273 3.43553C17.3401 4.40628 18.2907 5.788 18.728 7.36106L20.628 14.1971C20.7535 14.6424 20.7735 15.1109 20.6864 15.5654C20.5993 16.0198 20.4074 16.4477 20.126 16.8151Z" fill="#64748B"/>
</g>
<defs>
<clipPath id="clip0_204_416">
<rect width="24" height="24" fill="white"/>
</clipPath>
</defs>
</svg>
