<svg width="20" height="20" viewBox="0 0 20 20" fill="none" xmlns="http://www.w3.org/2000/svg">
<g clip-path="url(#clip0_212_1690)">
<path d="M15.4845 1.78335L10.2637 0.0425176C10.0927 -0.0144167 9.90793 -0.0144167 9.73699 0.0425176L4.51616 1.78335C3.68608 2.05909 2.96401 2.5894 2.45253 3.29894C1.94105 4.00849 1.66619 4.86117 1.66699 5.73585V10C1.66699 16.3025 9.33366 19.7834 9.66199 19.9284C9.76851 19.9757 9.88377 20.0001 10.0003 20.0001C10.1169 20.0001 10.2321 19.9757 10.3387 19.9284C10.667 19.7834 18.3337 16.3025 18.3337 10V5.73585C18.3345 4.86117 18.0596 4.00849 17.5481 3.29894C17.0366 2.5894 16.3146 2.05909 15.4845 1.78335ZM16.667 10C16.667 14.5459 11.4012 17.5275 10.0003 18.2409C8.59783 17.53 3.33366 14.5575 3.33366 10V5.73585C3.33371 5.21108 3.49889 4.69963 3.8058 4.27397C4.11271 3.84831 4.54578 3.53001 5.04366 3.36418L10.0003 1.71168L14.957 3.36418C15.4549 3.53001 15.8879 3.84831 16.1949 4.27397C16.5018 4.69963 16.6669 5.21108 16.667 5.73585V10Z" fill="#008083"/>
<path d="M12.7497 6.91667L9.25967 10.4167L7.38967 8.46667C7.31462 8.38462 7.22391 8.31841 7.12288 8.27196C7.02185 8.2255 6.91255 8.19974 6.80141 8.19618C6.69027 8.19262 6.57954 8.21134 6.47575 8.25123C6.37196 8.29113 6.2772 8.35139 6.19706 8.42848C6.11692 8.50556 6.05301 8.5979 6.00911 8.70007C5.96521 8.80223 5.94219 8.91215 5.94143 9.02334C5.94066 9.13453 5.96215 9.24476 6.00464 9.34751C6.04713 9.45027 6.10976 9.54349 6.18883 9.62167L8.1105 11.6217C8.25381 11.7765 8.42703 11.9006 8.61968 11.9865C8.81233 12.0725 9.02041 12.1184 9.23133 12.1217H9.25883C9.46555 12.1224 9.67033 12.082 9.86131 12.0029C10.0523 11.9237 10.2257 11.8075 10.3713 11.6608L13.9313 8.10083C14.0091 8.02325 14.0708 7.9311 14.1129 7.82966C14.1551 7.72822 14.1768 7.61948 14.1769 7.50964C14.1771 7.39979 14.1555 7.291 14.1136 7.18947C14.0717 7.08795 14.0102 6.99567 13.9326 6.91792C13.855 6.84016 13.7629 6.77845 13.6614 6.73631C13.56 6.69417 13.4512 6.67242 13.3414 6.6723C13.2315 6.67219 13.1227 6.69371 13.0212 6.73564C12.9197 6.77756 12.8274 6.83908 12.7497 6.91667Z" fill="#008083"/>
</g>
<defs>
<clipPath id="clip0_212_1690">
<rect width="20" height="20" fill="white"/>
</clipPath>
</defs>
</svg>
