<svg width="334" height="63" viewBox="0 0 334 63" fill="none" xmlns="http://www.w3.org/2000/svg">
<circle cx="296.935" cy="11.2917" r="5.6198" fill="white" fill-opacity="0.2"/>
<path fill-rule="evenodd" clip-rule="evenodd" d="M296.937 17.8772C296.685 17.8774 296.443 17.7775 296.264 17.5994C296.086 17.4213 295.986 17.1796 295.986 16.9275V5.65586C295.986 5.40383 296.086 5.16214 296.264 4.984C296.443 4.80588 296.685 4.70595 296.937 4.70621C297.461 4.70621 297.886 5.13139 297.886 5.65586V16.9275C297.886 17.452 297.461 17.8772 296.937 17.8772Z" fill="white" fill-opacity="0.298039"/>
<path fill-rule="evenodd" clip-rule="evenodd" d="M303.521 11.2917C303.521 11.5437 303.421 11.7855 303.243 11.9638C303.065 12.1421 302.823 12.2423 302.571 12.2423L291.3 12.2423C291.048 12.2423 290.806 12.1421 290.628 11.9638C290.45 11.7855 290.35 11.5437 290.35 11.2917C290.35 10.7672 290.775 10.342 291.3 10.342H302.571C303.096 10.342 303.521 10.7672 303.521 11.2917Z" fill="white" fill-opacity="0.298039"/>
<path fill-rule="evenodd" clip-rule="evenodd" d="M300.922 11.2917C300.922 11.8167 300.497 12.2423 299.972 12.2423L293.899 12.2423C293.374 12.2423 292.948 11.8167 292.948 11.2917C292.949 10.7671 293.374 10.3421 293.899 10.342H299.972C300.224 10.3418 300.465 10.4417 300.644 10.6198C300.822 10.7979 300.922 11.0396 300.922 11.2917Z" fill="white"/>
<path fill-rule="evenodd" clip-rule="evenodd" d="M296.937 15.2786C296.684 15.2789 296.442 15.1788 296.264 15.0005C296.086 14.8221 295.986 14.5802 295.986 14.328V8.2554C295.986 7.73037 296.411 7.30476 296.937 7.30473C297.461 7.3053 297.886 7.73075 297.886 8.2554V14.328C297.886 14.5801 297.787 14.8219 297.608 15.0002C297.43 15.1785 297.189 15.2787 296.937 15.2787V15.2786Z" fill="white"/>
<circle cx="41.5712" cy="51.574" r="5.6198" fill="white" fill-opacity="0.2"/>
<path fill-rule="evenodd" clip-rule="evenodd" d="M41.5742 58.1595C41.0497 58.1595 40.6246 57.7343 40.6246 57.2098V45.9382C40.6246 45.4137 41.0497 44.9885 41.5742 44.9885C41.8262 44.9882 42.0681 45.0882 42.2463 45.2663C42.4246 45.4444 42.5248 45.6861 42.5248 45.9382V57.2098C42.5248 57.4619 42.4246 57.7035 42.2463 57.8817C42.0681 58.0598 41.8262 58.1597 41.5742 58.1595V58.1595Z" fill="white" fill-opacity="0.298039"/>
<path fill-rule="evenodd" clip-rule="evenodd" d="M48.1568 51.574C48.157 51.8262 48.057 52.0681 47.8787 52.2465C47.7003 52.4248 47.4584 52.5249 47.2062 52.5246L35.9355 52.5246C35.6835 52.5246 35.4418 52.4244 35.2636 52.2461C35.0855 52.0678 34.9856 51.826 34.9858 51.574C34.9858 51.0495 35.411 50.6243 35.9355 50.6243H47.2061C47.4581 50.624 47.7 50.724 47.8783 50.9021C48.0566 51.0802 48.1568 51.3219 48.1568 51.574Z" fill="white" fill-opacity="0.298039"/>
<path fill-rule="evenodd" clip-rule="evenodd" d="M45.558 51.574C45.5582 51.826 45.4583 52.0678 45.2801 52.2461C45.102 52.4244 44.8603 52.5246 44.6083 52.5246L38.5357 52.5246C38.0107 52.5246 37.5851 52.099 37.5851 51.574C37.5856 51.0494 38.011 50.6244 38.5356 50.6243H44.6083C45.1328 50.6243 45.558 51.0495 45.558 51.574Z" fill="white"/>
<path fill-rule="evenodd" clip-rule="evenodd" d="M41.5742 55.5609C41.0496 55.5604 40.6246 55.1349 40.6246 54.6103V48.5377C40.6243 48.2856 40.7242 48.0438 40.9024 47.8655C41.0805 47.6872 41.3222 47.587 41.5742 47.587C41.8264 47.5868 42.0684 47.6868 42.2467 47.8652C42.4251 48.0435 42.5251 48.2855 42.5248 48.5377V54.6103C42.5248 55.1353 42.0992 55.5609 41.5742 55.5609Z" fill="white"/>
<path fill-rule="evenodd" clip-rule="evenodd" d="M15.5731 3.03438C15.5728 2.19838 16.2507 1.52003 17.0872 1.51974C17.9237 1.51943 18.6021 2.19733 18.6024 3.03384C18.6026 3.87035 17.9248 4.54872 17.0883 4.54901C16.6865 4.54915 16.3011 4.38963 16.0169 4.10556C15.7328 3.8215 15.5731 3.43617 15.5731 3.03438H15.5731Z" fill="#FFEDB2"/>
<path fill-rule="evenodd" clip-rule="evenodd" d="M77.1971 61.0456C77.1976 60.2091 77.8761 59.5315 78.7125 59.5319C79.5489 59.5323 80.2266 60.2106 80.2263 61.047C80.2261 61.8834 79.548 62.5613 78.7116 62.5612C78.3098 62.5612 77.9245 62.4014 77.6404 62.1172C77.3564 61.8329 77.197 61.4474 77.1973 61.0456H77.1971Z" fill="#FFEDB2"/>
<path fill-rule="evenodd" clip-rule="evenodd" d="M330.971 49.3651C330.971 48.752 331.34 48.1998 331.906 47.9656C332.472 47.7313 333.124 47.8612 333.557 48.2945C333.99 48.7278 334.119 49.3794 333.885 49.9453C333.65 50.5112 333.097 50.88 332.485 50.8798C331.649 50.8794 330.971 50.2014 330.971 49.3651H330.971Z" fill="#FFEDB2"/>
<path fill-rule="evenodd" clip-rule="evenodd" d="M229.842 4.70628C229.842 4.09419 230.211 3.54178 230.777 3.30714C231.343 3.07251 231.994 3.20187 232.428 3.63493C232.861 4.06796 232.991 4.7194 232.756 5.28546C232.522 5.85153 231.97 6.22073 231.357 6.22093C230.956 6.22106 230.57 6.06152 230.286 5.77746C230.002 5.49341 229.842 5.10808 229.842 4.70628Z" fill="#FFEDB2"/>
<path fill-rule="evenodd" clip-rule="evenodd" d="M223.51 43.596C223.509 42.9831 223.878 42.4301 224.445 42.1951C225.011 41.9602 225.663 42.0895 226.097 42.5229C226.53 42.9562 226.66 43.6082 226.426 44.1747C226.191 44.7412 225.639 45.1106 225.026 45.1107C224.189 45.1107 223.511 44.4327 223.51 43.596H223.51Z" fill="#FFEDB2"/>
<path fill-rule="evenodd" clip-rule="evenodd" d="M314.575 1.51569C314.575 0.902652 314.944 0.349991 315.511 0.115405C316.077 -0.119181 316.729 0.0105011 317.162 0.443981C317.596 0.877461 317.725 1.52939 317.491 2.09574C317.256 2.6621 316.704 3.03135 316.091 3.03133C315.253 3.03129 314.575 2.35272 314.575 1.51569Z" fill="#FFEDB2"/>
<path fill-rule="evenodd" clip-rule="evenodd" d="M144.613 14.8179C144.613 14.2049 144.982 13.6522 145.548 13.4177C146.115 13.1831 146.766 13.3128 147.2 13.7462C147.633 14.1797 147.763 14.8316 147.528 15.398C147.294 15.9643 146.741 16.3336 146.128 16.3336C145.726 16.3338 145.34 16.1742 145.056 15.8899C144.772 15.6056 144.612 15.22 144.613 14.8179Z" fill="#FFEDB2"/>
<path fill-rule="evenodd" clip-rule="evenodd" d="M0 33.0467C0.000244567 32.2097 0.678613 31.5318 1.51509 31.532C2.35164 31.5323 3.02951 32.2107 3.02927 33.0472C3.02896 33.8837 2.3506 34.5616 1.51412 34.5613C0.677818 34.561 0 33.883 0 33.0467Z" fill="#FFEDB2"/>
</svg>
