<svg width="20" height="20" viewBox="0 0 20 20" fill="none" xmlns="http://www.w3.org/2000/svg">
<path d="M12.8333 8.23255L9.00911 4.41088C8.85043 4.26742 8.64267 4.19046 8.42882 4.19595C8.21498 4.20144 8.01143 4.28896 7.86033 4.44038C7.70923 4.5918 7.62215 4.79553 7.61711 5.00939C7.61207 5.22325 7.68947 5.43085 7.83327 5.58922L11.6549 9.41088C11.8112 9.56716 11.8989 9.77908 11.8989 10.0001C11.8989 10.221 11.8112 10.4329 11.6549 10.5892L7.83327 14.4109C7.67702 14.5673 7.58928 14.7793 7.58936 15.0003C7.58943 15.2214 7.67732 15.4334 7.83369 15.5896C7.99006 15.7459 8.20209 15.8336 8.42315 15.8336C8.64421 15.8335 8.85618 15.7456 9.01244 15.5892L12.8333 11.7676C13.302 11.2987 13.5652 10.663 13.5652 10.0001C13.5652 9.33714 13.302 8.70137 12.8333 8.23255Z" fill="#64748B"/>
</svg>
