<svg width="32" height="32" viewBox="0 0 32 32" fill="none" xmlns="http://www.w3.org/2000/svg">
<g clip-path="url(#clip0_223_6503)">
<path d="M30.6667 29.3333H4C3.64638 29.3333 3.30724 29.1929 3.05719 28.9428C2.80714 28.6928 2.66667 28.3536 2.66667 28V1.33333C2.66667 0.979711 2.52619 0.640573 2.27614 0.390524C2.02609 0.140476 1.68696 0 1.33333 0C0.979711 0 0.640573 0.140476 0.390524 0.390524C0.140476 0.640573 0 0.979711 0 1.33333L0 28C0 29.0609 0.421427 30.0783 1.17157 30.8284C1.92172 31.5786 2.93913 32 4 32H30.6667C31.0203 32 31.3594 31.8595 31.6095 31.6095C31.8595 31.3594 32 31.0203 32 30.6667C32 30.313 31.8595 29.9739 31.6095 29.7239C31.3594 29.4738 31.0203 29.3333 30.6667 29.3333Z" fill="#F59E0B"/>
<path d="M20.0003 26.6665C20.3539 26.6665 20.6931 26.526 20.9431 26.276C21.1932 26.0259 21.3337 25.6868 21.3337 25.3332V15.9998C21.3337 15.6462 21.1932 15.3071 20.9431 15.057C20.6931 14.807 20.3539 14.6665 20.0003 14.6665C19.6467 14.6665 19.3076 14.807 19.0575 15.057C18.8075 15.3071 18.667 15.6462 18.667 15.9998V25.3332C18.667 25.6868 18.8075 26.0259 19.0575 26.276C19.3076 26.526 19.6467 26.6665 20.0003 26.6665Z" fill="#F59E0B"/>
<path d="M9.33333 26.6665C9.68696 26.6665 10.0261 26.526 10.2761 26.276C10.5262 26.0259 10.6667 25.6868 10.6667 25.3332V15.9998C10.6667 15.6462 10.5262 15.3071 10.2761 15.057C10.0261 14.807 9.68696 14.6665 9.33333 14.6665C8.97971 14.6665 8.64057 14.807 8.39052 15.057C8.14048 15.3071 8 15.6462 8 15.9998V25.3332C8 25.6868 8.14048 26.0259 8.39052 26.276C8.64057 26.526 8.97971 26.6665 9.33333 26.6665Z" fill="#F59E0B"/>
<path d="M25.3333 26.6667C25.687 26.6667 26.0261 26.5262 26.2761 26.2761C26.5262 26.0261 26.6667 25.687 26.6667 25.3333V9.33333C26.6667 8.97971 26.5262 8.64057 26.2761 8.39052C26.0261 8.14048 25.687 8 25.3333 8C24.9797 8 24.6406 8.14048 24.3905 8.39052C24.1405 8.64057 24 8.97971 24 9.33333V25.3333C24 25.687 24.1405 26.0261 24.3905 26.2761C24.6406 26.5262 24.9797 26.6667 25.3333 26.6667Z" fill="#F59E0B"/>
<path d="M14.6663 26.6667C15.02 26.6667 15.3591 26.5262 15.6092 26.2761C15.8592 26.0261 15.9997 25.687 15.9997 25.3333V9.33333C15.9997 8.97971 15.8592 8.64057 15.6092 8.39052C15.3591 8.14048 15.02 8 14.6663 8C14.3127 8 13.9736 8.14048 13.7235 8.39052C13.4735 8.64057 13.333 8.97971 13.333 9.33333V25.3333C13.333 25.687 13.4735 26.0261 13.7235 26.2761C13.9736 26.5262 14.3127 26.6667 14.6663 26.6667Z" fill="#F59E0B"/>
</g>
<defs>
<clipPath id="clip0_223_6503">
<rect width="32" height="32" fill="white"/>
</clipPath>
</defs>
</svg>
