<svg width="32" height="32" viewBox="0 0 32 32" fill="none" xmlns="http://www.w3.org/2000/svg">
<path d="M27.9996 16.5653V14.6666C27.9996 11.484 26.7353 8.43178 24.4849 6.18134C22.2345 3.93091 19.1822 2.66663 15.9996 2.66663C12.817 2.66663 9.76476 3.93091 7.51433 6.18134C5.26389 8.43178 3.99961 11.484 3.99961 14.6666V16.5653C2.60115 17.1811 1.45668 18.2586 0.757771 19.6174C0.0588655 20.9762 -0.152043 22.5339 0.160352 24.0296C0.472748 25.5254 1.28949 26.8684 2.47384 27.8339C3.65819 28.7994 5.13826 29.3287 6.66628 29.3333C7.37352 29.3333 8.0518 29.0523 8.55189 28.5522C9.05199 28.0521 9.33294 27.3739 9.33294 26.6666V18.6666C9.33294 17.9594 9.05199 17.2811 8.55189 16.781C8.0518 16.2809 7.37352 16 6.66628 16V14.6666C6.66628 12.1913 7.64961 9.8173 9.39995 8.06696C11.1503 6.31662 13.5243 5.33329 15.9996 5.33329C18.475 5.33329 20.8489 6.31662 22.5993 8.06696C24.3496 9.8173 25.3329 12.1913 25.3329 14.6666V16C24.6257 16 23.9474 16.2809 23.4473 16.781C22.9472 17.2811 22.6663 17.9594 22.6663 18.6666V26.6666H18.6663C18.3127 26.6666 17.9735 26.8071 17.7235 27.0571C17.4734 27.3072 17.3329 27.6463 17.3329 28C17.3329 28.3536 17.4734 28.6927 17.7235 28.9428C17.9735 29.1928 18.3127 29.3333 18.6663 29.3333H25.3329C26.861 29.3287 28.341 28.7994 29.5254 27.8339C30.7097 26.8684 31.5265 25.5254 31.8389 24.0296C32.1513 22.5339 31.9404 20.9762 31.2414 19.6174C30.5425 18.2586 29.3981 17.1811 27.9996 16.5653ZM6.66628 26.6666C5.60541 26.6666 4.58799 26.2452 3.83785 25.4951C3.0877 24.7449 2.66628 23.7275 2.66628 22.6666C2.66628 21.6058 3.0877 20.5883 3.83785 19.8382C4.58799 19.0881 5.60541 18.6666 6.66628 18.6666V26.6666ZM25.3329 26.6666V18.6666C26.3938 18.6666 27.4112 19.0881 28.1614 19.8382C28.9115 20.5883 29.3329 21.6058 29.3329 22.6666C29.3329 23.7275 28.9115 24.7449 28.1614 25.4951C27.4112 26.2452 26.3938 26.6666 25.3329 26.6666Z" fill="white"/>
</svg>
