<svg width="17" height="13" viewBox="0 0 17 13" fill="none" xmlns="http://www.w3.org/2000/svg">
<path fill-rule="evenodd" clip-rule="evenodd" d="M11.4474 0.187437C11.2133 -0.0606903 10.8317 -0.0627307 10.5951 0.182892C10.3585 0.428515 10.3566 0.828776 10.5908 1.0769L14.9368 5.63556H0.599771C0.44063 5.63476 0.287782 5.70064 0.175164 5.81855C0.0625616 5.93649 -0.000496439 6.09673 1.93431e-05 6.26364C-0.00126274 6.43173 0.0612353 6.59348 0.173735 6.71318C0.286249 6.83292 0.439525 6.90078 0.599771 6.90186H14.9348L10.5888 11.4504C10.3574 11.7007 10.3574 12.0986 10.5888 12.3489C10.7018 12.4694 10.8561 12.5373 11.0172 12.5373C11.1782 12.5373 11.3325 12.4694 11.4455 12.3489L16.82 6.71139C16.9349 6.59481 16.9997 6.43433 16.9997 6.26667C16.9997 6.09905 16.9349 5.93857 16.82 5.82195L11.4474 0.187437Z" fill="white"/>
</svg>
