<svg width="14" height="14" viewBox="0 0 14 14" fill="none" xmlns="http://www.w3.org/2000/svg">
<path fill-rule="evenodd" clip-rule="evenodd" d="M11.5199 11.8151C11.5194 11.5132 11.2914 11.2685 11.01 11.268C10.7287 11.2685 10.5007 11.5132 10.5002 11.8151C10.5007 12.117 10.7287 12.3617 11.0101 12.3622C11.2914 12.3617 11.5194 12.117 11.5199 11.8151ZM9.37617 11.268C9.09479 11.2685 8.86682 11.5132 8.8663 11.8151C8.86683 12.117 9.0948 12.3617 9.37618 12.3622C9.65754 12.3617 9.8855 12.117 9.88601 11.8151C9.88549 11.5147 9.65976 11.2707 9.37985 11.268H9.37617ZM13.0492 9.95209C13.0492 9.28918 12.5484 8.75183 11.9307 8.75183H9.39446L10.8317 7.20952C11.1181 6.89451 11.202 6.42664 11.045 6.02012C10.888 5.61354 10.5204 5.34652 10.1103 5.34115H8.76718V1.09422C8.76743 0.804124 8.6602 0.525806 8.46912 0.320563C8.27803 0.11532 8.01877 3.87431e-07 7.74841 3.87431e-07H5.30169C5.03117 -0.000243804 4.77167 0.114954 4.58039 0.320197C4.3891 0.52544 4.28174 0.803941 4.28199 1.09422V5.34115H2.93886C2.52618 5.34078 2.15399 5.60738 1.99604 6.01652C1.83807 6.4256 1.92547 6.89652 2.21742 7.20952L3.6547 8.75183H1.1185C0.500773 8.75183 0 9.28918 0 9.95209V12.7997C0 13.4625 0.500773 13.9999 1.1185 13.9999H11.9307C12.5484 13.9999 13.0492 13.4625 13.0492 12.7997V9.95209ZM6.37924 10.4362L2.79631 6.59141C2.73799 6.52834 2.72071 6.43384 2.75251 6.35185C2.7843 6.26981 2.85894 6.21633 2.94172 6.21633H5.09762V1.09422C5.09762 0.973226 5.18902 0.875184 5.30176 0.875184H7.74848C7.8612 0.875184 7.9526 0.973226 7.9526 1.09422V6.21633H10.1085C10.1911 6.21676 10.2654 6.27036 10.297 6.35228C10.3285 6.43421 10.3112 6.52847 10.253 6.59141L6.66726 10.4392C6.58741 10.5237 6.4591 10.5237 6.37924 10.4392V10.4362ZM12.2337 9.95209V12.7997C12.2332 12.9795 12.0983 13.1256 11.9308 13.1277H1.11863C0.951091 13.1256 0.816205 12.9795 0.815707 12.7997V9.95209C0.817713 9.77347 0.952172 9.62915 1.11863 9.62701H4.47414L5.80701 11.0573C6.20659 11.4819 6.8503 11.4819 7.24988 11.0573L8.5753 9.62701H11.9308C12.0973 9.62915 12.2317 9.77347 12.2337 9.95209Z" fill="white"/>
</svg>
