<svg width="18" height="18" viewBox="0 0 18 18" fill="none" xmlns="http://www.w3.org/2000/svg">
<path d="M4.50043 6.37482C4.69932 6.37487 4.89006 6.45391 5.03068 6.59457L8.47018 10.0341C8.61278 10.1709 8.80277 10.2474 9.00043 10.2474C9.19808 10.2474 9.38808 10.1709 9.53068 10.0341L12.9702 6.59457C13.1116 6.45796 13.3011 6.38236 13.4977 6.38407C13.6944 6.38578 13.8825 6.46465 14.0215 6.60371C14.1606 6.74277 14.2395 6.93088 14.2412 7.12752C14.2429 7.32417 14.1673 7.51362 14.0307 7.65507L10.5912 11.0946C10.1625 11.5037 9.59264 11.7319 9.00005 11.7319C8.40746 11.7319 7.83764 11.5037 7.40893 11.0946L3.97018 7.65507C3.86532 7.55018 3.79392 7.41656 3.76499 7.2711C3.73606 7.12563 3.75092 6.97486 3.80767 6.83783C3.86442 6.70081 3.96053 6.58369 4.08383 6.50127C4.20714 6.41886 4.35212 6.37486 4.50043 6.37482Z" fill="#64748B"/>
</svg>
