<svg width="20" height="20" viewBox="0 0 20 20" fill="none" xmlns="http://www.w3.org/2000/svg">
<path d="M18.3329 14.1668L18.3329 15.8334C18.3329 16.4965 18.0695 17.1323 17.6007 17.6012C17.1318 18.07 16.496 18.3334 15.8329 18.3334L4.16656 18.3334C3.50354 18.3334 2.86767 18.07 2.39884 17.6012C1.93001 17.1323 1.66663 16.4965 1.66663 15.8334L1.66663 14.1668C1.66663 13.9458 1.57883 13.7338 1.42255 13.5776C1.26628 13.4213 1.05432 13.3335 0.833313 13.3335C0.612304 13.3335 0.400348 13.4213 0.244071 13.5776C0.087795 13.7338 -2.64637e-07 13.9458 -2.54977e-07 14.1668L-1.82126e-07 15.8334C0.00132305 16.9381 0.440724 17.9971 1.22182 18.7782C2.00292 19.5593 3.06193 19.9987 4.16656 20L15.8329 20C16.9376 19.9987 17.9966 19.5593 18.7777 18.7782C19.5588 17.9971 19.9982 16.9381 19.9995 15.8334L19.9995 14.1668C19.9995 13.9458 19.9117 13.7338 19.7554 13.5776C19.5992 13.4213 19.3872 13.3335 19.1662 13.3335C18.9452 13.3335 18.7332 13.4213 18.577 13.5776C18.4207 13.7338 18.3329 13.9458 18.3329 14.1668Z" fill="#64748B"/>
<path d="M4.43138 11.2814L8.25296 15.1038C8.72252 15.571 9.35799 15.8333 10.0204 15.8333C10.6828 15.8333 11.3183 15.571 11.7879 15.1038L15.6094 11.2814C15.7612 11.1242 15.8452 10.9137 15.8433 10.6952C15.8414 10.4767 15.7538 10.2677 15.5993 10.1132C15.4448 9.95873 15.2358 9.8711 15.0173 9.8692C14.7988 9.8673 14.5883 9.95129 14.4311 10.1031L10.8537 13.6797L10.8537 0.833313C10.8537 0.612305 10.7659 0.400349 10.6097 0.244072C10.4534 0.0877956 10.2414 2.44869e-07 10.0204 2.54529e-07C9.7994 2.6419e-07 9.58745 0.0877957 9.43117 0.244072C9.2749 0.400349 9.1871 0.612305 9.1871 0.833313L9.1871 13.6805L5.60969 10.1031C5.53282 10.0235 5.44087 9.96001 5.3392 9.91634C5.23753 9.87267 5.12818 9.84968 5.01754 9.84872C4.90689 9.84776 4.79716 9.86884 4.69475 9.91074C4.59234 9.95264 4.4993 10.0145 4.42106 10.0928C4.34281 10.171 4.28094 10.264 4.23904 10.3665C4.19714 10.4689 4.17605 10.5786 4.17701 10.6892C4.17798 10.7999 4.20096 10.9092 4.24464 11.0109C4.28831 11.1126 4.35179 11.2045 4.43138 11.2814Z" fill="#64748B"/>
</svg>
