<svg width="13" height="17" viewBox="0 0 13 17" fill="none" xmlns="http://www.w3.org/2000/svg">
<rect x="0.5" y="0.5" width="12" height="15.25" rx="1.5" stroke="white"/>
<g clip-path="url(#clip0_254_2684)">
<path fill-rule="evenodd" clip-rule="evenodd" d="M7.24951 4.21875C7.24951 4.45081 7.15732 4.67337 6.99322 4.83746C6.82913 5.00156 6.60657 5.09374 6.37451 5.09374C6.14244 5.09374 5.91989 5.00156 5.75579 4.83746C5.5917 4.67337 5.49951 4.45081 5.49951 4.21875C5.49951 3.98668 5.5917 3.76412 5.75579 3.60003C5.91989 3.43594 6.14244 3.34375 6.37451 3.34375C6.60657 3.34375 6.82913 3.43594 6.99322 3.60003C7.15732 3.76412 7.24951 3.98668 7.24951 4.21875ZM6.81201 4.21875C6.81201 4.33478 6.76591 4.44606 6.68387 4.5281C6.60182 4.61015 6.49054 4.65625 6.37451 4.65625C6.25848 4.65625 6.1472 4.61015 6.06515 4.5281C5.9831 4.44606 5.93701 4.33478 5.93701 4.21875C5.93701 4.10271 5.9831 3.99144 6.06515 3.90939C6.1472 3.82734 6.25848 3.78125 6.37451 3.78125C6.49054 3.78125 6.60182 3.82734 6.68387 3.90939C6.76591 3.99144 6.81201 4.10271 6.81201 4.21875Z" fill="white"/>
<path d="M4.82395 6.00546C5.006 5.78187 5.23408 5.59973 5.49295 5.47162C5.77145 5.33379 6.07803 5.26222 6.38876 5.26249L6.38872 5.31249L6.38867 5.26249C6.69539 5.2622 6.99812 5.33192 7.2738 5.46634C7.5298 5.59116 7.7562 5.76871 7.93829 5.98706C8.10214 5.7566 8.21319 5.49253 8.26316 5.21367C8.3169 4.91379 8.29845 4.60542 8.20935 4.31408C8.12025 4.02274 7.96305 3.75681 7.75077 3.53828C7.53849 3.31976 7.27722 3.15492 6.98858 3.05742C6.69995 2.95991 6.39224 2.93254 6.09093 2.97757C5.78961 3.02259 5.50335 3.13873 5.25583 3.31635C5.0083 3.49397 4.80664 3.72799 4.66751 3.99903C4.52838 4.27006 4.4558 4.57033 4.45576 4.87499L4.82395 6.00546ZM4.82395 6.00546C4.59248 5.68835 4.45576 5.29765 4.45576 4.875L4.82395 6.00546ZM6.37457 6.79373L6.37443 6.79373C5.94974 6.79437 5.53742 6.65352 5.20226 6.39415C5.33524 6.21611 5.50676 6.07013 5.70421 5.96729C5.91556 5.85721 6.15038 5.79982 6.38869 5.79999H6.38876C6.62409 5.7998 6.85607 5.85576 7.06543 5.96322C7.26085 6.06352 7.4313 6.20599 7.56457 6.38009C7.22645 6.64824 6.80705 6.79434 6.37457 6.79373ZM6.38872 5.74999C6.63201 5.74979 6.87183 5.80764 7.08826 5.91874C7.3047 6.02983 7.49152 6.19095 7.63318 6.38873C7.27997 6.68332 6.83444 6.84438 6.3745 6.84373L6.38872 5.74999ZM6.3745 2.41875C5.01799 2.41875 3.91826 3.51848 3.91826 4.87499C3.91826 6.23151 5.01799 7.33123 6.3745 7.33123C7.73102 7.33123 8.83074 6.23151 8.83074 4.87499C8.83074 3.51848 7.73102 2.41875 6.3745 2.41875Z" fill="white" stroke="white" stroke-width="0.1"/>
</g>
<rect x="3.24951" y="9.68768" width="6.5" height="0.8125" rx="0.40625" fill="white"/>
<rect x="3.24951" y="11.7625" width="6.5" height="0.8125" rx="0.40625" fill="white"/>
<defs>
<clipPath id="clip0_254_2684">
<rect width="5.24998" height="5.24998" fill="white" transform="translate(3.74951 2.25)"/>
</clipPath>
</defs>
</svg>
