<svg width="32" height="32" viewBox="0 0 32 32" fill="none" xmlns="http://www.w3.org/2000/svg">
<path d="M13.5373 7.40729C13.6052 7.54551 13.6501 7.69353 13.6702 7.8457L14.0414 13.3656L14.2257 16.14C14.2276 16.4253 14.2724 16.7088 14.3585 16.9813C14.5811 17.51 15.1165 17.846 15.6991 17.8226L24.5754 17.242C24.9598 17.2356 25.331 17.3794 25.6073 17.6416C25.8376 17.8601 25.9862 18.146 26.0331 18.4535L26.0488 18.6402C25.6815 23.7264 21.9459 27.9688 16.8701 29.0639C11.7944 30.159 6.58948 27.8456 4.08127 23.3798C3.35818 22.0823 2.90653 20.6563 2.75283 19.1852C2.68863 18.7498 2.66036 18.3099 2.6683 17.87C2.66037 12.4169 6.54362 7.70253 11.9794 6.56601C12.6337 6.46414 13.275 6.81048 13.5373 7.40729Z" fill="#64748B"/>
<path opacity="0.4" d="M17.1604 2.6676C23.2403 2.82227 28.3502 7.19422 29.3337 13.0829L29.3243 13.1263L29.2975 13.1895L29.3013 13.363C29.2873 13.5928 29.1986 13.8139 29.0457 13.9925C28.8864 14.1785 28.6688 14.3052 28.4292 14.3544L28.2831 14.3744L18.042 15.038C17.7014 15.0716 17.3622 14.9617 17.1089 14.7358C16.8978 14.5475 16.7628 14.2933 16.7247 14.0194L16.0373 3.79325C16.0253 3.75868 16.0253 3.72119 16.0373 3.68661C16.0467 3.40473 16.1708 3.13829 16.3818 2.94681C16.5929 2.75533 16.8733 2.65477 17.1604 2.6676Z" fill="#64748B"/>
</svg>
