<svg width="20" height="20" viewBox="0 0 20 20" fill="none" xmlns="http://www.w3.org/2000/svg">
<g clip-path="url(#clip0_255_3003)">
<path d="M14.1665 0H6.6665V13.3333H18.3332V4.16667C18.3332 3.0616 17.8942 2.00179 17.1128 1.22039C16.3314 0.438987 15.2716 0 14.1665 0V0Z" fill="white"/>
<path d="M3.66234 13.3842C3.82825 13.3503 3.99716 13.3333 4.1665 13.3334H4.99984V0.083374C4.0587 0.275483 3.21284 0.786859 2.60542 1.53095C1.99799 2.27505 1.66631 3.20616 1.6665 4.16671V14.1875C2.24905 13.748 2.93773 13.4708 3.66234 13.3842Z" fill="white"/>
<path d="M18.3332 15H4.1665C3.50346 15 2.86758 15.2634 2.39874 15.7322C1.9299 16.2011 1.6665 16.837 1.6665 17.5C1.6665 18.163 1.9299 18.7989 2.39874 19.2678C2.86758 19.7366 3.50346 20 4.1665 20H14.1665C14.7137 20 15.2555 19.8922 15.761 19.6828C16.2665 19.4734 16.7259 19.1665 17.1128 18.7796C17.4997 18.3927 17.8066 17.9334 18.016 17.4278C18.2254 16.9223 18.3332 16.3805 18.3332 15.8333V15Z" fill="white"/>
</g>
<defs>
<clipPath id="clip0_255_3003">
<rect width="20" height="20" fill="white"/>
</clipPath>
</defs>
</svg>
