<svg width="32" height="32" viewBox="0 0 32 32" fill="none" xmlns="http://www.w3.org/2000/svg">
<g clip-path="url(#clip0_254_2660)">
<path d="M29.3333 22.6667L29.3333 25.3333C29.3333 26.3942 28.9119 27.4116 28.1618 28.1618C27.4116 28.9119 26.3942 29.3333 25.3333 29.3333L6.66667 29.3333C5.6058 29.3333 4.58838 28.9119 3.83824 28.1618C3.08809 27.4116 2.66667 26.3942 2.66667 25.3333L2.66667 22.6667C2.66667 22.313 2.52619 21.9739 2.27614 21.7239C2.02609 21.4738 1.68695 21.3333 1.33333 21.3333C0.979711 21.3333 0.640572 21.4738 0.390524 21.7239C0.140475 21.9739 -4.2343e-07 22.313 -4.07973e-07 22.6667L-2.91409e-07 25.3333C0.00211693 27.1008 0.705176 28.7953 1.95496 30.045C3.20474 31.2948 4.89921 31.9979 6.66667 32L25.3333 32C27.1008 31.9979 28.7953 31.2948 30.045 30.045C31.2948 28.7953 31.9979 27.1008 32 25.3333L32 22.6667C32 22.313 31.8595 21.9739 31.6095 21.7239C31.3594 21.4738 31.0203 21.3333 30.6667 21.3333C30.313 21.3333 29.9739 21.4738 29.7239 21.7239C29.4738 21.9739 29.3333 22.313 29.3333 22.6667Z" fill="#CBD5E1"/>
<path d="M24.9427 7.28271L18.8281 1.16671C18.0767 0.419101 17.06 -0.000589824 16.0001 -0.000589778C14.9402 -0.000589732 13.9234 0.419101 13.1721 1.16671L7.05739 7.28271C6.81451 7.53418 6.68012 7.87098 6.68316 8.22058C6.68619 8.57017 6.82642 8.90459 7.07363 9.1518C7.32084 9.39901 7.65526 9.53924 8.00485 9.54227C8.35445 9.54531 8.69125 9.41092 8.94272 9.16804L14.6667 3.44538L14.6667 24C14.6667 24.3537 14.8072 24.6928 15.0572 24.9428C15.3073 25.1929 15.6464 25.3334 16.0001 25.3334C16.3537 25.3334 16.6928 25.1929 16.9429 24.9428C17.1929 24.6928 17.3334 24.3537 17.3334 24L17.3334 3.44404L23.0574 9.16804C23.1804 9.29539 23.3275 9.39696 23.4902 9.46684C23.6529 9.53672 23.8278 9.5735 24.0049 9.57504C24.1819 9.57658 24.3575 9.54284 24.5213 9.4758C24.6852 9.40876 24.8341 9.30976 24.9592 9.18457C25.0844 9.05938 25.1834 8.91051 25.2505 8.74665C25.3175 8.58278 25.3513 8.40721 25.3497 8.23017C25.3482 8.05313 25.3114 7.87817 25.2415 7.7155C25.1716 7.55283 25.0701 7.4057 24.9427 7.28271Z" fill="#CBD5E1"/>
</g>
<defs>
<clipPath id="clip0_254_2660">
<rect width="32" height="32" fill="white" transform="translate(0 32) rotate(-90)"/>
</clipPath>
</defs>
</svg>
