<svg width="328" height="28" viewBox="0 0 328 28" fill="none" xmlns="http://www.w3.org/2000/svg">
<path fill-rule="evenodd" clip-rule="evenodd" d="M0.0234375 14C0.0234375 10.134 1.32651 6.83418 3.93267 4.10051C6.53882 1.36683 9.68472 0 13.3704 0H313.676C317.362 0 320.508 1.36683 323.114 4.10051C325.72 6.83418 327.023 10.134 327.023 14C327.023 17.866 325.72 21.1658 323.114 23.8995C320.508 26.6332 317.362 28 313.676 28H13.3704C9.68472 28 6.53882 26.6332 3.93267 23.8995C1.32651 21.1658 0.0234375 17.866 0.0234375 14Z" fill="white"/>
<path fill-rule="evenodd" clip-rule="evenodd" d="M0.5 14C0.5 10.2721 1.75654 7.0901 4.26961 4.45406C6.78269 1.81802 9.81624 0.5 13.3703 0.5H313.676C317.23 0.5 320.264 1.81802 322.777 4.45406C325.29 7.0901 326.547 10.2721 326.547 14C326.547 17.7279 325.29 20.9099 322.777 23.5459C320.264 26.182 317.23 27.5 313.676 27.5H13.3703C9.81624 27.5 6.78269 26.182 4.26961 23.5459C1.75654 20.9099 0.5 17.7279 0.5 14V14Z" stroke="#E1E3E8"/>
</svg>
