<svg width="18" height="18" viewBox="0 0 18 18" fill="none" xmlns="http://www.w3.org/2000/svg">
<path fill-rule="evenodd" clip-rule="evenodd" d="M6 0.75C6.41421 0.75 6.75 1.08579 6.75 1.5V2.25171C6.97292 2.25 7.21349 2.25 7.47336 2.25H10.5266C10.7865 2.25 11.0271 2.25 11.25 2.25171V1.5C11.25 1.08579 11.5858 0.75 12 0.75C12.4142 0.75 12.75 1.08579 12.75 1.5V2.34344C12.9894 2.38426 13.2157 2.44461 13.4351 2.53545C14.3539 2.91605 15.0839 3.64608 15.4645 4.56494C15.6229 4.94721 15.6886 5.35092 15.7197 5.80748C15.75 6.25148 15.75 6.79704 15.75 7.47336V10.2026C15.75 11.0292 15.75 11.6958 15.7052 12.2354C15.6591 12.791 15.5616 13.2787 15.3278 13.7287C14.972 14.4136 14.4136 14.972 13.7287 15.3278C13.2787 15.5616 12.791 15.6591 12.2354 15.7052C11.6958 15.75 11.0292 15.75 10.2026 15.75H7.79737C6.97083 15.75 6.30417 15.75 5.76462 15.7052C5.20901 15.6591 4.72135 15.5616 4.27135 15.3278C3.58643 14.972 3.02798 14.4136 2.6722 13.7287C2.43844 13.2787 2.34093 12.791 2.29479 12.2354C2.24999 11.6958 2.24999 11.0292 2.25 10.2027V7.47336C2.25 6.79704 2.24999 6.25149 2.28029 5.80748C2.31144 5.35092 2.37711 4.94721 2.53545 4.56494C2.91605 3.64608 3.64608 2.91605 4.56494 2.53545C4.78426 2.44461 5.01064 2.38426 5.25 2.34344V1.5C5.25 1.08579 5.58579 0.75 6 0.75ZM5.25 3.88107C5.2102 3.89357 5.17349 3.90697 5.13896 3.92127C4.58765 4.14963 4.14963 4.58765 3.92127 5.13896C3.85125 5.308 3.80275 5.5294 3.77681 5.90959C3.76089 6.14284 3.75442 6.41513 3.7518 6.75H14.2482C14.2456 6.41513 14.2391 6.14284 14.2232 5.90959C14.1973 5.5294 14.1487 5.308 14.0787 5.13896C13.8504 4.58765 13.4124 4.14963 12.861 3.92127C12.8265 3.90697 12.7898 3.89357 12.75 3.88107V4.5C12.75 4.91421 12.4142 5.25 12 5.25C11.5858 5.25 11.25 4.91421 11.25 4.5V3.75179C11.0294 3.75006 10.7816 3.75 10.5 3.75H7.5C7.21836 3.75 6.9706 3.75006 6.75 3.75179V4.5C6.75 4.91421 6.41421 5.25 6 5.25C5.58579 5.25 5.25 4.91421 5.25 4.5V3.88107ZM14.25 8.25H3.75V10.17C3.75 11.0368 3.7506 11.6411 3.78965 12.1112C3.82795 12.5724 3.89932 12.837 4.00332 13.0372C4.21679 13.4481 4.55186 13.7832 4.96281 13.9967C5.16302 14.1007 5.42758 14.1721 5.88876 14.2104C6.35892 14.2494 6.96318 14.25 7.83 14.25H10.17C11.0368 14.25 11.6411 14.2494 12.1112 14.2104C12.5724 14.1721 12.837 14.1007 13.0372 13.9967C13.4481 13.7832 13.7832 13.4481 13.9967 13.0372C14.1007 12.837 14.1721 12.5724 14.2104 12.1112C14.2494 11.6411 14.25 11.0368 14.25 10.17V8.25ZM9.75 12C9.75 11.5858 10.0858 11.25 10.5 11.25H12C12.4142 11.25 12.75 11.5858 12.75 12C12.75 12.4142 12.4142 12.75 12 12.75H10.5C10.0858 12.75 9.75 12.4142 9.75 12Z" fill="white"/>
</svg>
