<svg width="20" height="20" viewBox="0 0 20 20" fill="none" xmlns="http://www.w3.org/2000/svg">
<g clip-path="url(#clip0_212_1698)">
<path d="M10.0003 12.5C9.77931 12.5 9.56735 12.4122 9.41107 12.2559C9.25479 12.0996 9.167 11.8877 9.167 11.6667C9.19794 11.1221 9.3636 10.5938 9.64912 10.1291C9.93463 9.66439 10.3311 9.27785 10.8028 9.00416C11.1111 8.83521 11.3578 8.57284 11.5076 8.2548C11.6573 7.93675 11.7023 7.57941 11.6362 7.23416C11.572 6.9044 11.4108 6.60132 11.1732 6.36377C10.9357 6.12622 10.6326 5.96502 10.3028 5.90083C10.0621 5.8564 9.81455 5.86554 9.57775 5.92761C9.34096 5.98967 9.12075 6.10313 8.93276 6.25993C8.74478 6.41673 8.59365 6.61301 8.4901 6.83482C8.38656 7.05664 8.33315 7.29854 8.33366 7.54333C8.33366 7.76434 8.24586 7.9763 8.08958 8.13258C7.9333 8.28886 7.72134 8.37666 7.50033 8.37666C7.27931 8.37666 7.06735 8.28886 6.91107 8.13258C6.75479 7.9763 6.667 7.76434 6.667 7.54333C6.66691 7.05646 6.77348 6.57548 6.97921 6.13421C7.18495 5.69294 7.48485 5.3021 7.85783 4.98916C8.21429 4.69116 8.62911 4.47098 9.07567 4.34273C9.52224 4.21448 9.99068 4.18101 10.4509 4.24445C10.9112 4.30789 11.3531 4.46685 11.7483 4.71113C12.1435 4.95541 12.4833 5.27961 12.7459 5.66293C13.0084 6.04625 13.1879 6.48022 13.2729 6.937C13.3579 7.39378 13.3464 7.86328 13.2392 8.31536C13.1321 8.76745 12.9316 9.19215 12.6506 9.56219C12.3697 9.93224 12.0145 10.2395 11.6078 10.4642C11.3971 10.594 11.2182 10.7694 11.0842 10.9775C10.9503 11.1856 10.8646 11.4211 10.8337 11.6667C10.8337 11.8877 10.7459 12.0996 10.5896 12.2559C10.4333 12.4122 10.2213 12.5 10.0003 12.5ZM10.6612 19.8C12.4612 19.0767 18.3337 16.2325 18.3337 10.0358V5.72666C18.3346 4.85084 18.0591 3.99706 17.5465 3.28692C17.0339 2.57679 16.3102 2.04653 15.4787 1.77166L10.2628 0.0424948C10.0925 -0.0149787 9.90811 -0.0149787 9.73783 0.0424948L4.52199 1.77166C3.69042 2.04653 2.96679 2.57679 2.45416 3.28692C1.94154 3.99706 1.66607 4.85084 1.66699 5.72666V10.0358C1.66699 15.5042 7.50449 18.8492 9.29449 19.7442C9.5109 19.8745 9.75065 19.9614 10.0003 20C10.2311 19.975 10.4552 19.9071 10.6612 19.8ZM14.9537 3.35333C15.4524 3.51867 15.8864 3.83698 16.194 4.26302C16.5016 4.68907 16.6671 5.2012 16.667 5.72666V10.0358C16.667 15.1883 11.5945 17.6283 10.0395 18.2533C8.46616 17.4667 3.33366 14.5492 3.33366 10.0358V5.72666C3.33359 5.2012 3.4991 4.68907 3.80666 4.26302C4.11423 3.83698 4.54822 3.51867 5.04699 3.35333L10.0003 1.71166L14.9537 3.35333ZM10.0003 14.1667C9.83551 14.1667 9.67439 14.2155 9.53735 14.3071C9.40031 14.3987 9.2935 14.5288 9.23043 14.6811C9.16736 14.8334 9.15085 15.0009 9.18301 15.1626C9.21516 15.3242 9.29453 15.4727 9.41107 15.5893C9.52762 15.7058 9.6761 15.7852 9.83775 15.8173C9.9994 15.8495 10.167 15.833 10.3192 15.7699C10.4715 15.7068 10.6017 15.6 10.6932 15.463C10.7848 15.3259 10.8337 15.1648 10.8337 15C10.8337 14.779 10.7459 14.567 10.5896 14.4107C10.4333 14.2545 10.2213 14.1667 10.0003 14.1667Z" fill="#008083"/>
</g>
<defs>
<clipPath id="clip0_212_1698">
<rect width="20" height="20" fill="white"/>
</clipPath>
</defs>
</svg>
