<svg width="32" height="32" viewBox="0 0 32 32" fill="none" xmlns="http://www.w3.org/2000/svg">
<g clip-path="url(#clip0_223_6481)">
<path d="M30.6667 17.3332H1.33333C0.979711 17.3332 0.640573 17.1927 0.390524 16.9426C0.140476 16.6926 0 16.3535 0 15.9998C0 15.6462 0.140476 15.3071 0.390524 15.057C0.640573 14.807 0.979711 14.6665 1.33333 14.6665H30.6667C31.0203 14.6665 31.3594 14.807 31.6095 15.057C31.8595 15.3071 32 15.6462 32 15.9998C32 16.3535 31.8595 16.6926 31.6095 16.9426C31.3594 17.1927 31.0203 17.3332 30.6667 17.3332ZM25.2453 9.50117C25.4129 8.79008 25.3349 8.04321 25.0241 7.38207C24.7133 6.72093 24.1878 6.18442 23.5333 5.85984L12.8907 0.570505C12.2263 0.193214 11.4751 -0.00458176 10.7111 -0.00341282C9.94709 -0.00224387 9.19654 0.197849 8.53333 0.577172C7.95552 0.912057 7.47776 1.39535 7.14955 1.97699C6.82134 2.55862 6.65462 3.21743 6.66667 3.88517V7.99984C6.66667 9.06071 7.08809 10.0781 7.83824 10.8283C8.58839 11.5784 9.6058 11.9998 10.6667 11.9998H21.7573C22.5379 12.0507 23.312 11.8295 23.948 11.374C24.5839 10.9184 25.0423 10.2566 25.2453 9.50117ZM12.8373 31.4558L23.548 26.1332C24.1988 25.8069 24.7204 25.2705 25.0285 24.6109C25.3365 23.9512 25.4129 23.207 25.2453 22.4985C25.0423 21.7431 24.5839 21.0813 23.948 20.6257C23.312 20.1702 22.5379 19.949 21.7573 19.9998H10.6667C9.6058 19.9998 8.58839 20.4213 7.83824 21.1714C7.08809 21.9216 6.66667 22.939 6.66667 23.9998V28.1132C6.65448 28.7809 6.82114 29.4398 7.14936 30.0215C7.47758 30.6031 7.95542 31.0864 8.53333 31.4212C9.19407 31.8047 9.94537 32.0045 10.7093 31.9998C11.4533 32.0021 12.1857 31.8149 12.8373 31.4558Z" fill="#B45309"/>
</g>
<defs>
<clipPath id="clip0_223_6481">
<rect width="32" height="32" fill="white"/>
</clipPath>
</defs>
</svg>
