<svg width="14" height="14" viewBox="0 0 14 14" fill="none" xmlns="http://www.w3.org/2000/svg">
<g clip-path="url(#clip0_259_5386)">
<path d="M13.4167 12.8333H1.75C1.59529 12.8333 1.44692 12.7719 1.33752 12.6625C1.22812 12.5531 1.16667 12.4047 1.16667 12.25V0.583333C1.16667 0.428624 1.10521 0.280251 0.995812 0.170854C0.886416 0.0614582 0.738043 0 0.583333 0C0.428624 0 0.280251 0.0614582 0.170854 0.170854C0.0614582 0.280251 0 0.428624 0 0.583333L0 12.25C0 12.7141 0.184374 13.1592 0.512563 13.4874C0.840752 13.8156 1.28587 14 1.75 14H13.4167C13.5714 14 13.7197 13.9385 13.8291 13.8291C13.9385 13.7197 14 13.5714 14 13.4167C14 13.262 13.9385 13.1136 13.8291 13.0042C13.7197 12.8948 13.5714 12.8333 13.4167 12.8333Z" fill="white"/>
<path d="M8.75033 11.6666C8.90504 11.6666 9.05341 11.6052 9.1628 11.4958C9.2722 11.3864 9.33366 11.238 9.33366 11.0833V6.99996C9.33366 6.84525 9.2722 6.69688 9.1628 6.58748C9.05341 6.47808 8.90504 6.41663 8.75033 6.41663C8.59562 6.41663 8.44724 6.47808 8.33785 6.58748C8.22845 6.69688 8.16699 6.84525 8.16699 6.99996V11.0833C8.16699 11.238 8.22845 11.3864 8.33785 11.4958C8.44724 11.6052 8.59562 11.6666 8.75033 11.6666Z" fill="white"/>
<path d="M4.08333 11.6666C4.23804 11.6666 4.38642 11.6052 4.49581 11.4958C4.60521 11.3864 4.66667 11.238 4.66667 11.0833V6.99996C4.66667 6.84525 4.60521 6.69688 4.49581 6.58748C4.38642 6.47808 4.23804 6.41663 4.08333 6.41663C3.92862 6.41663 3.78025 6.47808 3.67085 6.58748C3.56146 6.69688 3.5 6.84525 3.5 6.99996V11.0833C3.5 11.238 3.56146 11.3864 3.67085 11.4958C3.78025 11.6052 3.92862 11.6666 4.08333 11.6666Z" fill="white"/>
<path d="M11.0833 11.6667C11.238 11.6667 11.3864 11.6052 11.4958 11.4958C11.6052 11.3864 11.6667 11.238 11.6667 11.0833V4.08333C11.6667 3.92862 11.6052 3.78025 11.4958 3.67085C11.3864 3.56146 11.238 3.5 11.0833 3.5C10.9286 3.5 10.7803 3.56146 10.6709 3.67085C10.5615 3.78025 10.5 3.92862 10.5 4.08333V11.0833C10.5 11.238 10.5615 11.3864 10.6709 11.4958C10.7803 11.6052 10.9286 11.6667 11.0833 11.6667Z" fill="white"/>
<path d="M6.41634 11.6667C6.57105 11.6667 6.71942 11.6052 6.82882 11.4958C6.93822 11.3864 6.99967 11.238 6.99967 11.0833V4.08333C6.99967 3.92862 6.93822 3.78025 6.82882 3.67085C6.71942 3.56146 6.57105 3.5 6.41634 3.5C6.26163 3.5 6.11326 3.56146 6.00386 3.67085C5.89447 3.78025 5.83301 3.92862 5.83301 4.08333V11.0833C5.83301 11.238 5.89447 11.3864 6.00386 11.4958C6.11326 11.6052 6.26163 11.6667 6.41634 11.6667Z" fill="white"/>
</g>
<defs>
<clipPath id="clip0_259_5386">
<rect width="14" height="14" fill="white"/>
</clipPath>
</defs>
</svg>
