<svg width="24" height="24" viewBox="0 0 24 24" fill="none" xmlns="http://www.w3.org/2000/svg">
<g clip-path="url(#clip0_255_2976)">
<path d="M22.555 13.6621L20.655 6.82606C20.0981 4.82339 18.8877 3.06434 17.2163 1.82853C15.5449 0.592709 13.5084 -0.0489569 11.4304 0.00552316C9.3525 0.0600033 7.35239 0.807503 5.74805 2.1292C4.1437 3.45091 3.02719 5.27096 2.57598 7.30006L1.10498 13.9151C0.942497 14.646 0.946254 15.4041 1.11597 16.1334C1.2857 16.8627 1.61705 17.5445 2.08556 18.1286C2.55408 18.7127 3.1478 19.1841 3.82289 19.508C4.49798 19.8319 5.23721 20.0001 5.98598 20.0001H7.09998C7.3295 21.1303 7.94271 22.1465 8.83572 22.8764C9.72874 23.6063 10.8466 24.0051 12 24.0051C13.1533 24.0051 14.2712 23.6063 15.1642 22.8764C16.0573 22.1465 16.6705 21.1303 16.9 20.0001H17.738C18.5088 20.0001 19.2692 19.8219 19.9597 19.4795C20.6503 19.137 21.2523 18.6396 21.7188 18.0259C22.1853 17.4123 22.5036 16.6991 22.6488 15.9421C22.794 15.1851 22.7612 14.4048 22.555 13.6621ZM12 22.0001C11.3817 21.9975 10.7794 21.804 10.2753 21.446C9.77121 21.088 9.39007 20.583 9.18398 20.0001H14.816C14.6099 20.583 14.2288 21.088 13.7247 21.446C13.2206 21.804 12.6182 21.9975 12 22.0001Z" fill="#CBD5E1"/>
</g>
<defs>
<clipPath id="clip0_255_2976">
<rect width="24" height="24" fill="white"/>
</clipPath>
</defs>
</svg>
