<svg width="21" height="18" viewBox="0 0 21 18" fill="none" xmlns="http://www.w3.org/2000/svg">
<path d="M13.0003 13.0003V15.0837C13.0003 15.6362 12.7808 16.1661 12.3901 16.5569C11.9994 16.9476 11.4695 17.1671 10.9169 17.1671H2.58339C2.03085 17.1671 1.50093 16.9476 1.11022 16.5569C0.71951 16.1661 0.500012 15.6362 0.500012 15.0837V2.58339C0.500012 2.03085 0.71951 1.50093 1.11022 1.11022C1.50093 0.71951 2.03085 0.500012 2.58339 0.500012H10.5002C11.6508 0.500012 13.0003 1.43285 13.0003 2.58339V4.66678" stroke="#E30000" stroke-linecap="round" stroke-linejoin="round"/>
<path d="M16.3334 13.0003L20.5002 8.83356L16.3334 4.6668" stroke="#E30000" stroke-linecap="round" stroke-linejoin="round"/>
<path d="M6.33316 8.83352H19.6668" stroke="#E30000" stroke-linecap="round" stroke-linejoin="round"/>
</svg>
