<svg width="20" height="20" viewBox="0 0 20 20" fill="none" xmlns="http://www.w3.org/2000/svg">
<g clip-path="url(#clip0_255_2986)">
<path d="M18.5 1.80251C18.0249 1.40614 17.4676 1.12055 16.8684 0.966457C16.2692 0.812368 15.6432 0.793654 15.0358 0.911674L13.5658 1.27167C12.7987 1.41225 12.1051 1.81737 11.6059 2.41653C11.1066 3.01568 10.8332 3.77093 10.8333 4.55084V17.44C10.2807 17.5208 9.71928 17.5208 9.16667 17.44V4.55084C9.16943 3.77813 8.90237 3.02868 8.41157 2.43184C7.92078 1.83501 7.23703 1.42822 6.47833 1.28167L4.91667 0.901674C4.31596 0.791752 3.69844 0.815216 3.10781 0.970404C2.51718 1.12559 1.96789 1.40871 1.4988 1.79972C1.02972 2.19073 0.652322 2.68007 0.393318 3.2331C0.134315 3.78613 4.0677e-05 4.38933 0 5.00001L0 13.9942C4.78799e-05 14.9698 0.342481 15.9146 0.967611 16.6636C1.59274 17.4127 2.46092 17.9187 3.42083 18.0933L8.65917 19.0458C9.5458 19.2069 10.4542 19.2069 11.3408 19.0458L16.5833 18.0933C17.5425 17.9178 18.4097 17.4115 19.034 16.6625C19.6583 15.9135 20.0001 14.9692 20 13.9942V5.00001C20.0004 4.38954 19.8662 3.78651 19.6069 3.23383C19.3476 2.68116 18.9697 2.19245 18.5 1.80251Z" fill="white"/>
</g>
<defs>
<clipPath id="clip0_255_2986">
<rect width="20" height="20" fill="white"/>
</clipPath>
</defs>
</svg>
