<svg width="28" height="31" viewBox="0 0 28 31" fill="none" xmlns="http://www.w3.org/2000/svg">
<path fill-rule="evenodd" clip-rule="evenodd" d="M6.31209 3.49483C6.19006 2.32971 6.68656 1.18805 7.60562 0.520691C8.54119 -0.120779 9.73676 -0.173277 10.7202 0.383986C11.1625 0.742556 11.6599 1.01945 12.191 1.20269C13.489 1.42847 14.7057 -0.32772 15.9054 0.241034C16.4173 0.483975 16.7071 1.09254 17.2227 1.32614C17.8829 1.62535 18.6153 1.21366 19.2896 0.950356C20.7463 0.382412 22.6001 1.02302 22.9474 2.73391C23.1217 3.59324 22.9228 3.9706 23.4854 4.76508C23.9831 5.46821 24.7044 5.96115 24.9718 6.83378C25.3593 8.09703 24.5866 9.47199 24.8228 10.7759C25.1164 12.4227 26.9441 13.6453 26.6796 15.2976C26.5325 15.7699 26.4082 16.2496 26.3071 16.7351C26.2281 18.0272 27.6863 18.8639 27.9694 20.124C28.0654 20.6786 27.9321 21.2499 27.6028 21.6954C27.2734 22.1409 26.7792 22.4188 26.243 22.4599L24.3475 22.8614L6.64295 5.09323L6.31209 3.49483Z" fill="#80CF00"/>
<path fill-rule="evenodd" clip-rule="evenodd" d="M26.2358 22.4612L25.6643 22.5822C26.162 22.1122 26.3882 21.4029 26.2603 20.7135C25.9683 19.4167 24.4683 18.555 24.5466 17.2254C24.6511 16.7259 24.7797 16.2323 24.9318 15.7465C25.2038 14.0458 23.3224 12.7864 23.0206 11.0919C22.7814 9.74977 23.5765 8.33499 23.1778 7.03503C22.9029 6.13664 22.1608 5.62883 21.6489 4.90539C21.0707 4.08669 21.2763 3.69607 21.0952 2.81405C20.9043 1.89712 20.2444 1.16672 19.3815 0.917245C20.8225 0.411002 22.6078 1.0602 22.9468 2.73437C23.1212 3.59375 22.923 3.97106 23.4848 4.76559C23.9825 5.46866 24.7038 5.96165 24.9713 6.83424C25.3587 8.09829 24.5861 9.47245 24.8223 10.7763C25.1158 12.4239 26.9436 13.6466 26.6791 15.2988C26.6046 15.7903 26.3348 16.2363 26.3065 16.7363C26.2283 18.0277 27.6857 18.8651 27.9688 20.1245C28.0645 20.6791 27.9311 21.2502 27.6019 21.6956C27.2726 22.1411 26.7785 22.419 26.2424 22.4603L26.2358 22.4612Z" fill="#6DB000"/>
<path fill-rule="evenodd" clip-rule="evenodd" d="M17.9881 18.6775L23.6941 24.6594L23.18 15.0448C23.1279 14.0677 22.3839 13.2877 21.4521 13.2331L12.282 12.6941L17.9881 18.6775Z" fill="#FFC143"/>
<path fill-rule="evenodd" clip-rule="evenodd" d="M23.691 24.6606L22.3349 23.2387L21.8729 14.6046C21.8447 14.0637 21.5994 13.5605 21.1979 13.2195L21.4497 13.2343C22.3812 13.2892 23.1249 14.0686 23.1776 15.0452L23.691 24.6606Z" fill="#EEB900"/>
<path fill-rule="evenodd" clip-rule="evenodd" d="M18.1694 10.8049C18.1683 14.2458 15.5086 17.0325 12.2288 17.0313C8.94909 17.0301 6.29123 14.2415 6.29237 10.8027C6.29351 7.36399 8.95319 4.57734 12.2329 4.57853C15.5119 4.57973 18.1694 7.36699 18.1694 10.8049Z" fill="#F72C2C"/>
<path fill-rule="evenodd" clip-rule="evenodd" d="M18.1683 10.8063C18.1684 13.1676 16.8949 15.3254 14.88 16.3789C12.865 17.4324 10.455 17.2005 8.65659 15.78C11.4135 16.6703 14.382 15.3551 15.6946 12.6617C17.0072 9.96839 16.2844 6.67564 13.9808 4.8549C16.4702 5.66159 18.1679 8.07445 18.1683 10.8063Z" fill="#E32929"/>
<path fill-rule="evenodd" clip-rule="evenodd" d="M26.9637 25.7969C27.3094 25.4167 27.4124 24.8602 27.2274 24.372C26.8549 23.429 27.4167 22.4393 26.489 21.5244C25.3468 20.3979 24.2351 21.6377 23.0936 20.5088C21.9521 19.38 23.0645 18.1456 21.9223 17.0206C20.78 15.8957 19.6691 17.1339 18.5268 16.005C17.3846 14.8762 18.4963 13.6395 17.354 12.5138C16.2118 11.388 15.1001 12.627 13.9578 11.4982C12.8156 10.3693 13.9273 9.1326 12.7843 8.00687C11.6413 6.88109 10.5311 8.12011 9.38805 6.99123C8.24506 5.8624 9.35676 4.62572 8.21452 3.49917C7.28611 2.58434 6.37856 3.23044 5.45761 2.90152C4.98069 2.73802 4.4566 2.88121 4.11643 3.26791L3.54045 3.9101C2.65027 4.90313 2.69629 6.46477 3.64327 7.3983L23.06 26.5383C24.0072 27.4717 25.4966 27.4234 26.387 26.4305L26.9637 25.7969Z" fill="#D1F29C"/>
<path fill-rule="evenodd" clip-rule="evenodd" d="M26.9636 25.7971L26.3869 26.4393C25.9592 26.9162 25.3683 27.1954 24.7442 27.2155C24.1201 27.2355 23.514 26.9948 23.0593 26.5463L22.3961 25.8924C23.2555 26.1719 24.1916 25.9132 24.808 25.226L25.3847 24.5831C25.7317 24.2036 25.8359 23.6469 25.6514 23.1581C25.3743 22.455 25.6179 21.7199 25.3683 21.0128C25.79 21.0321 26.19 21.2144 26.4912 21.5245C27.4188 22.4394 26.86 23.4292 27.2296 24.3721C27.4142 24.8608 27.3103 25.4174 26.9636 25.7971H26.9636Z" fill="#BDDB82"/>
<path fill-rule="evenodd" clip-rule="evenodd" d="M0 4.62108V28.9266C0 29.7986 0.674208 30.5055 1.50586 30.5055H25.5572C26.1713 30.505 26.7235 30.1136 26.9529 29.5164C27.1822 28.9191 27.0428 28.2357 26.6004 27.7892L2.55126 3.48438C2.1164 3.04466 1.47296 2.91997 0.916923 3.16773C0.360889 3.41543 -9.09556e-05 3.98762 0 4.62108Z" fill="#F78E3C"/>
<path fill-rule="evenodd" clip-rule="evenodd" d="M25.5572 30.5055H25.0133C25.1094 29.9934 24.9475 29.4654 24.5848 29.1079L1.00813 5.28205C0.739196 5.0043 0.377488 4.84762 0 4.84533V4.62113C0 3.98738 0.361094 3.41529 0.917173 3.16763C1.47325 2.92002 2.11665 3.0448 2.55144 3.48462L26.6004 27.79C27.0428 28.2365 27.1822 28.9199 26.9529 29.5171C26.7235 30.1144 26.1713 30.5058 25.5572 30.5063V30.5055Z" fill="#E8782D"/>
<path fill-rule="evenodd" clip-rule="evenodd" d="M1.54776 9.78623C1.3721 9.78438 1.2144 9.67289 1.14694 9.50281C1.07945 9.33278 1.11519 9.1369 1.2378 9.00501L2.85915 7.30504C2.96794 7.1794 3.13386 7.12671 3.29085 7.168C3.44784 7.20929 3.57043 7.3378 3.60979 7.5024C3.64915 7.667 3.59892 7.84099 3.47909 7.95504L1.85996 9.65106C1.77778 9.73727 1.66625 9.78562 1.55001 9.78542L1.54776 9.78623Z" fill="#CE631B"/>
<path fill-rule="evenodd" clip-rule="evenodd" d="M2.35638 16.5302C2.18038 16.5291 2.02208 16.4177 1.9545 16.2473C1.88687 16.0769 1.92309 15.8807 2.04641 15.749L6.81885 10.7452C6.99221 10.5802 7.25857 10.587 7.42416 10.7605C7.58972 10.9342 7.59615 11.2134 7.43875 11.3952L2.66636 16.399C2.58411 16.4851 2.47262 16.5334 2.35638 16.5333V16.5302Z" fill="#CE631B"/>
<path fill-rule="evenodd" clip-rule="evenodd" d="M3.10193 23.3443C2.92627 23.3424 2.76858 23.231 2.70111 23.0609C2.63364 22.8908 2.66939 22.695 2.79197 22.5631L10.2863 14.7063C10.3951 14.5806 10.561 14.5279 10.718 14.5692C10.8749 14.6105 10.9975 14.739 11.0369 14.9036C11.0763 15.0682 11.026 15.2422 10.9062 15.3562L3.41191 23.2091C3.32984 23.2956 3.21828 23.3443 3.10193 23.3443Z" fill="#CE631B"/>
<path fill-rule="evenodd" clip-rule="evenodd" d="M6.37189 27.5105C6.19623 27.5087 6.03854 27.3972 5.97107 27.2271C5.90361 27.0571 5.93935 26.8612 6.06194 26.7292L13.8781 18.5342C14.0493 18.3547 14.3269 18.3547 14.498 18.5342C14.6692 18.7137 14.6692 19.0047 14.498 19.1842L6.68187 27.3793C6.59969 27.4655 6.48813 27.5138 6.37189 27.5136V27.5105Z" fill="#CE631B"/>
<path fill-rule="evenodd" clip-rule="evenodd" d="M12.801 28.364C12.6253 28.3622 12.4676 28.2507 12.4002 28.0806C12.3327 27.9106 12.3684 27.7147 12.491 27.5828L17.7292 22.0907C17.9025 21.9258 18.1689 21.9325 18.3345 22.1061C18.5 22.2797 18.5065 22.559 18.3491 22.7407L13.111 28.2328C13.0283 28.3179 12.9168 28.365 12.801 28.364Z" fill="#CE631B"/>
<path fill-rule="evenodd" clip-rule="evenodd" d="M19.8966 28.5204C19.7209 28.5185 19.5632 28.4071 19.4957 28.237C19.4283 28.0669 19.464 27.8711 19.5866 27.7391L21.5105 25.722C21.6838 25.557 21.9502 25.5638 22.1158 25.7374C22.2813 25.911 22.2878 26.1903 22.1304 26.372L20.2065 28.3891C20.1239 28.4742 20.0124 28.5214 19.8966 28.5204Z" fill="#CE631B"/>
</svg>
