<svg width="18" height="18" viewBox="0 0 18 18" fill="none" xmlns="http://www.w3.org/2000/svg">
<path fill-rule="evenodd" clip-rule="evenodd" d="M6.29735 2.25H11.7027C12.5292 2.24999 13.1958 2.24999 13.7354 2.29479C14.291 2.34093 14.7787 2.43844 15.2287 2.6722C15.9136 3.02798 16.472 3.58643 16.8278 4.27135C17.0616 4.72135 17.1591 5.20901 17.2052 5.76462C17.25 6.30417 17.25 6.97083 17.25 7.79737V10.2026C17.25 11.0292 17.25 11.6958 17.2052 12.2354C17.1591 12.791 17.0616 13.2787 16.8278 13.7287C16.472 14.4136 15.9136 14.972 15.2287 15.3278C14.7787 15.5616 14.291 15.6591 13.7354 15.7052C13.1958 15.75 12.5292 15.75 11.7026 15.75H6.29737C5.47083 15.75 4.80417 15.75 4.26462 15.7052C3.70901 15.6591 3.22135 15.5616 2.77135 15.3278C2.08643 14.972 1.52798 14.4136 1.1722 13.7287C0.938442 13.2787 0.840934 12.791 0.794793 12.2354C0.749986 11.6958 0.749993 11.0292 0.75 10.2027V7.79735C0.749993 6.97082 0.749986 6.30417 0.794793 5.76462C0.840934 5.20901 0.938442 4.72135 1.1722 4.27135C1.52798 3.58643 2.08643 3.02798 2.77135 2.6722C3.22135 2.43844 3.70901 2.34093 4.26462 2.29479C4.80417 2.24999 5.47082 2.24999 6.29735 2.25ZM3.93955 3.84788C4.57604 3.99721 5.16689 4.3137 5.64763 4.77155L7.85172 6.87069C8.15654 7.16099 8.35308 7.34738 8.51421 7.47764C8.66811 7.60205 8.74056 7.63352 8.78066 7.64578C8.92362 7.6895 9.07638 7.6895 9.21934 7.64578C9.25945 7.63352 9.33189 7.60205 9.48579 7.47764C9.64692 7.34738 9.84347 7.16099 10.1483 6.87069L12.3524 4.77155C12.8331 4.3137 13.424 3.99721 14.0604 3.84788C13.9344 3.82367 13.7871 3.80425 13.6112 3.78965C13.1411 3.7506 12.5368 3.75 11.67 3.75H6.33C5.46318 3.75 4.85892 3.7506 4.38876 3.78965C4.21287 3.80425 4.06558 3.82367 3.93955 3.84788ZM15.6079 5.25H14.9062C14.3405 5.25 13.7965 5.46761 13.3869 5.85776L11.1621 7.97659C10.8838 8.24162 10.6431 8.47091 10.4288 8.64413C10.202 8.82747 9.95698 8.98877 9.65803 9.0802C9.22915 9.21136 8.77085 9.21136 8.34197 9.0802C8.04302 8.98877 7.79798 8.82747 7.57119 8.64413C7.35691 8.47091 7.11618 8.24162 6.8379 7.97657L4.61315 5.85776C4.20349 5.46761 3.65946 5.25 3.09375 5.25H2.39206C2.34644 5.41248 2.31227 5.61631 2.28965 5.88876C2.2506 6.35892 2.25 6.96318 2.25 7.83V10.17C2.25 11.0368 2.2506 11.6411 2.28965 12.1112C2.32795 12.5724 2.39932 12.837 2.50332 13.0372C2.71679 13.4481 3.05186 13.7832 3.46281 13.9967C3.66302 14.1007 3.92758 14.1721 4.38876 14.2104C4.85892 14.2494 5.46318 14.25 6.33 14.25H11.67C12.5368 14.25 13.1411 14.2494 13.6112 14.2104C14.0724 14.1721 14.337 14.1007 14.5372 13.9967C14.9481 13.7832 15.2832 13.4481 15.4967 13.0372C15.6007 12.837 15.6721 12.5724 15.7104 12.1112C15.7494 11.6411 15.75 11.0368 15.75 10.17V7.83C15.75 6.96318 15.7494 6.35892 15.7104 5.88876C15.6877 5.61631 15.6536 5.41248 15.6079 5.25Z" fill="white"/>
</svg>
