<svg width="20" height="20" viewBox="0 0 20 20" fill="none" xmlns="http://www.w3.org/2000/svg">
<path d="M8.83309 10.5891C8.67687 10.4329 8.5891 10.2209 8.5891 9.99997C8.5891 9.779 8.67687 9.56708 8.83309 9.41081L12.6539 5.58914C12.8057 5.43197 12.8897 5.22147 12.8878 5.00297C12.8859 4.78447 12.7983 4.57546 12.6438 4.42096C12.4893 4.26645 12.2803 4.17881 12.0618 4.17691C11.8433 4.17501 11.6328 4.25901 11.4756 4.41081L7.65726 8.23247C7.18858 8.70129 6.92529 9.33706 6.92529 9.99997C6.92529 10.6629 7.18858 11.2987 7.65726 11.7675L11.4789 15.5891C11.6361 15.7409 11.8466 15.8249 12.0651 15.823C12.2836 15.8211 12.4926 15.7335 12.6471 15.579C12.8016 15.4245 12.8893 15.2155 12.8912 14.997C12.8931 14.7785 12.8091 14.568 12.6573 14.4108L8.83309 10.5891Z" fill="#64748B"/>
</svg>
