<svg width="32" height="32" viewBox="0 0 32 32" fill="none" xmlns="http://www.w3.org/2000/svg">
<path d="M26.6312 22.3996L26.7645 22.533C27.0672 22.8382 27.4422 23.062 27.8545 23.1834C28.2669 23.3049 28.7033 23.3201 29.1231 23.2276C29.5362 23.1409 29.9208 22.9518 30.2416 22.6775C30.5624 22.4033 30.8091 22.0528 30.9591 21.6583C31.6952 19.7255 32.0471 17.6675 31.995 15.5999C31.845 11.5387 30.1746 7.68207 27.3149 4.79449C24.4552 1.90692 20.615 0.199141 16.5555 0.00966368C14.4089 -0.0649763 12.2692 0.293375 10.264 1.06335C8.25889 1.83333 6.42929 2.99917 4.88434 4.49137C3.33938 5.98357 2.11071 7.77157 1.27155 9.74878C0.432401 11.726 -4.43087e-05 13.8519 3.40512e-09 15.9998C0.00494015 20.2417 1.69218 24.3083 4.6916 27.3077C7.69103 30.3072 11.7577 31.9944 15.9995 31.9994C16.4502 31.9994 16.8928 31.97 17.3328 31.9327C17.6667 31.9045 17.9777 31.7517 18.204 31.5047C18.4303 31.2576 18.5553 30.9344 18.5541 30.5994L18.5114 25.8155C18.5006 24.8702 18.7718 23.9431 19.2904 23.1526C19.809 22.3621 20.5514 21.7441 21.4228 21.3775C22.2942 21.0109 23.2551 20.9123 24.1828 21.0944C25.1106 21.2765 25.9629 21.7309 26.6312 22.3996ZM22.7086 10.7333C23.0909 10.6319 23.4947 10.6461 23.869 10.7741C24.2432 10.9022 24.571 11.1383 24.8111 11.4526C25.0511 11.767 25.1926 12.1455 25.2175 12.5402C25.2425 12.9349 25.1498 13.3282 24.9513 13.6703C24.7528 14.0124 24.4572 14.2879 24.1021 14.462C23.747 14.6362 23.3482 14.7011 22.9562 14.6486C22.5642 14.5961 22.1965 14.4286 21.8997 14.1672C21.6029 13.9058 21.3902 13.5622 21.2887 13.1799C21.2212 12.926 21.2045 12.6614 21.2393 12.401C21.2742 12.1406 21.36 11.8897 21.4918 11.6625C21.6237 11.4353 21.799 11.2363 22.0078 11.0769C22.2166 10.9174 22.4547 10.8007 22.7086 10.7333ZM10.4023 22.5996C10.0201 22.7011 9.61627 22.6869 9.24204 22.5589C8.86781 22.4308 8.53995 22.1947 8.29991 21.8803C8.05987 21.566 7.91843 21.1875 7.89347 20.7928C7.86852 20.398 7.96116 20.0048 8.1597 19.6627C8.35824 19.3206 8.65375 19.0451 9.00888 18.8709C9.364 18.6968 9.76279 18.6319 10.1548 18.6843C10.5468 18.7368 10.9145 18.9044 11.2113 19.1658C11.5081 19.4272 11.7207 19.7708 11.8223 20.153C11.8898 20.4069 11.9065 20.6716 11.8717 20.932C11.8368 21.1923 11.751 21.4433 11.6191 21.6705C11.4873 21.8977 11.312 22.0967 11.1032 22.2561C10.8944 22.4155 10.6563 22.5323 10.4023 22.5996ZM10.4023 14.5999C10.0201 14.7013 9.61627 14.6871 9.24204 14.5591C8.86781 14.4311 8.53995 14.1949 8.29991 13.8806C8.05987 13.5662 7.91843 13.1878 7.89347 12.793C7.86852 12.3983 7.96116 12.005 8.1597 11.6629C8.35824 11.3209 8.65375 11.0453 9.00888 10.8712C9.364 10.697 9.76279 10.6321 10.1548 10.6846C10.5468 10.7371 10.9145 10.9046 11.2113 11.166C11.5081 11.4275 11.7207 11.771 11.8223 12.1533C11.8898 12.4072 11.9065 12.6719 11.8717 12.9322C11.8368 13.1926 11.751 13.4435 11.6191 13.6707C11.4873 13.8979 11.312 14.0969 11.1032 14.2564C10.8944 14.4158 10.6563 14.5325 10.4023 14.5999ZM17.0688 10.6C16.6865 10.7014 16.2827 10.6873 15.9085 10.5592C15.5343 10.4312 15.2064 10.1951 14.9664 9.88071C14.7263 9.56636 14.5849 9.18789 14.5599 8.79315C14.535 8.39842 14.6276 8.00514 14.8262 7.66306C15.0247 7.32098 15.3202 7.04545 15.6753 6.8713C16.0305 6.69716 16.4292 6.63222 16.8213 6.68471C17.2133 6.73719 17.581 6.90474 17.8778 7.16617C18.1746 7.42759 18.3872 7.77115 18.4888 8.15341C18.5562 8.4073 18.573 8.67198 18.5381 8.93235C18.5033 9.19271 18.4175 9.44366 18.2856 9.67086C18.1538 9.89806 17.9784 10.0971 17.7696 10.2565C17.5609 10.4159 17.3227 10.5326 17.0688 10.6Z" fill="#5E5E5E"/>
</svg>
