<svg width="24" height="24" viewBox="0 0 24 24" fill="none" xmlns="http://www.w3.org/2000/svg">
<g clip-path="url(#clip0_0_10)">
<path d="M19.675 2.75802C18.408 1.70368 16.9364 0.923183 15.3528 0.46572C13.7692 0.00825769 12.1081 -0.116257 10.474 0.100021C7.45108 0.492739 4.6909 2.02119 2.75394 4.37503C0.816972 6.72887 -0.151582 9.73164 0.0449391 12.7736C0.24146 15.8156 1.58832 18.6688 3.81205 20.7539C6.03578 22.8389 8.96968 23.9995 12.018 24H19C20.3256 23.9984 21.5965 23.4711 22.5338 22.5338C23.4711 21.5965 23.9984 20.3256 24 19V11.309V11.246C23.8942 9.61147 23.456 8.01567 22.7124 6.55623C21.9687 5.09679 20.9352 3.80438 19.675 2.75802ZM8.00002 7.00002H12C12.2652 7.00002 12.5196 7.10538 12.7071 7.29291C12.8947 7.48045 13 7.7348 13 8.00002C13 8.26524 12.8947 8.51959 12.7071 8.70713C12.5196 8.89466 12.2652 9.00002 12 9.00002H8.00002C7.7348 9.00002 7.48044 8.89466 7.29291 8.70713C7.10537 8.51959 7.00002 8.26524 7.00002 8.00002C7.00002 7.7348 7.10537 7.48045 7.29291 7.29291C7.48044 7.10538 7.7348 7.00002 8.00002 7.00002ZM16 17H8.00002C7.7348 17 7.48044 16.8947 7.29291 16.7071C7.10537 16.5196 7.00002 16.2652 7.00002 16C7.00002 15.7348 7.10537 15.4805 7.29291 15.2929C7.48044 15.1054 7.7348 15 8.00002 15H16C16.2652 15 16.5196 15.1054 16.7071 15.2929C16.8947 15.4805 17 15.7348 17 16C17 16.2652 16.8947 16.5196 16.7071 16.7071C16.5196 16.8947 16.2652 17 16 17ZM16 13H8.00002C7.7348 13 7.48044 12.8947 7.29291 12.7071C7.10537 12.5196 7.00002 12.2652 7.00002 12C7.00002 11.7348 7.10537 11.4805 7.29291 11.2929C7.48044 11.1054 7.7348 11 8.00002 11H16C16.2652 11 16.5196 11.1054 16.7071 11.2929C16.8947 11.4805 17 11.7348 17 12C17 12.2652 16.8947 12.5196 16.7071 12.7071C16.5196 12.8947 16.2652 13 16 13Z" fill="#CBD5E1"/>
</g>
<defs>
<clipPath id="clip0_0_10">
<rect width="24" height="24" fill="white"/>
</clipPath>
</defs>
</svg>
