<svg width="68" height="68" viewBox="0 0 68 68" fill="none" xmlns="http://www.w3.org/2000/svg">
<g clip-path="url(#clip0_223_6489)">
<path d="M45.5704 27.8573C44.349 29.0787 44.6277 31.6413 45.6037 33.4133C45.9762 34.1159 46.0842 34.9288 45.9078 35.7042C45.7314 36.4795 45.2825 37.1658 44.6428 37.6381C44.003 38.1103 43.2149 38.3372 42.422 38.2774C41.6291 38.2175 40.884 37.8749 40.3224 37.312L30.6877 27.6773C30.1281 27.115 29.7885 26.3708 29.7303 25.5796C29.6722 24.7884 29.8994 24.0026 30.3708 23.3645C30.8422 22.7264 31.5266 22.2783 32.2999 22.1013C33.0733 21.9244 33.8844 22.0304 34.5864 22.4C36.3584 23.3747 38.921 23.6547 40.1424 22.4333L43.4477 19.124C44.1788 18.4258 45.1508 18.0361 46.1617 18.0361C47.1726 18.0361 48.1447 18.4258 48.8757 19.124C49.2327 19.4806 49.5159 19.9041 49.7091 20.3703C49.9023 20.8364 50.0018 21.3361 50.0018 21.8407C50.0018 22.3453 49.9023 22.8449 49.7091 23.3111C49.5159 23.7772 49.2327 24.2007 48.8757 24.5573L45.5704 27.8573ZM20.625 41.1293C19.9678 41.7927 19.5381 42.6476 19.3979 43.5709C19.2577 44.4942 19.4143 45.4381 19.845 46.2667L18.3904 47.724C18.1404 47.974 18 48.3131 18 48.6667C18 49.0202 18.1404 49.3593 18.3904 49.6093C18.6404 49.8593 18.9795 49.9997 19.333 49.9997C19.6866 49.9997 20.0257 49.8593 20.2757 49.6093L21.733 48.1547C22.5598 48.5949 23.5065 48.7567 24.4325 48.6159C25.3586 48.4751 26.2145 48.0394 26.873 47.3733L36.7397 37.5067L30.497 31.2587L20.625 41.1293Z" fill="#46BD84"/>
</g>
<rect opacity="0.15" width="68" height="68" rx="25" fill="#46BD84"/>
<defs>
<clipPath id="clip0_223_6489">
<rect width="32" height="32" fill="white" transform="translate(18 18)"/>
</clipPath>
</defs>
</svg>
