<svg width="24" height="24" viewBox="0 0 24 24" fill="none" xmlns="http://www.w3.org/2000/svg">
<path fill-rule="evenodd" clip-rule="evenodd" d="M12.1042 3C9.19995 3 6.95462 5.19595 6.95462 7.77444V10.2188C6.95462 10.5405 6.8224 10.8248 6.7535 10.9646C6.66396 11.1463 6.54689 11.339 6.42201 11.5279C6.17043 11.9084 5.83373 12.3536 5.47499 12.8035C5.0147 13.3809 4.91669 14.0494 5.06333 14.5627C5.20264 15.0504 5.56438 15.432 6.18165 15.5344C7.73828 15.7925 9.72836 16 12.1042 16C14.6552 16 16.605 15.7608 18.0149 15.4803C18.5158 15.3806 18.8053 15.078 18.9305 14.6866C19.0643 14.2684 19.0173 13.7009 18.6806 13.1607C18.5188 12.9011 18.3449 12.6358 18.1697 12.3698C18.1518 12.3426 18.1339 12.3154 18.1159 12.2881C17.9608 12.0528 17.8046 11.8158 17.6655 11.5955C17.512 11.3526 17.3628 11.1043 17.2494 10.8776C17.1608 10.7004 17.0001 10.3623 17.0001 10V7.71194C17.0001 5.09322 14.9666 3 12.1042 3ZM4.95462 7.77444C4.95462 3.97465 8.21584 1 12.1042 1C16.0345 1 19.0001 3.95238 19.0001 7.71194V9.90173C19.0085 9.92117 19.0208 9.94809 19.0383 9.98326C19.106 10.1185 19.2121 10.2991 19.3564 10.5274C19.4844 10.7302 19.6295 10.9503 19.7866 11.1887C19.8043 11.2155 19.822 11.2424 19.8399 11.2696C20.0149 11.5353 20.2014 11.8195 20.378 12.1029C20.9971 13.0963 21.1636 14.2698 20.8354 15.2959C20.4986 16.3489 19.6506 17.1941 18.4052 17.4418C16.8617 17.7489 14.781 18 12.1042 18C9.61165 18 7.51199 17.7823 5.85445 17.5074C4.43304 17.2717 3.47993 16.3011 3.14025 15.1121C2.8079 13.9487 3.06675 12.6159 3.91117 11.5567C4.25636 11.1238 4.55043 10.7323 4.75363 10.4249C4.8518 10.2764 4.91678 10.1655 4.95462 10.0904V7.77444ZM4.98387 10.0249C4.98415 10.0248 4.98277 10.0291 4.97888 10.0385C4.98164 10.0297 4.98359 10.0251 4.98387 10.0249ZM15.7854 19.3808C16.1273 19.8145 16.053 20.4433 15.6193 20.7852C13.5782 22.3948 10.4433 22.4152 8.38008 20.7846C7.94678 20.4421 7.87313 19.8132 8.21558 19.3799C8.55804 18.9466 9.1869 18.873 9.6202 19.2154C10.9509 20.2671 13.0603 20.2561 14.3809 19.2148C14.8146 18.8728 15.4434 18.9471 15.7854 19.3808Z" fill="white"/>
</svg>
