<svg width="16" height="16" viewBox="0 0 16 16" fill="none" xmlns="http://www.w3.org/2000/svg">
<path d="M9.41406 10.2667L12.4714 7.20733C12.5862 7.0804 12.6477 6.91418 12.6433 6.74311C12.6389 6.57203 12.5689 6.4092 12.4478 6.28831C12.3267 6.16743 12.1637 6.09777 11.9926 6.09374C11.8215 6.08971 11.6554 6.15162 11.5287 6.26667L8.47139 9.324C8.34637 9.44898 8.17683 9.51919 8.00006 9.51919C7.82328 9.51919 7.65374 9.44898 7.52872 9.324L4.47139 6.26667C4.3463 6.14166 4.17667 6.07147 3.99982 6.07153C3.82298 6.0716 3.6534 6.14191 3.52839 6.267C3.40339 6.39209 3.33319 6.56172 3.33326 6.73857C3.33332 6.91542 3.40363 7.085 3.52872 7.21L6.58606 10.2667C6.96111 10.6416 7.46973 10.8522 8.00006 10.8522C8.53038 10.8522 9.039 10.6416 9.41406 10.2667Z" fill="#64748B"/>
</svg>
