<svg width="13" height="18" viewBox="0 0 13 18" fill="none" xmlns="http://www.w3.org/2000/svg">
<mask id="path-1-inside-1_254_2692" fill="white">
<path d="M5.41667 6.93164C5.41667 6.79023 5.47373 6.6546 5.57532 6.55461C5.6769 6.45461 5.81467 6.39844 5.95833 6.39844H9.75C9.89366 6.39844 10.0314 6.45461 10.133 6.55461C10.2346 6.6546 10.2917 6.79023 10.2917 6.93164C10.2917 7.07305 10.2346 7.20868 10.133 7.30867C10.0314 7.40867 9.89366 7.46484 9.75 7.46484H5.95833C5.81467 7.46484 5.6769 7.40867 5.57532 7.30867C5.47373 7.20868 5.41667 7.07305 5.41667 6.93164ZM5.41667 10.1309C5.41667 9.98944 5.47373 9.85382 5.57532 9.75383C5.6769 9.65383 5.81467 9.59766 5.95833 9.59766H9.75C9.89366 9.59766 10.0314 9.65383 10.133 9.75383C10.2346 9.85382 10.2917 9.98944 10.2917 10.1309C10.2917 10.2723 10.2346 10.4079 10.133 10.5079C10.0314 10.6079 9.89366 10.6641 9.75 10.6641H5.95833C5.81467 10.6641 5.6769 10.6079 5.57532 10.5079C5.47373 10.4079 5.41667 10.2723 5.41667 10.1309ZM5.41667 13.3301C5.41667 13.1887 5.47373 13.053 5.57532 12.953C5.6769 12.8531 5.81467 12.7969 5.95833 12.7969H9.75C9.89366 12.7969 10.0314 12.8531 10.133 12.953C10.2346 13.053 10.2917 13.1887 10.2917 13.3301C10.2917 13.4715 10.2346 13.6071 10.133 13.7071C10.0314 13.8071 9.89366 13.8633 9.75 13.8633H5.95833C5.81467 13.8633 5.6769 13.8071 5.57532 13.7071C5.47373 13.6071 5.41667 13.4715 5.41667 13.3301ZM4.33333 6.93164C4.33333 7.14376 4.24773 7.3472 4.09536 7.49719C3.94298 7.64718 3.73632 7.73145 3.52083 7.73145C3.30535 7.73145 3.09868 7.64718 2.94631 7.49719C2.79394 7.3472 2.70833 7.14376 2.70833 6.93164C2.70833 6.71952 2.79394 6.51609 2.94631 6.36609C3.09868 6.2161 3.30535 6.13184 3.52083 6.13184C3.73632 6.13184 3.94298 6.2161 4.09536 6.36609C4.24773 6.51609 4.33333 6.71952 4.33333 6.93164ZM4.33333 10.1309C4.33333 10.343 4.24773 10.5464 4.09536 10.6964C3.94298 10.8464 3.73632 10.9307 3.52083 10.9307C3.30535 10.9307 3.09868 10.8464 2.94631 10.6964C2.79394 10.5464 2.70833 10.343 2.70833 10.1309C2.70833 9.91874 2.79394 9.71531 2.94631 9.56531C3.09868 9.41532 3.30535 9.33105 3.52083 9.33105C3.73632 9.33105 3.94298 9.41532 4.09536 9.56531C4.24773 9.71531 4.33333 9.91874 4.33333 10.1309ZM3.52083 14.1299C3.73632 14.1299 3.94298 14.0456 4.09536 13.8956C4.24773 13.7456 4.33333 13.5422 4.33333 13.3301C4.33333 13.118 4.24773 12.9145 4.09536 12.7645C3.94298 12.6145 3.73632 12.5303 3.52083 12.5303C3.30535 12.5303 3.09868 12.6145 2.94631 12.7645C2.79394 12.9145 2.70833 13.118 2.70833 13.3301C2.70833 13.5422 2.79394 13.7456 2.94631 13.8956C3.09868 14.0456 3.30535 14.1299 3.52083 14.1299ZM3.34208 1.06641C3.45415 0.754399 3.66176 0.484286 3.9363 0.293292C4.21085 0.102298 4.53881 -0.00017327 4.875 2.19932e-07H8.125C8.46119 -0.00017327 8.78915 0.102298 9.0637 0.293292C9.33824 0.484286 9.54585 0.754399 9.65792 1.06641H11.375C11.806 1.06641 12.2193 1.23494 12.524 1.53492C12.8288 1.83491 13 2.24177 13 2.66602V15.4629C13 15.8871 12.8288 16.294 12.524 16.594C12.2193 16.894 11.806 17.0625 11.375 17.0625H1.625C1.19402 17.0625 0.780698 16.894 0.475951 16.594C0.171205 16.294 0 15.8871 0 15.4629V2.66602C0 2.24177 0.171205 1.83491 0.475951 1.53492C0.780698 1.23494 1.19402 1.06641 1.625 1.06641H3.34208ZM4.875 1.06641C4.73134 1.06641 4.59357 1.12258 4.49198 1.22258C4.3904 1.32257 4.33333 1.4582 4.33333 1.59961C4.33333 1.74102 4.3904 1.87665 4.49198 1.97664C4.59357 2.07664 4.73134 2.13281 4.875 2.13281H8.125C8.26866 2.13281 8.40644 2.07664 8.50802 1.97664C8.6096 1.87665 8.66667 1.74102 8.66667 1.59961C8.66667 1.4582 8.6096 1.32257 8.50802 1.22258C8.40644 1.12258 8.26866 1.06641 8.125 1.06641H4.875ZM3.34208 2.13281H1.625C1.48134 2.13281 1.34357 2.18899 1.24198 2.28898C1.1404 2.38898 1.08333 2.5246 1.08333 2.66602V15.4629C1.08333 15.6043 1.1404 15.7399 1.24198 15.8399C1.34357 15.9399 1.48134 15.9961 1.625 15.9961H11.375C11.5187 15.9961 11.6564 15.9399 11.758 15.8399C11.8596 15.7399 11.9167 15.6043 11.9167 15.4629V2.66602C11.9167 2.5246 11.8596 2.38898 11.758 2.28898C11.6564 2.18899 11.5187 2.13281 11.375 2.13281H9.65792C9.54585 2.44482 9.33824 2.71493 9.0637 2.90593C8.78915 3.09692 8.46119 3.19939 8.125 3.19922H4.875C4.53881 3.19939 4.21085 3.09692 3.9363 2.90593C3.66176 2.71493 3.45415 2.44482 3.34208 2.13281Z"/>
</mask>
<path d="M5.41667 6.93164C5.41667 6.79023 5.47373 6.6546 5.57532 6.55461C5.6769 6.45461 5.81467 6.39844 5.95833 6.39844H9.75C9.89366 6.39844 10.0314 6.45461 10.133 6.55461C10.2346 6.6546 10.2917 6.79023 10.2917 6.93164C10.2917 7.07305 10.2346 7.20868 10.133 7.30867C10.0314 7.40867 9.89366 7.46484 9.75 7.46484H5.95833C5.81467 7.46484 5.6769 7.40867 5.57532 7.30867C5.47373 7.20868 5.41667 7.07305 5.41667 6.93164ZM5.41667 10.1309C5.41667 9.98944 5.47373 9.85382 5.57532 9.75383C5.6769 9.65383 5.81467 9.59766 5.95833 9.59766H9.75C9.89366 9.59766 10.0314 9.65383 10.133 9.75383C10.2346 9.85382 10.2917 9.98944 10.2917 10.1309C10.2917 10.2723 10.2346 10.4079 10.133 10.5079C10.0314 10.6079 9.89366 10.6641 9.75 10.6641H5.95833C5.81467 10.6641 5.6769 10.6079 5.57532 10.5079C5.47373 10.4079 5.41667 10.2723 5.41667 10.1309ZM5.41667 13.3301C5.41667 13.1887 5.47373 13.053 5.57532 12.953C5.6769 12.8531 5.81467 12.7969 5.95833 12.7969H9.75C9.89366 12.7969 10.0314 12.8531 10.133 12.953C10.2346 13.053 10.2917 13.1887 10.2917 13.3301C10.2917 13.4715 10.2346 13.6071 10.133 13.7071C10.0314 13.8071 9.89366 13.8633 9.75 13.8633H5.95833C5.81467 13.8633 5.6769 13.8071 5.57532 13.7071C5.47373 13.6071 5.41667 13.4715 5.41667 13.3301ZM4.33333 6.93164C4.33333 7.14376 4.24773 7.3472 4.09536 7.49719C3.94298 7.64718 3.73632 7.73145 3.52083 7.73145C3.30535 7.73145 3.09868 7.64718 2.94631 7.49719C2.79394 7.3472 2.70833 7.14376 2.70833 6.93164C2.70833 6.71952 2.79394 6.51609 2.94631 6.36609C3.09868 6.2161 3.30535 6.13184 3.52083 6.13184C3.73632 6.13184 3.94298 6.2161 4.09536 6.36609C4.24773 6.51609 4.33333 6.71952 4.33333 6.93164ZM4.33333 10.1309C4.33333 10.343 4.24773 10.5464 4.09536 10.6964C3.94298 10.8464 3.73632 10.9307 3.52083 10.9307C3.30535 10.9307 3.09868 10.8464 2.94631 10.6964C2.79394 10.5464 2.70833 10.343 2.70833 10.1309C2.70833 9.91874 2.79394 9.71531 2.94631 9.56531C3.09868 9.41532 3.30535 9.33105 3.52083 9.33105C3.73632 9.33105 3.94298 9.41532 4.09536 9.56531C4.24773 9.71531 4.33333 9.91874 4.33333 10.1309ZM3.52083 14.1299C3.73632 14.1299 3.94298 14.0456 4.09536 13.8956C4.24773 13.7456 4.33333 13.5422 4.33333 13.3301C4.33333 13.118 4.24773 12.9145 4.09536 12.7645C3.94298 12.6145 3.73632 12.5303 3.52083 12.5303C3.30535 12.5303 3.09868 12.6145 2.94631 12.7645C2.79394 12.9145 2.70833 13.118 2.70833 13.3301C2.70833 13.5422 2.79394 13.7456 2.94631 13.8956C3.09868 14.0456 3.30535 14.1299 3.52083 14.1299ZM3.34208 1.06641C3.45415 0.754399 3.66176 0.484286 3.9363 0.293292C4.21085 0.102298 4.53881 -0.00017327 4.875 2.19932e-07H8.125C8.46119 -0.00017327 8.78915 0.102298 9.0637 0.293292C9.33824 0.484286 9.54585 0.754399 9.65792 1.06641H11.375C11.806 1.06641 12.2193 1.23494 12.524 1.53492C12.8288 1.83491 13 2.24177 13 2.66602V15.4629C13 15.8871 12.8288 16.294 12.524 16.594C12.2193 16.894 11.806 17.0625 11.375 17.0625H1.625C1.19402 17.0625 0.780698 16.894 0.475951 16.594C0.171205 16.294 0 15.8871 0 15.4629V2.66602C0 2.24177 0.171205 1.83491 0.475951 1.53492C0.780698 1.23494 1.19402 1.06641 1.625 1.06641H3.34208ZM4.875 1.06641C4.73134 1.06641 4.59357 1.12258 4.49198 1.22258C4.3904 1.32257 4.33333 1.4582 4.33333 1.59961C4.33333 1.74102 4.3904 1.87665 4.49198 1.97664C4.59357 2.07664 4.73134 2.13281 4.875 2.13281H8.125C8.26866 2.13281 8.40644 2.07664 8.50802 1.97664C8.6096 1.87665 8.66667 1.74102 8.66667 1.59961C8.66667 1.4582 8.6096 1.32257 8.50802 1.22258C8.40644 1.12258 8.26866 1.06641 8.125 1.06641H4.875ZM3.34208 2.13281H1.625C1.48134 2.13281 1.34357 2.18899 1.24198 2.28898C1.1404 2.38898 1.08333 2.5246 1.08333 2.66602V15.4629C1.08333 15.6043 1.1404 15.7399 1.24198 15.8399C1.34357 15.9399 1.48134 15.9961 1.625 15.9961H11.375C11.5187 15.9961 11.6564 15.9399 11.758 15.8399C11.8596 15.7399 11.9167 15.6043 11.9167 15.4629V2.66602C11.9167 2.5246 11.8596 2.38898 11.758 2.28898C11.6564 2.18899 11.5187 2.13281 11.375 2.13281H9.65792C9.54585 2.44482 9.33824 2.71493 9.0637 2.90593C8.78915 3.09692 8.46119 3.19939 8.125 3.19922H4.875C4.53881 3.19939 4.21085 3.09692 3.9363 2.90593C3.66176 2.71493 3.45415 2.44482 3.34208 2.13281Z" fill="white" stroke="white" stroke-width="0.4" mask="url(#path-1-inside-1_254_2692)"/>
</svg>
